<?xml version="1.0" encoding="iso-8859-1"?>
<!-- Generator: Adobe Illustrator 19.0.0, SVG Export Plug-In . SVG Version: 6.00 Build 0)  -->
<svg version="1.1" id="Capa_1" xmlns="http://www.w3.org/2000/svg" xmlns:xlink="http://www.w3.org/1999/xlink" x="0px" y="0px"
	 viewBox="0 0 511.919 511.919" style="enable-background:new 0 0 511.919 511.919;" xml:space="preserve">
<g>
	<path style="fill:#A4C2F7;" d="M255.878,435.203c-98.81,0,153.6-80.39,153.6-179.2s-252.41-179.2-153.6-179.2
		c98.969,0,179.2,80.231,179.2,179.2S354.847,435.203,255.878,435.203L255.878,435.203z"/>
	<path style="fill:#FFFFFF;" d="M255.878,435.203c-98.969,0-179.2-80.231-179.2-179.2s80.231-179.2,179.2-179.2
		c98.81,0-153.6,80.39-153.6,179.2S354.688,435.203,255.878,435.203z"/>
	
		<linearGradient id="SVGID_1_" gradientUnits="userSpaceOnUse" x1="-48.8467" y1="652.444" x2="-48.0787" y2="651.7858" gradientTransform="matrix(307.2 0 0 -358.4 15143.6201 233974)">
		<stop  offset="0" style="stop-color:#D3DFF2"/>
		<stop  offset="0.1717" style="stop-color:#D3DFF2"/>
		<stop  offset="0.2" style="stop-color:#D3DFF2"/>
		<stop  offset="0.2002" style="stop-color:#DAE2F2"/>
		<stop  offset="0.2007" style="stop-color:#EBEAF2"/>
		<stop  offset="0.2014" style="stop-color:#F6EFF2"/>
		<stop  offset="0.2023" style="stop-color:#FDF2F2"/>
		<stop  offset="0.205" style="stop-color:#FFF3F2"/>
		<stop  offset="0.2522" style="stop-color:#FFF3F2"/>
		<stop  offset="0.26" style="stop-color:#FFF3F2"/>
		<stop  offset="0.26" style="stop-color:#D3DFF2"/>
		<stop  offset="0.3974" style="stop-color:#D3DFF2"/>
		<stop  offset="0.42" style="stop-color:#D3DFF2"/>
		<stop  offset="0.4202" style="stop-color:#DAE2F2"/>
		<stop  offset="0.4207" style="stop-color:#EBEAF2"/>
		<stop  offset="0.4214" style="stop-color:#F6EFF2"/>
		<stop  offset="0.4223" style="stop-color:#FDF2F2"/>
		<stop  offset="0.425" style="stop-color:#FFF3F2"/>
		<stop  offset="0.4894" style="stop-color:#FFF3F2"/>
		<stop  offset="0.5" style="stop-color:#FFF3F2"/>
		<stop  offset="0.5" style="stop-color:#F8F0F2"/>
		<stop  offset="0.5001" style="stop-color:#E7E8F2"/>
		<stop  offset="0.5003" style="stop-color:#DCE3F2"/>
		<stop  offset="0.5005" style="stop-color:#D5E0F2"/>
		<stop  offset="0.501" style="stop-color:#D3DFF2"/>
		<stop  offset="0.7062" style="stop-color:#D3DFF2"/>
		<stop  offset="0.74" style="stop-color:#D3DFF2"/>
		<stop  offset="0.741" style="stop-color:#FFF3F2"/>
		<stop  offset="0.8346" style="stop-color:#FFF3F2"/>
		<stop  offset="0.85" style="stop-color:#FFF3F2"/>
		<stop  offset="0.851" style="stop-color:#D3DFF2"/>
	</linearGradient>
	<ellipse style="fill:url(#SVGID_1_);" cx="255.878" cy="256.003" rx="153.6" ry="179.2"/>
	<circle style="fill:#A4C2F7;" cx="255.878" cy="247.469" r="25.6"/>
	<g>
		<path style="fill:#428DFF;" d="M255.878,443.736c-103.682,0-187.733-84.051-187.733-187.733S152.196,68.269,255.878,68.269
			s187.733,84.051,187.733,187.733C443.494,359.636,359.512,443.619,255.878,443.736z M255.878,85.336
			c-94.257,0-170.667,76.41-170.667,170.667s76.41,170.667,170.667,170.667s170.667-76.41,170.667-170.667
			C426.438,161.79,350.09,85.442,255.878,85.336z"/>
		<path style="fill:#428DFF;" d="M255.878,128.003c-2.263,0.001-4.434-0.898-6.035-2.499c-1.6-1.6-2.499-3.771-2.499-6.035v-17.067
			c0-4.713,3.821-8.533,8.533-8.533s8.533,3.821,8.533,8.533v17.067c0.001,2.263-0.898,4.434-2.499,6.035
			S258.141,128.003,255.878,128.003z"/>
		<path style="fill:#428DFF;" d="M255.878,418.136c-2.263,0.001-4.434-0.898-6.035-2.499c-1.6-1.6-2.499-3.771-2.499-6.035v-17.067
			c0-4.713,3.821-8.533,8.533-8.533s8.533,3.82,8.533,8.533v17.067c0.001,2.263-0.898,4.434-2.499,6.035
			C260.312,417.238,258.141,418.137,255.878,418.136L255.878,418.136z"/>
		<path style="fill:#428DFF;" d="M409.478,264.536h-17.067c-4.713,0-8.533-3.82-8.533-8.533s3.821-8.533,8.533-8.533h17.067
			c4.713,0,8.533,3.821,8.533,8.533S414.191,264.536,409.478,264.536z"/>
		<path style="fill:#428DFF;" d="M119.344,264.536h-17.067c-4.713,0-8.533-3.82-8.533-8.533s3.821-8.533,8.533-8.533h17.067
			c4.713,0,8.533,3.821,8.533,8.533S124.057,264.536,119.344,264.536z"/>
		<path style="fill:#428DFF;" d="M255.878,281.603c-18.851,0-34.133-15.282-34.133-34.133s15.282-34.133,34.133-34.133
			c18.851,0,34.133,15.282,34.133,34.133C289.991,266.312,274.721,281.583,255.878,281.603z M255.878,230.403
			c-9.426,0-17.067,7.641-17.067,17.067c0,9.426,7.641,17.067,17.067,17.067c9.426,0,17.067-7.641,17.067-17.067
			C272.934,238.048,265.299,230.414,255.878,230.403L255.878,230.403z"/>
		<path style="fill:#428DFF;" d="M255.878,230.403c-2.263,0.001-4.434-0.898-6.035-2.499c-1.6-1.6-2.499-3.771-2.499-6.035v-51.2
			c0-4.713,3.821-8.533,8.533-8.533s8.533,3.821,8.533,8.533v51.2c0.001,2.263-0.898,4.434-2.499,6.035
			S258.141,230.403,255.878,230.403z"/>
		<path style="fill:#428DFF;" d="M162.011,349.869c-3.451-0.001-6.562-2.08-7.882-5.268c-1.32-3.188-0.591-6.858,1.849-9.298
			l75.767-75.767c3.332-3.332,8.735-3.332,12.067,0c3.332,3.332,3.332,8.735,0,12.067l-75.767,75.766
			C166.446,348.972,164.275,349.872,162.011,349.869z"/>
		<path style="fill:#428DFF;" d="M503.344,264.536c-2.263,0.001-4.434-0.898-6.035-2.499c-1.6-1.6-2.499-3.771-2.499-6.035
			c0.21-65.47-26.696-128.105-74.325-173.025c-2.209-2.102-3.129-5.223-2.413-8.187c0.716-2.964,2.959-5.321,5.884-6.183
			c2.925-0.862,6.088-0.098,8.297,2.004c51.028,48.134,79.851,115.245,79.625,185.392c0.001,2.263-0.898,4.434-2.499,6.035
			C507.779,263.638,505.608,264.537,503.344,264.536z"/>
		<path style="fill:#428DFF;" d="M85.211,85.494c-3.489,0.001-6.627-2.122-7.923-5.361s-0.49-6.941,2.036-9.347
			c87.079-83.198,220.426-94.311,320.075-26.675c3.898,2.649,4.911,7.956,2.263,11.854c-2.649,3.898-7.956,4.911-11.854,2.263
			C296.807-4.89,172.361,5.488,91.099,83.137C89.514,84.653,87.404,85.497,85.211,85.494z"/>
		<path style="fill:#428DFF;" d="M153.478,85.336h-76.8v-76.8c0-4.713,3.821-8.533,8.533-8.533s8.533,3.821,8.533,8.533v59.733
			h59.733c4.713,0,8.533,3.82,8.533,8.533C162.011,81.516,158.191,85.336,153.478,85.336z"/>
		<path style="fill:#428DFF;" d="M252.124,503.553c-0.082-4.707,3.656-8.596,8.363-8.7l0,0c4.707-0.083,8.596,3.652,8.704,8.358l0,0
			c0.052,2.266-0.802,4.459-2.372,6.094c-1.57,1.635-3.728,2.575-5.994,2.614h-0.167
			C256.007,511.924,252.21,508.202,252.124,503.553L252.124,503.553z M234.374,511.061v0.083l0,0
			c-2.266-0.196-4.361-1.288-5.819-3.034c-1.458-1.746-2.159-4.001-1.948-6.266l0,0c0.178-2.258,1.253-4.35,2.985-5.81
			c1.732-1.459,3.976-2.164,6.232-1.957l0,0c4.673,0.432,8.133,4.538,7.767,9.217l0,0c-0.366,4.44-4.079,7.855-8.533,7.85l0,0
			C234.826,511.153,234.596,511.125,234.374,511.061z M277.724,502.611c-0.565-4.663,2.757-8.902,7.421-9.467l0,0
			c2.246-0.298,4.516,0.322,6.299,1.72c1.783,1.397,2.928,3.454,3.176,5.705l0,0c0.283,2.252-0.34,4.525-1.733,6.317
			c-1.393,1.793-3.44,2.958-5.692,3.241l0,0v-0.092l0,0c-0.336,0.076-0.681,0.107-1.025,0.092l0,0
			C281.852,510.136,278.216,506.901,277.724,502.611L277.724,502.611z M208.174,507.561c-4.634-0.884-7.683-5.345-6.825-9.983l0,0
			c0.416-2.231,1.702-4.204,3.575-5.485c1.873-1.281,4.179-1.763,6.408-1.34l0,0c4.627,0.894,7.671,5.347,6.825,9.983l0,0
			c-0.819,4.016-4.347,6.905-8.446,6.917l0,0C209.197,507.668,208.682,507.637,208.174,507.561L208.174,507.561z M303.066,499.119
			c-0.529-2.208-0.149-4.536,1.054-6.462s3.129-3.287,5.346-3.78l0,0c4.592-1.04,9.163,1.817,10.242,6.4l0,0
			c1.023,4.589-1.827,9.15-6.4,10.242l0,0c-0.645,0.138-1.304,0.194-1.963,0.167l0,0
			C307.39,505.697,303.954,502.972,303.066,499.119L303.066,499.119z M182.403,501.253c-4.495-1.402-7.039-6.147-5.717-10.667l0,0
			c1.412-4.483,6.168-6.995,10.667-5.633l0,0c2.172,0.626,4.002,2.1,5.077,4.088c1.075,1.989,1.306,4.326,0.64,6.487l0,0
			c-1.101,3.602-4.425,6.064-8.192,6.067l0,0C184.041,501.598,183.207,501.483,182.403,501.253L182.403,501.253z M327.899,492.969
			c-0.749-2.138-0.611-4.486,0.383-6.522c0.994-2.035,2.762-3.588,4.908-4.311l0,0c2.138-0.751,4.487-0.614,6.523,0.38
			c2.036,0.995,3.588,2.764,4.31,4.911l0,0c1.523,4.451-0.841,9.295-5.287,10.833l0,0c-0.916,0.267-1.863,0.41-2.817,0.425l0,0
			C332.302,498.681,329.084,496.387,327.899,492.969L327.899,492.969z M157.486,492.378c-2.089-0.876-3.741-2.55-4.59-4.65
			c-0.849-2.1-0.824-4.452,0.069-6.533l0,0c0.856-2.085,2.507-3.743,4.589-4.608c2.081-0.865,4.422-0.865,6.503,0l0,0
			c4.353,1.823,6.413,6.823,4.608,11.183l0,0c-1.333,3.154-4.426,5.203-7.85,5.2l0,0C159.678,492.98,158.55,492.779,157.486,492.378
			L157.486,492.378z M351.961,484.186c-0.961-2.046-1.059-4.392-0.272-6.511c0.787-2.119,2.393-3.833,4.456-4.755l0,0
			c2.032-0.977,4.373-1.094,6.492-0.324c2.12,0.77,3.839,2.362,4.77,4.416l0,0c0.977,2.046,1.094,4.398,0.324,6.531
			c-0.77,2.133-2.362,3.868-4.42,4.819l0,0c-1.129,0.5-2.349,0.761-3.583,0.767l0,0
			C356.392,489.151,353.353,487.217,351.961,484.186L351.961,484.186z M133.677,480.852c-1.995-1.06-3.485-2.871-4.141-5.032
			c-0.656-2.161-0.424-4.495,0.645-6.485l0,0c1.078-2,2.91-3.486,5.09-4.128c2.179-0.642,4.525-0.386,6.514,0.711l0,0
			c2.001,1.056,3.491,2.874,4.134,5.044c0.642,2.169,0.382,4.506-0.721,6.481l0,0c-1.462,2.791-4.358,4.533-7.508,4.517l0,0
			C136.276,481.966,134.888,481.583,133.677,480.852L133.677,480.852z M375.003,473.003c-1.169-1.934-1.52-4.254-0.976-6.448
			c0.544-2.194,1.939-4.08,3.876-5.244l0,0c4.058-2.38,9.276-1.045,11.692,2.992l0,0c1.173,1.934,1.526,4.255,0.981,6.45
			c-0.545,2.195-1.944,4.082-3.885,5.241l0,0c-1.31,0.796-2.817,1.209-4.35,1.192l0,0
			C379.319,477.22,376.514,475.62,375.003,473.003z M111.066,467.028c-1.858-1.288-3.126-3.262-3.527-5.487
			c-0.4-2.225,0.101-4.517,1.393-6.372l0,0c1.274-1.874,3.243-3.161,5.47-3.577s4.528,0.074,6.393,1.361l0,0
			c1.86,1.286,3.13,3.261,3.53,5.486c0.4,2.225-0.102,4.519-1.397,6.372l0,0c-1.576,2.313-4.201,3.688-7,3.667l0,0
			C114.198,468.499,112.501,467.994,111.066,467.028L111.066,467.028z M396.762,459.519c-2.813-3.773-2.049-9.109,1.708-11.942l0,0
			c1.817-1.359,4.103-1.934,6.347-1.598c2.244,0.337,4.26,1.557,5.599,3.39l0,0c1.358,1.817,1.932,4.102,1.596,6.345
			c-0.337,2.243-1.556,4.258-3.388,5.597l0,0c-1.454,1.079-3.223,1.65-5.033,1.625l0,0
			C400.889,462.996,398.333,461.717,396.762,459.519L396.762,459.519z M90.074,450.903L90.074,450.903
			c-1.722-1.47-2.789-3.565-2.965-5.822c-0.176-2.258,0.554-4.492,2.028-6.211l0,0c1.469-1.721,3.563-2.788,5.819-2.964
			c2.256-0.177,4.49,0.551,6.21,2.023l0,0c1.723,1.469,2.79,3.564,2.967,5.821c0.177,2.257-0.552,4.492-2.026,6.212l0,0
			c-1.626,1.891-3.993,2.983-6.487,2.992l0,0C93.586,452.948,91.621,452.221,90.074,450.903L90.074,450.903z M416.986,443.903
			c-1.55-1.669-2.368-3.889-2.271-6.165c0.096-2.276,1.099-4.419,2.784-5.951v0.083c1.653-1.549,3.86-2.367,6.123-2.269
			c2.263,0.097,4.392,1.101,5.906,2.786l0,0c1.529,1.663,2.335,3.865,2.239,6.122s-1.084,4.383-2.748,5.911l0,0
			c-1.57,1.416-3.606,2.205-5.721,2.217l0,0C420.909,446.627,418.627,445.639,416.986,443.903L416.986,443.903z M70.874,432.728
			c-1.564-1.628-2.416-3.812-2.368-6.069c0.048-2.257,0.991-4.403,2.623-5.964l0,0c1.629-1.564,3.813-2.416,6.07-2.368
			c2.258,0.048,4.403,0.993,5.963,2.626l0,0c1.583,1.618,2.449,3.806,2.401,6.07c-0.048,2.264-1.005,4.413-2.655,5.963l0,0
			c-1.567,1.547-3.686,2.404-5.887,2.383l0,0C74.69,435.393,72.459,434.434,70.874,432.728L70.874,432.728z M435.503,426.245
			c-1.689-1.504-2.71-3.618-2.838-5.875c-0.128-2.258,0.647-4.473,2.155-6.159l0,0c1.492-1.701,3.599-2.739,5.857-2.882
			c2.258-0.144,4.48,0.617,6.176,2.116l0,0c1.688,1.503,2.708,3.615,2.837,5.871c0.128,2.256-0.646,4.47-2.153,6.154l0,0
			c-1.6,1.865-3.942,2.93-6.4,2.908l0,0C439.06,428.382,437.055,427.623,435.503,426.245L435.503,426.245z M53.552,412.669
			c-1.392-1.782-2.014-4.048-1.726-6.291c0.288-2.243,1.462-4.278,3.259-5.651l0,0c1.783-1.393,4.049-2.015,6.293-1.727
			c2.244,0.288,4.28,1.462,5.653,3.26l0,0c2.884,3.704,2.236,9.042-1.45,11.949l0,0c-1.523,1.156-3.38,1.784-5.292,1.792l0,0
			C57.648,415.999,55.158,414.767,53.552,412.669L53.552,412.669z M452.144,406.786c-3.832-2.764-4.71-8.106-1.963-11.95l0,0
			c2.789-3.79,8.093-4.66,11.946-1.958l0,0c3.822,2.767,4.698,8.097,1.963,11.942l0,0c-1.624,2.248-4.227,3.581-7,3.583l0,0
			C455.312,408.404,453.579,407.837,452.144,406.786L452.144,406.786z M38.448,390.994c-2.482-4.008-1.263-9.268,2.729-11.775l0,0
			c4.008-2.49,9.274-1.267,11.775,2.733l0,0c2.491,4.006,1.27,9.273-2.729,11.775l0,0c-1.365,0.829-2.928,1.272-4.525,1.283l0,0
			C42.755,394.995,40.023,393.481,38.448,390.994L38.448,390.994z M466.736,385.711c-1.973-1.107-3.418-2.96-4.012-5.142
			s-0.286-4.512,0.854-6.466h-0.087c2.357-4.094,7.563-5.537,11.691-3.241l0,0c1.972,1.129,3.414,2.996,4.006,5.19
			c0.593,2.194,0.287,4.533-0.848,6.502l0,0c-1.526,2.656-4.362,4.286-7.425,4.267l0,0
			C469.448,386.836,468.003,386.453,466.736,385.711z M25.648,367.869L25.648,367.869c-1-2.036-1.148-4.386-0.412-6.532
			c0.737-2.145,2.297-3.909,4.337-4.902l0,0c4.242-2.064,9.354-0.309,11.433,3.925l0,0c0.985,2.048,1.116,4.404,0.363,6.548
			c-0.753,2.144-2.327,3.902-4.376,4.885l0,0c-1.139,0.567-2.394,0.861-3.667,0.858l0,0
			C30.066,372.65,27.089,370.795,25.648,367.869L25.648,367.869z M479.023,363.261c-2.09-0.893-3.73-2.592-4.55-4.712
			s-0.749-4.48,0.196-6.547l0,0c1.925-4.296,6.954-6.238,11.267-4.35l0,0c4.294,1.923,6.236,6.948,4.35,11.258l0,0
			c-1.387,3.098-4.455,5.102-7.85,5.125l0,0C481.256,364.027,480.092,363.762,479.023,363.261L479.023,363.261z M15.324,343.469
			c-0.792-2.116-0.705-4.46,0.24-6.511c0.945-2.052,2.671-3.641,4.793-4.414l0,0c2.126-0.782,4.477-0.682,6.528,0.28
			c2.051,0.961,3.633,2.703,4.393,4.837l0,0c0.792,2.116,0.705,4.46-0.24,6.511c-0.945,2.052-2.671,3.641-4.793,4.414l0,0
			c-0.96,0.337-1.97,0.512-2.987,0.517l0,0C19.683,349.104,16.5,346.844,15.324,343.469L15.324,343.469z M488.924,339.711
			c-4.456-1.484-6.891-6.276-5.462-10.75l0,0c0.662-2.162,2.165-3.967,4.17-5.01c2.006-1.044,4.346-1.238,6.496-0.54l0,0
			c2.167,0.685,3.97,2.206,5.012,4.225c1.041,2.02,1.233,4.371,0.534,6.533l0,0c-1.158,3.5-4.422,5.868-8.108,5.883l0,0
			C490.673,340.066,489.783,339.951,488.924,339.711z M7.557,318.211c-0.572-2.184-0.244-4.507,0.911-6.448
			c1.154-1.941,3.039-3.337,5.231-3.878l0,0c4.57-1.173,9.228,1.574,10.412,6.142l0,0c1.093,4.585-1.672,9.205-6.229,10.408l0,0
			c-0.67,0.172-1.359,0.259-2.05,0.258l0,0C11.915,324.682,8.506,322.011,7.557,318.211L7.557,318.211z M496.345,315.136
			c-2.216-0.446-4.16-1.764-5.395-3.656c-1.235-1.893-1.659-4.202-1.176-6.41l0,0c0.446-2.217,1.764-4.162,3.657-5.398
			c1.894-1.236,4.204-1.66,6.413-1.177l0,0c2.217,0.447,4.161,1.766,5.397,3.661c1.235,1.894,1.658,4.205,1.174,6.414l0,0
			c-0.794,3.937-4.263,6.761-8.279,6.741l0,0C497.534,315.339,496.93,315.28,496.345,315.136L496.345,315.136z M2.436,292.186
			c-0.657-4.667,2.589-8.984,7.254-9.65l0,0c4.665-0.649,8.976,2.596,9.642,7.259l0,0c0.328,2.242-0.255,4.522-1.617,6.333
			s-3.392,3.002-5.637,3.308l0,0c-0.393,0.069-0.793,0.097-1.192,0.083l0,0C6.636,299.521,3.033,296.394,2.436,292.186
			L2.436,292.186z M501.124,290.053c-4.69-0.497-8.091-4.701-7.596-9.392l0,0c0.236-2.252,1.358-4.319,3.119-5.743
			c1.761-1.424,4.016-2.089,6.268-1.849l0,0c2.245,0.215,4.311,1.318,5.738,3.065s2.096,3.992,1.858,6.235l0,0
			c-0.426,4.351-4.078,7.672-8.45,7.683H501.124L501.124,290.053z M0.048,265.903c-0.1-2.266,0.71-4.477,2.248-6.143
			c1.538-1.666,3.678-2.65,5.944-2.731l0,0c4.708-0.174,8.673,3.485,8.875,8.192l0,0c0.171,4.706-3.487,8.67-8.192,8.875H8.582
			C4.015,274.059,0.27,270.464,0.048,265.903z M494.811,256.003L494.811,256.003c0.014-4.707,3.826-8.52,8.533-8.533l0,0
			c4.707,0.015,8.518,3.827,8.533,8.533l0,0c-0.015,4.707-3.827,8.518-8.533,8.533l0,0
			C498.637,264.523,494.825,260.71,494.811,256.003z"/>
	</g>
</g>
<g>
</g>
<g>
</g>
<g>
</g>
<g>
</g>
<g>
</g>
<g>
</g>
<g>
</g>
<g>
</g>
<g>
</g>
<g>
</g>
<g>
</g>
<g>
</g>
<g>
</g>
<g>
</g>
<g>
</g>
</svg>
