<svg height="512" viewBox="0 0 56 60" width="512" xmlns="http://www.w3.org/2000/svg"><g id="062---Cloud-Watching" fill="none"><g id="Icons" transform="translate(1)"><path id="Shape" d="m54 19v6h-6v-2c0-1.1045695.8954305-2 2-2v-2c.0022328-.5295768.2144122-1.0366497.59-1.41.5718399-.5684616 1.4291108-.7379389 2.1742425-.4298346s1.2323721 1.0335232 1.2357575 1.8398346z" fill="#e8edfc"/><path id="Shape" d="m6 23v2h-6v-6c0-1.1045695.8954305-2 2-2s2 .8954305 2 2v2c1.1045695 0 2 .8954305 2 2z" fill="#e8edfc"/><path id="Shape" d="m23 51v7c0 .5522847-.4477153 1-1 1h-21c-.55228475 0-1-.4477153-1-1v-33h6c0 10 .06 8.91-.14 9.21-2.02915955 2.5520771-2.41968128 6.0399629-1.00517965 8.9776101s4.38472567 4.8073058 7.64517965 4.8123899h7.5c1.6568542 0 3 1.3431458 3 3z" fill="#cad9fc"/><path id="Shape" d="m3 39.5c-.00712461 2.0125797.70178763 3.9620883 2 5.5 1.56 1.85 1.9 3 4.5 3h7.5c1.6568542 0 3 1.3431458 3 3v7c0 .5522847-.4477153 1-1 1h-18c-.55228475 0-1-.4477153-1-1v-33h3z" fill="#e8edfc"/><path id="Shape" d="m54 25v33c0 .5522847-.4477153 1-1 1h-21c-.5522847 0-1-.4477153-1-1v-7c0-1.6568542 1.3431458-3 3-3h8c3.2213746-.1859235 6.0605072-2.1777704 7.3315806-5.1436083s.7554228-6.395449-1.3315806-8.8563917v-9z" fill="#7facfa"/><path id="Shape" d="m51 25v33c0 .5522847-.4477153 1-1 1h-18c-.5522847 0-1-.4477153-1-1v-7c0-1.6568542 1.3431458-3 3-3h8c3.2213746-.1859235 6.0605072-2.1777704 7.3315806-5.1436083s.7554228-6.395449-1.3315806-8.8563917v-9z" fill="#a4c2f7"/><path id="Shape" d="m44 13c-.0037485 1.68928-1.0683244 3.194094-2.66 3.76-20.34.29-14.81.24-25.34.24-2.3752443-.0025161-4.5254053-1.4059859-5.4836775-3.5793488s-.54423733-4.70742974 1.0559367-6.46277451c1.600174-1.75534477 4.0852148-2.40148051 6.3377408-1.64787669 1.4521523-2.77863879 4.3935609-4.45291588 7.5241595-4.28282146 3.1305986.17009443 5.8732908 2.15320505 7.0158405 5.07282146 2.5230266-.48758155 5.047404.8368862 6.08 3.19 1.2299999-.48604092 2.6207352-.33268447 3.7152784.40968392 1.0945431.74236838 1.7513858 1.97777138 1.7547216 3.30031608z" fill="#e8edfc"/><path id="Shape" d="m43.87 12c-.286859-1.109634-1.0359207-2.04291276-2.057182-2.56310583-1.0212614-.52019307-2.216602-.57732142-3.282818-.15689417-1.0331134-2.35188961-3.5589507-3.67296901-6.08-3.18-1.4048062-3.61232229-5.1970005-5.6980292-9-4.95 2.7215183.50121328 4.9907405 2.37332161 6 4.95 2.5230266-.48758155 5.047404.8368862 6.08 3.19 1.3596225-.62134511 2.9522478-.43270924 4.1290981.48906422 1.1768504.92177348 1.7415085 2.42283978 1.4639532 3.89171898s-1.3509998 2.6604141-2.7830513 3.0892168h3c1.9463736-.6948293 3.0429732-2.757997 2.53-4.76z" fill="#cad9fc"/><circle id="Oval" cx="12.5" cy="39.5" fill="#cad9fc" r="8.5"/><path id="Shape" d="m18 39.5c-.0024002 4.1156134-2.9496927 7.6397331-7 8.37-4.06005741-.7183497-7.01908812-4.2468832-7.01908812-8.37s2.95903071-7.6516503 7.01908812-8.37c4.0503073.7302669 6.9975998 4.2543866 7 8.37z" fill="#e8edfc"/><circle id="Oval" cx="41.5" cy="39.5" fill="#cad9fc" r="8.5"/><path id="Shape" d="m47 39.5c.0057093 4.1185556-2.9453625 7.6471943-7 8.37-4.0600574-.7183497-7.0190881-4.2468832-7.0190881-8.37s2.9590307-7.6516503 7.0190881-8.37c4.0546375.7228057 7.0057093 4.2514444 7 8.37z" fill="#e8edfc"/><path id="Shape" d="m43 20c0 2.209139-1.790861 4-4 4h-12c-2.209139 0-4-1.790861-4-4s1.790861-4 4-4c.1131149-.0099504.2268851-.0099504.34 0 .844938-2.4018867 3.1138303-4.0089199 5.66-4.0089199s4.815062 1.6070332 5.66 4.0089199c.1131149-.0099504.2268851-.0099504.34 0 2.209139 0 4 1.790861 4 4z" fill="#e8edfc"/><path id="Shape" d="m40 20c0 2.209139-1.790861 4-4 4h-9c-2.209139 0-4-1.790861-4-4s1.790861-4 4-4c.1131149-.0099504.2268851-.0099504.34 0 .6604377-1.8910162 2.2209629-3.3277497 4.16-3.83 1.9390371.5022503 3.4995623 1.9389838 4.16 3.83 1.1184345-.0954196 2.2254959.2834945 3.050894 1.04423.8253981.7607356 1.293169 1.8332799 1.289106 2.95577z" fill="#fff"/></g><path id="Shape" d="m0 2v39c0 .5522847.44771525 1 1 1h3c-.55228475 0-1-.4477153-1-1v-39c.0055179-.47924522.18295206-.94057403.5-1.3l-.09-.11c-.37335029-.37558779-.88042315-.58776721-1.41-.59-1.1045695 0-2 .8954305-2 2z" fill="#fff" transform="translate(1 17)"/><path id="Rectangle-path" d="m0 50h2v8h-2z" fill="#fff"/><path id="Rectangle-path" d="m0 50h2v8h-2z" fill="#fff"/><g fill="#428dff"><path id="Shape" d="m17.14 7.31c-1.0694406.0443184-2.0733669.52733733-2.7753854 1.33532089-.7020185.80798357-1.0400919 1.86953031-.9346146 2.93467911.0250086.3572656.2387164.6740507.5606218.8310254s.7031032.1302909 1-.07.4643868-.5437598.4393782-.9010254c-.0684399-.5371092.0955269-1.0779042.4507216-1.48656906.3551948-.40866491.8678723-.64637479 1.4092784-.65343094.5447705-.04262774.9544514-.51465139.92-1.06-.0179288-.26546082-.140908-.51283237-.341723-.68737247-.2008149-.1745401-.4629072-.26185687-.728277-.24262753z"/><circle id="Oval" cx="1" cy="54" r="1"/><path id="Shape" d="m2 60h21c1.1045695 0 2-.8954305 2-2v-7c0-2.209139-1.790861-4-4-4h-1.69c4.0123976-3.1845322 4.7733502-8.9786678 1.7192935-13.0912481-3.0540567-4.1125804-8.8207714-5.0591836-13.0292935-2.1387519v-8.77c.0006668-1.2719262-.80081626-2.4060247-2-2.83 0-1.26.12-2.28-.87-3.28-.85571161-.8627584-2.14735657-1.1241063-3.27116239-.6618782s-1.8577829 1.5567267-1.85883761 2.7718782v31c0 .5522847.44771525 1 1 1s1-.4477153 1-1v-24h4v7.68c-2.22017761 2.8642939-2.61735452 6.7422079-1.02390486 9.9970944s4.89990742 5.3196635 8.52390486 5.3229056h7.5c1.1045695 0 2 .8954305 2 2v7h-4v-5c0-.5522847-.4477153-1-1-1s-1 .4477153-1 1v5h-15c0-.5522847-.44771525-1-1-1-1.7 0-1.13 3 1 3zm0-36v-5c0-.5522847.44771525-1 1-1s1 .4477153 1 1v2c0 .5522847.44771525 1 1 1s1 .4477153 1 1v1zm11.5 23c-4.14213562 0-7.5-3.3578644-7.5-7.5s3.35786438-7.5 7.5-7.5c4.1421356 0 7.5 3.3578644 7.5 7.5s-3.3578644 7.5-7.5 7.5z"/><path id="Shape" d="m33 60h21c1.1045695 0 2-.8954305 2-2v-39c0-1.6568542-1.3431458-3-3-3s-3 1.3431458-3 3v1.17c-1.1991837.4239753-2.0006668 1.5580738-2 2.83v8.77c-4.2085221-2.9204317-9.9752368-1.9738285-13.0292935 2.1387519-3.0540567 4.1125803-2.2931041 9.9067159 1.7192935 13.0912481h-1.69c-2.209139 0-4 1.790861-4 4v7c0 1.1045695.8954305 2 2 2zm17-37c0-.5522847.4477153-1 1-1s1-.4477153 1-1c0-2.16-.09-2.33.31-2.71.2877849-.2744138.7108115-.3522422 1.0774193-.1982235.3666079.1540187.6071251.510614.6125807.9082235v5h-4zm-15 16.5c.0056353-3.3130816 2.1844317-6.22995 5.3597571-7.1753865s6.5947896.3045791 8.4117534 3.0749914 1.6008993 6.4047748-.5315105 8.9403951c-2.0349125 2.4018669-5.3518485 3.2797161-8.3084778 2.1988939s-4.9254067-3.890911-4.9315222-7.0388939zm-2 11.5c0-1.1045695.8954305-2 2-2h7.5c3.6239974-.0032421 6.9304552-2.0680191 8.5239049-5.3229056 1.5934496-3.2548865 1.1962727-7.1328005-1.0239049-9.9970944v-7.68h4v32h-15v-5c0-.5522847-.4477153-1-1-1s-1 .4477153-1 1v5h-4z"/><path id="Shape" d="m28 25h12c1.8938603 0 3.6251759-1.0700119 4.472136-2.763932.84696-1.6939202.6641802-3.7209798-.472136-5.236068 1.8852878-1.3990144 2.5433455-3.921267 1.5818443-6.0630109-.9615012-2.14174391-3.2835853-3.32611018-5.5818443-2.8469891-1.2676488-2.06684277-3.581685-3.25471471-6-3.08-1.4402193-2.90504826-4.331754-4.81082402-7.5693216-4.98884884-3.2375676-.17802481-6.3206242 1.39922482-8.0706784 4.12884884-2.6264932-.55180405-5.3372522.44667522-6.9782553 2.5703662-1.64100307 2.12369098-1.92331102 4.9986653-.72674 7.4009917 1.1965711 2.4023264 3.6613351 3.9090159 6.3449953 3.8786421h6.43c-.6737504 1.5437416-.5249639 3.3229624.3958252 4.7333613.920789 1.4103989 2.4898175 2.2624046 4.1741748 2.2666387zm12-2h-12c-1.6568542-.0220914-2.9820914-1.3831458-2.96-3.04s1.3831458-2.9820914 3.04-2.96h.09c.4787496.0816188.9469275-.1925394 1.11-.65.7013013-2.0064783 2.5944933-3.3502727 4.72-3.3502727s4.0186987 1.3437944 4.72 3.3502727c.1630725.4574606.6312504.7316188 1.11.65h.17c1.6568542 0 3 1.3431458 3 3s-1.3431458 3-3 3zm-23-7c-1.9795928-.0034329-3.7707624-1.1744619-4.5679663-2.9864402-.797204-1.8119782-.4503133-3.92367522.8846649-5.38539771s3.4066416-1.99819981 5.2833014-1.36816209c.4660408.15310179.9743262-.05444807 1.2-.49 1.2709758-2.42986628 3.843711-3.89383619 6.5818797-3.74530345 2.7381687.14853273 5.1374465 1.88221089 6.1381203 4.43530345.1754768.45422422.6526196.71601937 1.13.62 2.0739014-.41997551 4.1588562.66837094 5 2.61.2195504.5038981.8046314.736144 1.31.52 1.4614277-.51084246 3.0715665.1742541 3.7168732 1.5814891s.1138287 3.0743989-1.2268732 3.8485109c-.6499473-.36911-1.3743798-.5878066-2.12-.64-1.1562791-2.4491418-3.6216284-4.0115054-6.33-4.0115054s-5.1737209 1.5623636-6.33 4.0115054c-.96819.0671415-1.8959131.4146033-2.67 1z"/></g></g></svg>