<?xml version="1.0" encoding="iso-8859-1"?>
<!-- Generator: Adobe Illustrator 19.0.0, SVG Export Plug-In . SVG Version: 6.00 Build 0)  -->
<svg version="1.1" id="Capa_1" xmlns="http://www.w3.org/2000/svg" xmlns:xlink="http://www.w3.org/1999/xlink" x="0px" y="0px"
	 viewBox="0 0 512 512" style="enable-background:new 0 0 512 512;" xml:space="preserve">
<g>
	<rect x="264.533" y="8.533" style="fill:#A4C2F7;" width="238.933" height="494.933"/>
	<rect x="8.533" y="8.533" style="fill:#FFFFFF;" width="238.933" height="494.933"/>
	
		<linearGradient id="SVGID_1_" gradientUnits="userSpaceOnUse" x1="-48.9184" y1="652.6933" x2="-47.8607" y2="651.745" gradientTransform="matrix(443.7334 0 0 -494.9333 21728.0684 323061.0313)">
		<stop  offset="0" style="stop-color:#D4E1F4"/>
		<stop  offset="0.1717" style="stop-color:#D4E1F4"/>
		<stop  offset="0.2" style="stop-color:#D4E1F4"/>
		<stop  offset="0.2001" style="stop-color:#DAE4F4"/>
		<stop  offset="0.2007" style="stop-color:#EBEBF4"/>
		<stop  offset="0.2014" style="stop-color:#F6F1F4"/>
		<stop  offset="0.2023" style="stop-color:#FDF4F4"/>
		<stop  offset="0.205" style="stop-color:#FFF5F4"/>
		<stop  offset="0.2522" style="stop-color:#FFF5F4"/>
		<stop  offset="0.26" style="stop-color:#FFF5F4"/>
		<stop  offset="0.26" style="stop-color:#D4E1F4"/>
		<stop  offset="0.3974" style="stop-color:#D4E1F4"/>
		<stop  offset="0.42" style="stop-color:#D4E1F4"/>
		<stop  offset="0.4201" style="stop-color:#DAE4F4"/>
		<stop  offset="0.4207" style="stop-color:#EBEBF4"/>
		<stop  offset="0.4214" style="stop-color:#F6F1F4"/>
		<stop  offset="0.4223" style="stop-color:#FDF4F4"/>
		<stop  offset="0.425" style="stop-color:#FFF5F4"/>
		<stop  offset="0.4894" style="stop-color:#FFF5F4"/>
		<stop  offset="0.5" style="stop-color:#FFF5F4"/>
		<stop  offset="0.5" style="stop-color:#F9F2F4"/>
		<stop  offset="0.5001" style="stop-color:#E8EBF4"/>
		<stop  offset="0.5003" style="stop-color:#DDE5F4"/>
		<stop  offset="0.5005" style="stop-color:#D6E2F4"/>
		<stop  offset="0.501" style="stop-color:#D4E1F4"/>
		<stop  offset="0.7062" style="stop-color:#D4E1F4"/>
		<stop  offset="0.74" style="stop-color:#D4E1F4"/>
		<stop  offset="0.741" style="stop-color:#FFF5F4"/>
		<stop  offset="0.8346" style="stop-color:#FFF5F4"/>
		<stop  offset="0.85" style="stop-color:#FFF5F4"/>
		<stop  offset="0.851" style="stop-color:#D4E1F4"/>
	</linearGradient>
	<rect x="34.133" y="8.533" style="fill:url(#SVGID_1_);" width="443.733" height="494.933"/>
	<circle style="fill:#A4C2F7;" cx="256" cy="256" r="25.6"/>
	<g>
		<path style="fill:#428DFF;" d="M230.4,264.533h-68.267c-4.713,0-8.533-3.821-8.533-8.533c0-4.713,3.821-8.533,8.533-8.533H230.4
			c4.713,0,8.533,3.821,8.533,8.533C238.933,260.713,235.113,264.533,230.4,264.533z"/>
		<path style="fill:#428DFF;" d="M256,238.933c-2.263,0.001-4.434-0.898-6.035-2.499c-1.6-1.6-2.499-3.771-2.499-6.035v-93.867
			c0-4.713,3.821-8.533,8.533-8.533c4.713,0,8.533,3.821,8.533,8.533V230.4c0.001,2.263-0.898,4.434-2.499,6.035
			C260.434,238.035,258.263,238.934,256,238.933L256,238.933z"/>
		<path style="fill:#428DFF;" d="M256,290.133c-18.851,0-34.133-15.282-34.133-34.133c0-18.851,15.282-34.133,34.133-34.133
			c18.851,0,34.133,15.282,34.133,34.133C290.113,274.843,274.843,290.113,256,290.133z M256,238.933
			c-9.426,0-17.067,7.641-17.067,17.067c0,9.426,7.641,17.067,17.067,17.067c9.426,0,17.067-7.641,17.067-17.067
			C273.056,246.579,265.421,238.944,256,238.933L256,238.933z"/>
		<path style="fill:#428DFF;" d="M256,85.333c-2.263,0.001-4.434-0.898-6.035-2.499c-1.6-1.6-2.499-3.771-2.499-6.035v-8.533
			c0-4.713,3.821-8.533,8.533-8.533c4.713,0,8.533,3.821,8.533,8.533V76.8c0.001,2.263-0.898,4.434-2.499,6.035
			S258.263,85.334,256,85.333z"/>
		<path style="fill:#428DFF;" d="M256,452.267c-2.263,0.001-4.434-0.898-6.035-2.499c-1.6-1.6-2.499-3.771-2.499-6.035V435.2
			c0-4.713,3.821-8.533,8.533-8.533c4.713,0,8.533,3.82,8.533,8.533v8.533c0.001,2.263-0.898,4.434-2.499,6.035
			C260.434,451.368,258.263,452.267,256,452.267L256,452.267z"/>
		<path style="fill:#428DFF;" d="M443.733,264.533H435.2c-4.713,0-8.533-3.821-8.533-8.533c0-4.713,3.82-8.533,8.533-8.533h8.533
			c4.713,0,8.533,3.821,8.533,8.533C452.267,260.713,448.446,264.533,443.733,264.533z"/>
		<path style="fill:#428DFF;" d="M76.8,264.533h-8.533c-4.713,0-8.533-3.821-8.533-8.533c0-4.713,3.821-8.533,8.533-8.533H76.8
			c4.713,0,8.533,3.821,8.533,8.533C85.333,260.713,81.513,264.533,76.8,264.533z"/>
		<path style="fill:#428DFF;" d="M429.167,91.366c-3.451-0.001-6.562-2.08-7.882-5.268c-1.321-3.188-0.591-6.858,1.849-9.299
			l6.033-6.033c2.151-2.178,5.304-3.037,8.262-2.251s5.269,3.097,6.055,6.055c0.786,2.958-0.073,6.111-2.251,8.262l-6.033,6.033
			C433.602,90.469,431.431,91.369,429.167,91.366L429.167,91.366z"/>
		<path style="fill:#428DFF;" d="M78.05,442.483c-3.451-0.001-6.562-2.08-7.882-5.268c-1.32-3.188-0.591-6.858,1.849-9.298
			l6.033-6.033c2.154-2.162,5.299-3.008,8.247-2.22s5.251,3.091,6.039,6.039c0.788,2.948-0.058,6.093-2.22,8.247l-6.033,6.033
			C82.485,441.587,80.314,442.486,78.05,442.483z"/>
		<path style="fill:#428DFF;" d="M433.95,442.483c-2.264,0.003-4.435-0.897-6.033-2.5l-6.033-6.033
			c-2.162-2.154-3.008-5.299-2.22-8.247s3.091-5.251,6.039-6.039s6.093,0.058,8.247,2.22l6.033,6.033
			c2.44,2.441,3.169,6.11,1.849,9.298S437.401,442.482,433.95,442.483L433.95,442.483z"/>
		<path style="fill:#428DFF;" d="M81.067,89.6c-2.264,0.003-4.435-0.897-6.033-2.5l-6.033-6.033
			c-3.296-3.338-3.28-8.711,0.038-12.029c3.317-3.317,8.69-3.334,12.029-0.038l6.033,6.033c2.44,2.44,3.17,6.11,1.85,9.299
			C87.629,87.52,84.518,89.599,81.067,89.6L81.067,89.6z"/>
		<path style="fill:#428DFF;" d="M503.467,512H8.533c-2.263,0.001-4.434-0.898-6.035-2.499c-1.6-1.6-2.499-3.771-2.499-6.035V8.533
			C-0.001,6.27,0.898,4.099,2.499,2.499S6.27-0.001,8.533,0h494.933c2.263-0.001,4.434,0.898,6.035,2.499
			c1.6,1.6,2.499,3.771,2.499,6.035v494.933c0.001,2.263-0.898,4.434-2.499,6.035C507.901,511.102,505.73,512.001,503.467,512
			L503.467,512z M17.067,494.933h477.867V17.067H17.067V494.933z"/>
	</g>
</g>
<g>
</g>
<g>
</g>
<g>
</g>
<g>
</g>
<g>
</g>
<g>
</g>
<g>
</g>
<g>
</g>
<g>
</g>
<g>
</g>
<g>
</g>
<g>
</g>
<g>
</g>
<g>
</g>
<g>
</g>
</svg>
