<?xml version="1.0" encoding="iso-8859-1"?>
<!-- Generator: Adobe Illustrator 21.0.0, SVG Export Plug-In . SVG Version: 6.00 Build 0)  -->
<svg version="1.1" id="Capa_1" xmlns="http://www.w3.org/2000/svg" xmlns:xlink="http://www.w3.org/1999/xlink" x="0px" y="0px"
	 viewBox="0 0 512 512" style="enable-background:new 0 0 512 512;" xml:space="preserve">
<g>
	<g transform="translate(1 7)">
		<path style="fill:#A4C2F7;" d="M161.133,103.933c0,28.277-22.923,51.2-51.2,51.2c-4.317-0.013-8.616-0.558-12.8-1.621
			c-22.605-5.815-38.406-26.195-38.406-49.536S74.529,60.255,97.133,54.44c4.172-1.134,8.477-1.708,12.8-1.707
			C138.21,52.733,161.133,75.656,161.133,103.933z"/>
		<path style="fill:#E3E7F2;" d="M135.533,103.933c-0.055,23.329-15.826,43.691-38.4,49.579
			c-22.605-5.815-38.406-26.195-38.406-49.536S74.529,60.255,97.133,54.44C119.71,60.269,135.497,80.616,135.533,103.933z"/>
		<path style="fill:#7FABFA;" d="M400.067,394.067v25.6H135.533v-25.6l15.104-45.397c1.204-3.453,4.45-5.776,8.107-5.803h50.859
			c1.778-0.012,3.509-0.578,4.949-1.621l55.296-39.424c1.44-1.043,3.171-1.61,4.949-1.621h69.035
			c3.102,0.004,5.952,1.708,7.424,4.437l20.907,38.229L400.067,394.067z"/>
		<path style="fill:#E3E7F2;" d="M374.467,394.067v25.6H135.533v-25.6l15.104-45.397c1.204-3.453,4.45-5.776,8.107-5.803h50.859
			c1.778-0.012,3.509-0.578,4.949-1.621l55.296-39.424c1.44-1.043,3.171-1.61,4.949-1.621h43.435
			c3.102,0.004,5.952,1.708,7.424,4.437l20.907,38.229L374.467,394.067z"/>
		<path style="fill:#7FABFA;" d="M400.067,394.067H135.533l15.104-45.397c1.204-3.453,4.45-5.776,8.107-5.803h50.859
			c1.778-0.012,3.509-0.578,4.949-1.621v1.621h157.611L400.067,394.067z"/>
		<path style="fill:#E3E7F2;" d="M374.467,394.067H135.533l15.104-45.397c1.204-3.453,4.45-5.776,8.107-5.803h25.259
			c1.778-0.012,3.509-0.578,4.949-1.621v1.621h157.611L374.467,394.067z"/>
		<path style="fill:#7FABFA;" d="M16.067,394.067h477.867c4.713,0,8.533,3.821,8.533,8.533v85.333c0,4.713-3.821,8.533-8.533,8.533
			H16.067c-4.713,0-8.533-3.821-8.533-8.533V402.6C7.533,397.887,11.354,394.067,16.067,394.067z"/>
		<path style="fill:#A4C2F7;" d="M16.067,394.067h452.267c4.713,0,8.533,3.821,8.533,8.533v85.333c0,4.713-3.821,8.533-8.533,8.533
			H16.067c-4.713,0-8.533-3.821-8.533-8.533V402.6C7.533,397.887,11.354,394.067,16.067,394.067z"/>
		<g>
			<path style="fill:#FFFFFF;" d="M97.133,54.44c-22.605,5.815-38.406,26.195-38.406,49.536s15.801,43.721,38.406,49.536
				c4.184,1.064,8.483,1.608,12.8,1.621c4.285-0.017,8.551-0.573,12.698-1.655c-22.566-5.862-38.313-26.243-38.289-49.559
				s15.812-43.664,38.391-49.479h0.051c-4.194-1.112-8.512-1.686-12.851-1.707C105.61,52.732,101.305,53.306,97.133,54.44z"/>
			<path style="fill:#FFFFFF;" d="M33.133,487.933V402.6c0-4.713,3.821-8.533,8.533-8.533h-25.6c-4.713,0-8.533,3.821-8.533,8.533
				v85.333c0,4.713,3.821,8.533,8.533,8.533h25.6C36.954,496.467,33.133,492.646,33.133,487.933z"/>
			<path style="fill:#FFFFFF;" d="M176.237,348.669c1.204-3.453,4.45-5.776,8.107-5.803h4.608v-1.621
				c-1.441,1.043-3.171,1.61-4.949,1.621h-25.259c-3.657,0.027-6.902,2.35-8.107,5.803l-15.104,45.397h25.6L176.237,348.669z"/>
			<path style="fill:#FFFFFF;" d="M240.152,341.245l55.296-39.424c1.44-1.043,3.171-1.61,4.949-1.621h-25.6
				c-1.778,0.012-3.509,0.578-4.949,1.621l-55.296,39.424v1.621h20.651C236.981,342.855,238.712,342.288,240.152,341.245z"/>
		</g>
	</g>
	<g>
		<polygon style="fill:#FFFFFF;" points="17.067,494.933 128,494.933 494.933,494.933 494.933,512 128,512 17.067,512 		"/>
		<g>
			<path style="fill:#428DFF;" d="M85.333,494.933c-2.259,0.033-4.422,0.917-6.059,2.475l-1.024,1.28
				c-0.323,0.476-0.582,0.992-0.768,1.536c-0.247,0.484-0.419,1.001-0.512,1.536c-0.095,0.564-0.152,1.135-0.171,1.707
				c0.033,2.259,0.917,4.422,2.475,6.059c0.816,0.771,1.772,1.38,2.816,1.792c3.183,1.288,6.825,0.586,9.301-1.792
				c0.771-0.816,1.38-1.772,1.792-2.816c0.437-1.026,0.669-2.128,0.683-3.243c0.023-2.27-0.869-4.454-2.474-6.059
				C89.787,495.802,87.604,494.91,85.333,494.933z"/>
			<path style="fill:#428DFF;" d="M494.933,392.533H460.8V307.2h8.533c14.138,0,25.6-11.462,25.6-25.6v-17.067
				c0-4.713-3.82-8.533-8.533-8.533s-8.533,3.821-8.533,8.533V281.6c0,4.713-3.821,8.533-8.533,8.533H460.8V230.4
				c0-4.713-3.82-8.533-8.533-8.533s-8.533,3.82-8.533,8.533v102.4H435.2c-4.713,0-8.533-3.82-8.533-8.533V307.2
				c0-4.713-3.82-8.533-8.533-8.533s-8.533,3.82-8.533,8.533v17.067c0,14.138,11.462,25.6,25.6,25.6h8.533v42.667h-37.606
				l-46.345-84.966c-2.989-5.486-8.737-8.9-14.985-8.9h-69.001c-3.557-0.006-7.026,1.108-9.916,3.183l-55.279,39.484h-50.85
				c-7.353-0.01-13.886,4.69-16.213,11.665l-13.158,39.535H85.333v-68.267h8.533c14.138,0,25.6-11.462,25.6-25.6v-8.533
				c0-4.713-3.821-8.533-8.533-8.533c-4.713,0-8.533,3.821-8.533,8.533v8.533c0,4.713-3.821,8.533-8.533,8.533h-8.533v-42.667
				c0-4.713-3.82-8.533-8.533-8.533c-4.713,0-8.533,3.821-8.533,8.533v85.333h-8.533c-4.713,0-8.533-3.821-8.533-8.533v-17.067
				c0-4.713-3.821-8.533-8.533-8.533s-8.533,3.821-8.533,8.533v17.067c0,14.138,11.462,25.6,25.6,25.6h8.533v25.6h-51.2
				C7.641,392.533,0,400.174,0,409.6v85.333C0,504.359,7.641,512,17.067,512H51.2c4.713,0,8.533-3.82,8.533-8.533
				c0-4.713-3.821-8.533-8.533-8.533H17.067V460.8h17.067c4.713,0,8.533-3.82,8.533-8.533s-3.821-8.533-8.533-8.533H17.067V409.6
				h477.867v34.133h-17.067c-4.713,0-8.533,3.82-8.533,8.533s3.821,8.533,8.533,8.533h17.067v34.133H119.467
				c-4.713,0-8.533,3.821-8.533,8.533c0,4.713,3.821,8.533,8.533,8.533h375.467c9.426,0,17.067-7.641,17.067-17.067V409.6
				C512,400.174,504.359,392.533,494.933,392.533z M159.753,358.4h50.85c0.529,0,1.015-0.196,1.545-0.239
				c0.389,0.11,0.785,0.19,1.186,0.239H281.6c4.713,0,8.533-3.821,8.533-8.533c0-4.713-3.821-8.533-8.533-8.533h-41.643l35.84-25.6
				h69.001l41.899,76.8H148.378L159.753,358.4z"/>
			<path style="fill:#428DFF;" d="M102.4,443.733H76.8c-4.713,0-8.533,3.82-8.533,8.533s3.821,8.533,8.533,8.533h25.6
				c4.713,0,8.533-3.82,8.533-8.533S107.113,443.733,102.4,443.733z"/>
			<path style="fill:#428DFF;" d="M170.667,460.8c4.713,0,8.533-3.82,8.533-8.533s-3.821-8.533-8.533-8.533h-25.6
				c-4.713,0-8.533,3.82-8.533,8.533s3.821,8.533,8.533,8.533H170.667z"/>
			<path style="fill:#428DFF;" d="M238.933,460.8c4.713,0,8.533-3.82,8.533-8.533s-3.821-8.533-8.533-8.533h-25.6
				c-4.713,0-8.533,3.82-8.533,8.533s3.82,8.533,8.533,8.533H238.933z"/>
			<path style="fill:#428DFF;" d="M307.2,460.8c4.713,0,8.533-3.82,8.533-8.533s-3.82-8.533-8.533-8.533h-25.6
				c-4.713,0-8.533,3.82-8.533,8.533s3.82,8.533,8.533,8.533H307.2z"/>
			<path style="fill:#428DFF;" d="M375.467,460.8c4.713,0,8.533-3.82,8.533-8.533s-3.821-8.533-8.533-8.533h-25.6
				c-4.713,0-8.533,3.82-8.533,8.533s3.821,8.533,8.533,8.533H375.467z"/>
			<path style="fill:#428DFF;" d="M443.733,460.8c4.713,0,8.533-3.82,8.533-8.533s-3.821-8.533-8.533-8.533h-25.6
				c-4.713,0-8.533,3.82-8.533,8.533s3.82,8.533,8.533,8.533H443.733z"/>
			<path style="fill:#428DFF;" d="M110.933,170.667c32.99,0,59.733-26.744,59.733-59.733S143.923,51.2,110.933,51.2
				S51.2,77.944,51.2,110.933C51.238,143.908,77.959,170.629,110.933,170.667z M110.933,68.267
				c23.564,0,42.667,19.103,42.667,42.667S134.497,153.6,110.933,153.6s-42.667-19.103-42.667-42.667
				C68.295,87.381,87.381,68.295,110.933,68.267z"/>
			<path style="fill:#428DFF;" d="M119.467,25.6V8.533c0-4.713-3.821-8.533-8.533-8.533c-4.713,0-8.533,3.821-8.533,8.533V25.6
				c0,4.713,3.821,8.533,8.533,8.533C115.646,34.133,119.467,30.313,119.467,25.6z"/>
			<path style="fill:#428DFF;" d="M68.267,45.568c3.047-0.003,5.861-1.631,7.384-4.27c1.522-2.64,1.521-5.891-0.002-8.53
				L67.115,17.98c-2.372-4.047-7.566-5.42-11.628-3.074s-5.47,7.53-3.151,11.608l8.533,14.788
				C62.394,43.944,65.215,45.571,68.267,45.568z"/>
			<path style="fill:#428DFF;" d="M41.301,60.877l-14.78-8.533c-2.642-1.549-5.911-1.563-8.566-0.038
				c-2.655,1.525-4.29,4.356-4.283,7.418c0.007,3.062,1.654,5.886,4.316,7.399l14.78,8.533c4.078,2.318,9.262,0.911,11.608-3.151
				C46.721,68.443,45.348,63.249,41.301,60.877z"/>
			<path style="fill:#428DFF;" d="M0,110.933c0,4.713,3.821,8.533,8.533,8.533H25.6c4.713,0,8.533-3.821,8.533-8.533
				c0-4.713-3.821-8.533-8.533-8.533H8.533C3.821,102.4,0,106.221,0,110.933z"/>
			<path style="fill:#428DFF;" d="M32.768,146.21l-14.78,8.533c-2.662,1.513-4.309,4.337-4.316,7.399
				c-0.007,3.062,1.628,5.893,4.283,7.418c2.655,1.525,5.924,1.511,8.566-0.038l14.78-8.533c2.662-1.513,4.309-4.337,4.316-7.399
				c0.007-3.062-1.628-5.893-4.283-7.418C38.679,144.647,35.41,144.661,32.768,146.21z"/>
			<path style="fill:#428DFF;" d="M60.877,180.565l-8.533,14.788c-1.549,2.642-1.563,5.911-0.038,8.566
				c1.525,2.655,4.356,4.29,7.418,4.283c3.062-0.007,5.886-1.654,7.399-4.316l8.533-14.788c2.318-4.078,0.911-9.262-3.151-11.608
				C68.443,175.146,63.249,176.519,60.877,180.565z"/>
			<path style="fill:#428DFF;" d="M102.4,196.267v17.067c0,4.713,3.821,8.533,8.533,8.533c4.713,0,8.533-3.821,8.533-8.533v-17.067
				c0-4.713-3.821-8.533-8.533-8.533C106.221,187.733,102.4,191.554,102.4,196.267z"/>
			<path style="fill:#428DFF;" d="M149.333,177.442c-4.081,2.356-5.48,7.575-3.123,11.657l8.533,14.788
				c1.513,2.662,4.337,4.309,7.399,4.316c3.062,0.007,5.893-1.628,7.418-4.283c1.525-2.655,1.511-5.924-0.038-8.566l-8.533-14.788
				C158.633,176.484,153.415,175.086,149.333,177.442z"/>
			<path style="fill:#428DFF;" d="M180.565,160.99l14.78,8.533c2.642,1.549,5.911,1.563,8.566,0.038
				c2.655-1.525,4.29-4.356,4.283-7.418c-0.007-3.062-1.654-5.886-4.316-7.399l-14.78-8.533c-4.078-2.318-9.262-0.911-11.608,3.151
				C175.146,153.424,176.519,158.618,180.565,160.99z"/>
			<path style="fill:#428DFF;" d="M187.733,110.933c0,4.713,3.821,8.533,8.533,8.533h17.067c4.713,0,8.533-3.821,8.533-8.533
				c0-4.713-3.821-8.533-8.533-8.533h-17.067C191.554,102.4,187.733,106.221,187.733,110.933z"/>
			<path style="fill:#428DFF;" d="M195.345,52.343l-14.78,8.533c-2.662,1.513-4.309,4.337-4.316,7.399s1.628,5.893,4.283,7.418
				c2.655,1.525,5.924,1.511,8.566-0.038l14.78-8.533c2.662-1.513,4.309-4.337,4.316-7.399s-1.628-5.893-4.283-7.418
				C201.256,50.78,197.987,50.795,195.345,52.343z"/>
			<path style="fill:#428DFF;" d="M153.6,45.568c3.052,0.003,5.873-1.624,7.398-4.267l8.533-14.788
				c1.549-2.642,1.563-5.911,0.038-8.566s-4.356-4.29-7.418-4.283c-3.062,0.007-5.886,1.654-7.399,4.316l-8.533,14.788
				c-1.524,2.639-1.524,5.89-0.002,8.53C147.739,43.937,150.553,45.565,153.6,45.568z"/>
		</g>
	</g>
</g>
<g>
</g>
<g>
</g>
<g>
</g>
<g>
</g>
<g>
</g>
<g>
</g>
<g>
</g>
<g>
</g>
<g>
</g>
<g>
</g>
<g>
</g>
<g>
</g>
<g>
</g>
<g>
</g>
<g>
</g>
</svg>
