<svg height="512" viewBox="0 0 60 60" width="512" xmlns="http://www.w3.org/2000/svg"><g id="015--Dollar-Down" fill="none"><g id="Layer_4" transform="translate(14 1)"><path id="Shape" d="m25.84 29.2c-1.7408705-1.2678807-3.7316292-2.1507686-5.84-2.59v-7.61c0-.5522847-.4477153-1-1-1v-7.58c3.43.97 5.99 3.57 6.39 6.72.0655392.4914559.4841946.8588474.98.86h4.03c.2835733-.0038517.5526859-.1258202.7425088-.3365236.1898228-.2107034.2831472-.4910398.2574912-.7734764-.55-6.29-5.71-11.42-12.4-12.62v-3.27c0-.55228475-.4477153-1-1-1h-4c-.5522847 0-1 .44771525-1 1v3.26c-7.09 1.27-12.44 6.95-12.44 13.74.15006117 5.4599724 3.45459098 10.3367873 8.47 12.5.94802971.4353749 1.9452865.7543627 2.97.95v4.55h-3.9c-.19534896.0021901-.37153027.1179544-.4510734.296389s-.04787729.3868536.0810734.533611l5.27 6v4.75c-3.43-.97-5.99-3.57-6.39-6.72-.0655392-.4914559-.48419464-.8588474-.98-.86h-4.03c-.28357329.0038517-.55268588.1258202-.74250876.3365236s-.28314721.4910398-.25749124.7734764c.55 6.29 5.71 11.42 12.4 12.62v3.27c0 .5522847.4477153 1 1 1h4c.5522847 0 1-.4477153 1-1v-3.26c7.09-1.27 12.44-6.95 12.44-13.74-.073631-4.2780047-2.1460256-8.2747659-5.6-10.8zm-13.84-10.2v6.23c-.1606738-.0529306-.3176813-.1164017-.47-.19-2.88235281-1.1834996-4.81970671-3.9277595-4.97-7.04 0-3.52 2.7-6.52 6.44-7.58v7.58c-.5522847 0-1 .4477153-1 1zm7 28.58v-5.25l2-2.33 2.82-3.17c.1289507-.1467574.1606165-.3551764.0810734-.533611s-.2557244-.2941989-.4510734-.296389h-3.45v-3.16c.8022914.2727203 1.5578092.6673434 2.24 1.17.7424353.5530302 1.3878811 1.2255104 1.91 1.99l.17.27c.7199117 1.111774 1.10839 2.4055455 1.12 3.73 0 3.52-2.7 6.52-6.44 7.58z" fill="#e8edfc"/><g fill="#cad9fc"><path id="Shape" d="m31.4 16.89c.025656.2824366-.0676684.562773-.2574912.7734764-.1898229.2107034-.4589355.3326719-.7425088.3365236h-3c.2835733-.0038517.5526859-.1258202.7425088-.3365236.1898228-.2107034.2831472-.4910398.2574912-.7734764-.55-6.29-5.71-11.42-12.4-12.62v-3.27c.0004298-.53703354-.4233961-.97851882-.96-1h2.96c.5522847 0 1 .44771525 1 1v3.27c6.69 1.2 11.85 6.33 12.4 12.62z"/><path id="Shape" d="m31.44 40c0 6.79-5.35 12.47-12.44 13.74v3.26c0 .5522847-.4477153 1-1 1h-3c.5522847 0 1-.4477153 1-1v-3.26c7.09-1.27 12.44-6.95 12.44-13.74-.073631-4.2780047-2.1460256-8.2747659-5.6-10.8-1.7408705-1.2678807-3.7316292-2.1507686-5.84-2.59v-7.61c0-.5522847-.4477153-1-1-1v-7.58c1.0731647.2952801 2.087832.7721737 3 1.41v6.17c.5522847 0 1 .4477153 1 1v7.61c2.1083708.4392314 4.0991295 1.3221193 5.84 2.59 3.4539744 2.5252341 5.526369 6.5219953 5.6 10.8z"/><path id="Shape" d="m23.82 36.83-2.82 3.17-2 2.33-2.84 3.24c-.0443364.0507687-.0988479.0916523-.16.12-.2039869.1013301-.4506775.051992-.6-.12l-1.12-1.28-1.28-1.46-5.27-6c-.12895069-.1467574-.16061653-.3551764-.0810734-.533611s.25572444-.2941989.4510734-.296389h3.9v-17c0-.5522847.4477153-1 1-1h6c.5522847 0 1 .4477153 1 1v17h3.45c.195349.0021901.3715303.1179544.4510734.296389s.0478773.3868536-.0810734.533611z"/></g><path id="Shape" d="m20.82 36.83-2.82 3.17-2 2.33-1.72 1.96-1.28-1.46-5.27-6c-.12895069-.1467574-.16061653-.3551764-.0810734-.533611s.25572444-.2941989.4510734-.296389h3.9v-17c0-.5522847.4477153-1 1-1h3c.5522847 0 1 .4477153 1 1v17h3.45c.195349.0021901.3715303.1179544.4510734.296389s.0478773.3868536-.0810734.533611z" fill="#e8edfc"/></g><g id="Layer_3" fill="#fff" transform="translate(14 1)"><path id="Shape" d="m12.03 30.5c-5.01540902-2.1632127-8.31993884-7.0400276-8.47-12.5 0-6.79 5.35-12.47 12.44-13.74v-3.26c.0004298-.53703354-.4233961-.97851882-.96-1h-1.04c-.5522847 0-1 .44771525-1 1v3.26c-7.09 1.27-12.44 6.95-12.44 13.74.15006117 5.4599724 3.45459098 10.3367873 8.47 12.5.94802971.4353749 1.9452865.7543627 2.97.95z"/><path id="Shape" d="m14 58h1c.5522847 0 1-.4477153 1-1v-3.27c-6.69-1.2-11.85-6.33-12.4-12.62-.02565597-.2824366.06766836-.562773.25749124-.7734764s.45893547-.3326719.74250876-.3365236h-3c-.28357329.0038517-.55268588.1258202-.74250876.3365236s-.28314721.4910398-.25749124.7734764c.55 6.29 5.71 11.42 12.4 12.62v3.27c0 .5522847.4477153 1 1 1z"/></g><path id="Shape" d="m16.157 10.932 1.637 1.148c-1.4365594 2.0230559-2.216453 4.4388409-2.234 6.92h-2c.0182095-2.8919563.9248055-5.7084432 2.597-8.068z" fill="#fff"/><g fill="#428dff"><path id="Shape" d="m59 51h-7c-.5522847 0-1 .4477153-1 1s.4477153 1 1 1h7c.5522847 0 1-.4477153 1-1s-.4477153-1-1-1z"/><path id="Shape" d="m46 53h2c.5522847 0 1-.4477153 1-1s-.4477153-1-1-1h-2c-.5522847 0-1 .4477153-1 1s.4477153 1 1 1z"/><path id="Shape" d="m59 56h-16c-.5522847 0-1 .4477153-1 1s.4477153 1 1 1h16c.5522847 0 1-.4477153 1-1s-.4477153-1-1-1z"/><path id="Shape" d="m1 53h7c.55228475 0 1-.4477153 1-1s-.44771525-1-1-1h-7c-.55228475 0-1 .4477153-1 1s.44771525 1 1 1z"/><path id="Shape" d="m12 51c-.5522847 0-1 .4477153-1 1s.4477153 1 1 1h2c.5522847 0 1-.4477153 1-1s-.4477153-1-1-1z"/><path id="Shape" d="m1 58h16c.5522847 0 1-.4477153 1-1s-.4477153-1-1-1h-16c-.55228475 0-1 .4477153-1 1s.44771525 1 1 1z"/><path id="Shape" d="m28 60h4c1.1045695 0 2-.8954305 2-2v-2.443c7.257-1.657 12.44-7.657 12.44-14.557-.0739639-4.5926901-2.2944853-8.8856982-6-11.6-1.6333324-1.1904773-3.4801194-2.0561587-5.44-2.55v-6.85c-.002145-.7113268-.3832487-1.3675874-1-1.722v-2.278c.5522847 0 1-.4477153 1-1s-.4477153-1-1-1v-1.147c2.3090798.9129976 3.976193 2.9624101 4.4 5.409.1253901.9927173.9693953 1.7373269 1.97 1.738h4.03c.5583321-.0016222 1.0905683-.2365603 1.468-.648.386824-.4200205.5798029-.9829966.532-1.552-.56-6.409-5.61-11.782-12.4-13.337v-2.463c0-1.1045695-.8954305-2-2-2h-4c-1.1045695 0-2 .8954305-2 2v2.466c-3.9655599.86907301-7.4706576 3.17161919-9.843 6.466-.1666256.2184723-.2319942.4977162-.1796527.7674468s.217408.5042583.4536527.6445532c.4556678.2696535 1.040967.1562867 1.363-.264 2.2440648-3.09711519 5.611945-5.1920788 9.382-5.836v-.019c.4724469-.07909133.8198972-.48599617.824-.965v-3.26h4v3.27c.0053098.03638275.0126547.0724393.022.108.0116702.12946033.0508796.25493035.115.368.0590719.1122389.1412001.21072463.241.289.0490314.03825412.1016033.07173939.157.1.0587805.03109308.1208259.05557586.185.073.0323209.01601635.0657383.02971747.1.041 6.317 1.138 11.08 5.959 11.58 11.751l-4.018.014c-.636729-3.6680875-3.3782946-6.6147509-6.991-7.514-.039-.012-.075-.029-.114-.04-.0446747-.0068105-.0898094-.0101538-.135-.01-.0464485-.0138064-.0939362-.023839-.142-.03-.023 0-.042.011-.064.013-.128863.0182677-.2550876.0518381-.376.1-.0515069.0289843-.1003622.0624468-.146.1-.0549724.0380548-.1062028.0812491-.153.129-.037646.0466324-.0711088.096492-.1.149-.0383323.0576558-.0701914.1193619-.095.184-.007.02-.023.034-.028.055-.0076473.0455957-.0113278.0917686-.011.138-.0119781.043338-.0209988.0874395-.027.132v2.58h-4v-2.58c-.0057653-.0459953-.0151273-.091468-.028-.136.0001616-.0458547-.0031815-.0916548-.01-.137-.006-.02-.021-.034-.028-.054-.0261896-.0649546-.0597421-.1266913-.1-.184-.0285462-.0533449-.0620257-.1038989-.1-.151-.0450306-.0455232-.0942479-.086705-.147-.123-.0478896-.0383585-.0994771-.0718568-.154-.1-.0573543-.0251987-.1169496-.0449522-.178-.059-.0651759-.0199302-.1321722-.0333295-.2-.04-.022 0-.04-.012-.062-.012-.0886779.0242009-.1800848.036971-.272.038-4.281 1.211-7.161 4.643-7.161 8.538.1462486 3.4566985 2.2610524 6.5235529 5.44 7.889v4.275c-.5312767-.1528588-1.0506622-.3443697-1.554-.573-4.6599656-2.0002484-7.7364218-6.522085-7.886-11.591 0-.5522847-.4477153-1-1-1s-1 .4477153-1 1c.1499943 5.8489644 3.6799623 11.0795435 9.048 13.407.7702687.3461849 1.571046.6200293 2.392.818v2.775h-4c-.3926889.0001043-.7489703.2300322-.9108325.5878104-.1618623.3577782-.0993422.7771759.1598325 1.0721896l5.751 6.55v2.948c-2.3109636-.916459-3.9780588-2.9700172-4.4-5.42-.1253901-.9927173-.9693953-1.7373269-1.97-1.738h-4.03c-.5583321.0016222-1.0905683.2365603-1.468.648-.386824.4200205-.5798029.9829966-.532 1.552.56 6.41 5.608 11.8 12.4 13.349v2.451c0 1.1045695.8954305 2 2 2zm10.44-19c-.1271181 2.7508483-1.8695737 5.1659545-4.44 6.154v-3.446l4.079-4.647c.231894.6205006.3540492 1.2766198.361 1.939zm-3.44-5.59c.2203155.1218221.4339542.2553464.64.4.077.057.141.129.215.19h-.855zm-3-19.41v2h-4v-2zm-10.44 3c.1271181-2.7508483 1.8695737-5.1659545 4.44-6.154v1.154c-.5522847 0-1 .4477153-1 1s.4477153 1 1 1v2.278c-.6167513.3544126-.997855 1.0106732-1 1.722v4.625c-2.0398025-1.1564851-3.339859-3.2823042-3.44-5.625zm4.44 19c.5522847 0 1-.4477153 1-1v-17h6v17c0 .5522847.4477153 1 1 1h2.348l-6.568 7.483-2.028-2.312-.008-.007-4.535-5.164zm-10.4 4 4.018-.014c.6454605 3.7140064 3.4420779 6.6860515 7.11 7.556.3014308.0852015.6253692.0242372.8752056-.1647115.2498365-.1889486.3967013-.4840476.3967944-.7972885v-2.092l1.028 1.171c.189833.2152504.4629994.3385622.75.3385622s.560167-.1233118.75-.3385622l1.472-1.672v2.593c.0057653.0459953.0151273.091468.028.136-.0001616.0458547.0031815.0916548.01.137.007.023.022.04.03.062.0166004.0436914.0363178.086134.059.127.0350994.0664046.0773502.1287748.126.186.0279352.0329336.0579997.0640003.09.093.061109.0524502.1282487.0974338.2.134.0324018.0193709.0657793.037061.1.053.199404.0838273.4217219.0958445.629.034 4.288-1.215 7.168-4.642 7.168-8.542-.0134187-1.2799245-.3388226-2.5372604-.948-3.663.0914942-.2419977.0843123-.5102448-.02-.747-.1529781-.332746-.4756102-.5552509-.841-.58-.515784-.6786874-1.1213126-1.284216-1.8-1.8-.5690631-.4109359-1.1834178-.7551893-1.831-1.026v-4.277c1.5274809.4375753 2.9637172 1.1465476 4.24 2.093 3.202679 2.3359572 5.1270144 6.0366023 5.2 10 0 6.185-4.885 11.55-11.616 12.756-.476686.0852271-.8238111.4997551-.824.984v3.26h-4v-3.27c-.000102-.4839293-.3467115-.8983445-.823-.984-6.314-1.133-11.077-5.954-11.577-11.746z"/><path id="Shape" d="m14.924 16.03c.5150324.1330028 1.0440501-.1604648 1.2038481-.6678234s-.1055564-1.0510221-.6038481-1.2371766c-.3463937-.1294076-.7359258-.0571002-1.0128005.1880024-.2768748.2451025-.395894.6229888-.3094554.9825208.0864387.359532.3642247.6420183.7222559.7344768z"/></g></g></svg>