<svg height="512" viewBox="0 0 60 60" width="512" xmlns="http://www.w3.org/2000/svg"><g id="026---Cake" fill="none"><g id="Layer_11" transform="translate(1 9)"><path id="Shape" d="m52 12v10h-4c-1.1045695 0-2 .8954305-2 2v2c-.0182744.8180878-.5330629 1.5425215-1.2996149 1.8288771s-1.630221.0768629-2.1803851-.5288771c-.66-.76-.52-1.46-.52-3.3 0-1.1045695-.8954305-2-2-2h-16c-1.1045695 0-2 .8954305-2 2v11c-.0182744.8180878-.5330629 1.5425215-1.2996149 1.8288771s-1.630221.0768629-2.1803851-.5288771c-.3357444-.3930604-.5201436-.893066-.52-1.41v-10.89c0-1.1045695-.8954305-2-2-2s-2 .8954305-2 2v2c.0086721.5949634-.2480232 1.1628937-.7003464 1.5494947-.4523232.3866011-1.0532991.551723-1.6396536.4505053-.9962504-.2005094-1.69961462-1.0945447-1.66-2.11v-1.89c0-1.1045695-.8954305-2-2-2h-6v-8c0-1.1045695.8954305-2 2-2z" fill="#e8edfc"/><path id="Rectangle-path" d="m49 12h3v10h-3z" fill="#cad9fc"/><g fill="#e8edfc"><path id="Shape" d="m58 44c0 1.1045695-.8954305 2-2 2h-6c-3.5 4-14.1 4-21 4s-17.5 0-21-4h-6c-1.1045695 0-2-.8954305-2-2s.8954305-2 2-2v-20h6c1.1045695 0 2 .8954305 2 2v1.89c-.03961462 1.0154553.6637496 1.9094906 1.66 2.11.5863545.1012177 1.1873304-.0639042 1.6396536-.4505053.4523232-.386601.7090185-.9545313.7003464-1.5494947v-2c0-1.1045695.8954305-2 2-2s2 .8954305 2 2v10.89c-.0001436.516934.1842556 1.0169396.52 1.41.5501641.60574 1.4138331.8152327 2.1803851.5288771s1.2813405-1.0107893 1.2996149-1.8288771v-11c0-1.1045695.8954305-2 2-2h16c1.1045695 0 2 .8954305 2 2v1.89c-.0001436.516934.1842556 1.0169396.52 1.41.5501641.60574 1.4138331.8152327 2.1803851.5288771s1.2813405-1.0107893 1.2996149-1.8288771v-2c0-1.1045695.8954305-2 2-2h4v-10h2c1.1045695 0 2 .8954305 2 2v28c1.1045695 0 2 .8954305 2 2z"/><path id="Shape" d="m56 14v28h-4v-30h2c1.1045695 0 2 .8954305 2 2z"/><path id="Shape" d="m58 44c0 1.1045695-.8954305 2-2 2h-54c-1.1045695 0-2-.8954305-2-2s.8954305-2 2-2h54c1.1045695 0 2 .8954305 2 2z"/></g><path id="Shape" d="m56 42h-3c1.1045695 0 2 .8954305 2 2s-.8954305 2-2 2h3c.5295768-.0022328 1.0366497-.2144122 1.41-.59.5684616-.5718399.7379389-1.4291108.4298346-2.1742425s-1.0335232-1.2323721-1.8398346-1.2357575z" fill="#cad9fc"/><path id="Shape" d="m50 46c-3.5 4-14.1 4-21 4s-17.5 0-21-4z" fill="#cad9fc"/><path id="Shape" d="m18 24v8h-16v-10h6c1.1045695 0 2 .8954305 2 2v1.89c-.03961462 1.0154553.6637496 1.9094906 1.66 2.11.5863545.1012177 1.1873304-.0639042 1.6396536-.4505053.4523232-.386601.7090185-.9545313.7003464-1.5494947v-2c0-1.1045695.8954305-2 2-2s2 .8954305 2 2z" fill="#e8edfc"/><path id="Shape" d="m52 22v10h-30v-8c0-1.1045695.8954305-2 2-2h16c1.1045695 0 2 .8954305 2 2v1.89c-.0001436.516934.1842556 1.0169396.52 1.41.5501641.60574 1.4138331.8152327 2.1803851.5288771s1.2813405-1.0107893 1.2996149-1.8288771v-2c0-1.1045695.8954305-2 2-2z" fill="#e8edfc"/><path id="Shape" d="m39 24v1.89c-.0387306.850942.4657673 1.6330366 1.2569756 1.9486183.7912083.3155816 1.6954789.095389 2.2530244-.5486183-.64-.75-.51-1.38-.51-3.29 0-1.1045695-.8954305-2-2-2h-3c1.1045695 0 2 .8954305 2 2z" fill="#cad9fc"/><path id="Rectangle-path" d="m49 22h3v10h-3z" fill="#cad9fc"/><path id="Shape" d="m52 32v10h-50v-10h16v2.89c-.0001436.516934.1842556 1.0169396.52 1.41.5501641.60574 1.4138331.8152327 2.1803851.5288771s1.2813405-1.0107893 1.2996149-1.8288771v-3z" fill="#e8edfc"/><path id="Rectangle-path" d="m49 32h3v10h-3z" fill="#cad9fc"/><path id="Shape" d="m36 6c0 3.14-4.64 6.63-10.5 5.91-4.28-.53-7.5-3.22-7.5-5.91 0-3.09 2.08-5 4-5 3 0 3 1 5 1s2-1 5-1c2 0 4 2 4 5z" fill="#e8edfc"/><path id="Shape" d="m32 1c-.6721999-.01192088-1.3434715.05520628-2 .2 1.9185178.79979682 3.1217803 2.72501685 3 4.8 0 2.7-3.24 5.39-7.53 5.9 5.86.76 10.53-2.74 10.53-5.9 0-3-2-5-4-5z" fill="#cad9fc"/></g><g id="Layer_11_copy" fill="#fff" transform="translate(1 21)"><path id="Shape" d="m2 2v28c-.58786103.0049407-1.14377641.2682691-1.52.72-.49471385.5938917-.60292405 1.4196875-.27792942 2.1209917.32499464.7013042 1.02500801 1.1525574 1.79792942 1.1590083h3c-.77292141-.0064509-1.47293478-.4577041-1.79792942-1.1590083-.32499463-.7013042-.21678443-1.5271.27792942-2.1209917.37622359-.4517309.93213897-.7150593 1.52-.72v-28c0-1.1045695.8954305-2 2-2h-3c-1.1045695 0-2 .8954305-2 2z"/><path id="Shape" d="m45.12 14.58c-.0043353.023132-.0043353.046868 0 .07 0 0 .01-.04 0-.07z"/></g><path id="Rectangle-path" d="m5 20h8v2h-8z" fill="#fff"/><g fill="#428dff"><circle id="Oval" cx="49" cy="47" r="1"/><circle id="Oval" cx="37" cy="47" r="1"/><circle id="Oval" cx="26" cy="47" r="1"/><circle id="Oval" cx="43" cy="45" r="1"/><circle id="Oval" cx="31" cy="45" r="1"/><circle id="Oval" cx="13" cy="47" r="1"/><circle id="Oval" cx="7" cy="45" r="1"/><path id="Shape" d="m3 56h5.6c4.07 4 14.45 4 21.4 4s17.33 0 21.4-4h5.6c1.4520049-.0112653 2.687509-1.0608126 2.9333986-2.4918903.2458897-1.4310777-.5684292-2.8328283-1.9333986-3.3281097v-27.18c0-1.6568542-1.3431458-3-3-3h-20.16c1.8188826-1.0378754 3.0031517-2.9117189 3.16-5 0-3.71-2.6-6-5-6-1.3636369-.02636016-2.7150899.26103743-3.95.84.21-2.49 1.2-7.84 5.95-7.84.5522847 0 1-.44771525 1-1s-.4477153-1-1-1c-5.47 0-7.67 5.09-8 9.87-1.2525975-.58221242-2.6187381-.87934799-4-.87-2.4 0-5 2.29-5 6 .1568483 2.0882811 1.3411174 3.9621246 3.16 5h-8.16c-.5522847 0-1 .4477153-1 1s.4477153 1 1 1h39v8h-3c-1.6568542 0-3 1.3431458-3 3v2c.004336.2974817-.1240116.5814469-.3501732.7747474s-.5266495.2758615-.8198268.2252526c-.5027473-.1230923-.8495982-.5827743-.83-1.1v-1.9c0-1.6568542-1.3431458-3-3-3h-16c-1.6568542 0-3 1.3431458-3 3v11c.004336.2974817-.1240116.5814469-.3501732.7747474s-.5266495.2758615-.8198268.2252526c-.5027473-.1230923-.8495982-.5827743-.83-1.1v-10.9c0-1.6568542-1.3431458-3-3-3s-3 1.3431458-3 3v2c-.0196496.3572656-.2284055.6769097-.5476314.8385254-.3192259.1616158-.7004237.1406499-1-.055-.2995763-.1956498-.4720182-.5362598-.4523686-.8935254v-1.89c0-1.6568542-1.3431458-3-3-3h-5v-7c0-.5522847.44771525-1 1-1s1-.4477153 1-1c0-1.91-4-1-4 2v27.18c-1.36496936.4952814-2.17928827 1.897032-1.93339863 3.3281097.24588963 1.4310777 1.48139376 2.480625 2.93339863 2.4918903zm17-41c0-2.47 1.56-4 3-4 2.69 0 2.79 1 5 1s2.26-1 5-1c1.44 0 3 1.53 3 4 0 2.31-3.49 5-8 5s-8-2.69-8-5zm10 43c-5.21 0-13.3 0-17.82-2h35.64c-4.52 2-12.61 2-17.82 2zm26-35v27h-2v-28h1c.5522847 0 1 .4477153 1 1zm-31 9h16c.5522847 0 1 .4477153 1 1v1.89c-.0374234 1.5078959 1.0193003 2.8224603 2.5 3.11.8779916.1484975 1.7765799-.100716 2.4526683-.6802203.6760884-.5795044 1.0598011-1.429406 1.0473317-2.3197797v-2c0-.5522847.4477153-1 1-1h3v8h-28v-7c0-.5522847.4477153-1 1-1zm-4.5 15c.8779916.1484975 1.7765799-.100716 2.4526683-.6802203.6760884-.5795044 1.0598011-1.429406 1.0473317-2.3197797v-2h28v8h-48v-8h14v1.89c-.0374234 1.5078959 1.0193003 2.8224603 2.5 3.11zm-11.5-15c.55228475 0 1 .4477153 1 1v1.89c-.01964963 1.0717968.5339901 2.0726608 1.4523686 2.6255763.9183784.5529154 2.061972.5738813 3 .055.9380281-.5188814 1.5279818-1.4987795 1.5476314-2.5705763v-2c0-.5522847.4477153-1 1-1s1 .4477153 1 1v7h-14v-8zm-6 20h54c.5522847 0 1 .4477153 1 1s-.4477153 1-1 1h-54c-.55228475 0-1-.4477153-1-1s.44771525-1 1-1z"/><path id="Shape" d="m9 22c-.55228475 0-1-.4477153-1-1s.44771525-1 1-1 1 .4477153 1 1-.44771525 1-1 1z"/><path id="Shape" d="m25.35 13.52c-.6396778-.3237674-1.3432949-.5013795-2.06-.52-.5522847 0-1 .4477153-1 1s.4477153 1 1 1c.321358-.0068021.6398488.0616905.93.2.2573216.1393556.5391609.2276426.83.26.4781578-.018693.8760604-.3735119.9491896-.846414s-.1990127-.931336-.6491896-1.093586z"/></g></g></svg>