<svg id="Capa_1" enable-background="new 0 0 512 512" height="512" viewBox="0 0 512 512" width="512" xmlns="http://www.w3.org/2000/svg"><g><path d="m394.16 430.729c-40.334 0-73.144-32.81-73.144-73.144v-97.525c0-40.334 32.81-73.144 73.144-73.144s73.144 32.81 73.144 73.144v97.525c0 40.335-32.81 73.144-73.144 73.144zm0-216.729c-23.765 0-43.102 19.337-43.102 43.102v103.444c0 23.765 19.337 43.102 43.102 43.102s43.102-19.337 43.102-43.102v-103.444c0-23.765-19.337-43.102-43.102-43.102z" fill="#dbeaff"/><path d="m337.271 130.028h-260.066c-8.977 0-16.254 7.277-16.254 16.254v341.964c0 8.977 7.277 16.254 16.254 16.254h260.066l16.254-8.754v-349.464c0-8.977-7.278-16.254-16.254-16.254z" fill="#c3ddff"/><g fill="#edf4ff"><path d="m199.111 265.831c-2.079 0-4.159-.794-5.746-2.381l-36.357-36.357c-3.175-3.175-3.175-8.318 0-11.492 3.175-3.175 8.318-3.175 11.492 0l30.611 30.611 30.611-30.611c3.175-3.175 8.318-3.175 11.492 0s3.175 8.318 0 11.492l-36.357 36.357c-1.588 1.587-3.667 2.381-5.746 2.381z"/><path d="m235.468 429.436c-2.079 0-4.159-.794-5.746-2.381l-30.611-30.611-30.611 30.611c-3.175 3.175-8.318 3.175-11.492 0-3.175-3.175-3.175-8.318 0-11.492l36.357-36.357c3.175-3.175 8.318-3.175 11.492 0l36.357 36.357c3.175 3.175 3.175 8.318 0 11.492-1.587 1.587-3.667 2.381-5.746 2.381z"/><path d="m94.34 310.95c-3.587 0-6.873-2.397-7.841-6.024-1.159-4.333 1.413-8.794 5.746-9.952l41.818-11.199-11.206-41.818c-1.159-4.333 1.413-8.794 5.746-9.952 4.341-1.151 8.786 1.405 9.952 5.746l13.31 49.667c.556 2.079.27 4.302-.81 6.167-1.079 1.865-2.857 3.23-4.937 3.786l-49.667 13.302c-.706.19-1.413.277-2.111.277z"/><path d="m267.508 410.936c-3.587 0-6.865-2.389-7.841-6.024l-13.31-49.667c-1.159-4.333 1.413-8.794 5.746-9.952l49.667-13.31c4.333-1.167 8.794 1.405 9.952 5.746 1.159 4.333-1.413 8.794-5.746 9.952l-41.818 11.206 11.206 41.818c1.159 4.333-1.413 8.794-5.746 9.952-.705.191-1.412.279-2.11.279z"/><path d="m130.713 410.936c-.698 0-1.405-.087-2.111-.278-4.333-1.159-6.905-5.619-5.746-9.952l11.206-41.818-41.818-11.206c-4.333-1.159-6.905-5.619-5.746-9.952 1.159-4.341 5.643-6.905 9.952-5.746l49.667 13.31c4.333 1.159 6.905 5.619 5.746 9.952l-13.31 49.667c-.967 3.634-4.253 6.023-7.84 6.023z"/><path d="m303.881 310.95c-.698 0-1.405-.087-2.111-.278l-49.667-13.302c-2.079-.556-3.857-1.921-4.937-3.786-1.079-1.865-1.365-4.087-.81-6.167l13.31-49.667c1.159-4.341 5.635-6.889 9.952-5.746 4.333 1.159 6.905 5.619 5.746 9.952l-11.206 41.818 41.818 11.199c4.333 1.159 6.905 5.619 5.746 9.952-.968 3.629-4.253 6.025-7.841 6.025z"/></g><path d="m199.079 97.52c-1.222 0-2.46-.278-3.627-.857-4.016-2.008-5.643-6.889-3.635-10.905 5.968-11.937 2.302-20.635-2.349-31.651-5.611-13.318-12.603-29.897 3.119-50.858 2.698-3.595 7.794-4.31 11.373-1.627 3.595 2.691 4.325 7.786 1.627 11.373-10.119 13.5-6.349 22.429-1.135 34.794 4.992 11.857 11.214 26.611 1.905 45.239-1.429 2.849-4.294 4.492-7.278 4.492z" fill="#faf5dc"/><path d="m231.619 58.607c-3.413 0-6.595-2.167-7.722-5.587-1.413-4.302-3.032-8.111-4.405-11.389-1.746-4.143-3.175-7.635-3.722-10-1.016-4.365 1.698-8.706 6.064-9.73 4.373-1.016 8.738 1.698 9.762 6.056.294 1.246 2.119 5.579 2.81 7.214 1.524 3.611 3.341 7.921 4.937 12.77 1.405 4.262-.921 8.857-5.183 10.262-.843.277-1.7.404-2.541.404z" fill="#faf5dc"/><path d="m170.547 81.647c-.024 0-.056 0-.087 0-4.206-.048-7.635-3.286-8.008-7.389-.397-1.5-2.127-5.595-2.881-7.389-2.635-6.254-6.167-14.635-7.984-24.81-.794-4.413 2.151-8.635 6.572-9.429 4.437-.778 8.635 2.151 9.429 6.571 1.5 8.389 4.5 15.508 6.913 21.222 3.119 7.421 4.206 10.484 4.175 13.183-.05 4.461-3.677 8.041-8.129 8.041zm-8.127-8.215v.008s0 0 0-.008z" fill="#faf5dc"/><path d="m199.111 447.618c-4.492 0-8.127-3.635-8.127-8.127v-236.32c0-4.492 3.635-8.127 8.127-8.127s8.127 3.635 8.127 8.127v236.32c0 4.492-3.635 8.127-8.127 8.127z" fill="#fff"/><path d="m301.429 388.539c-1.381 0-2.778-.349-4.056-1.087l-204.652-118.161c-3.889-2.246-5.222-7.214-2.976-11.103 2.246-3.897 7.214-5.222 11.103-2.976l204.652 118.16c3.889 2.246 5.222 7.214 2.976 11.103-1.507 2.611-4.237 4.064-7.047 4.064z" fill="#fff"/><path d="m96.792 388.539c-2.81 0-5.54-1.452-7.048-4.064-2.246-3.889-.913-8.857 2.976-11.103l204.653-118.16c3.873-2.246 8.849-.921 11.103 2.976 2.246 3.889.913 8.857-2.976 11.103l-204.653 118.16c-1.277.738-2.674 1.088-4.055 1.088z" fill="#fff"/><path d="m77.205 446.984v-316.956h-16.254c-8.977 0-16.254 7.277-16.254 16.254v349.464c0 8.977 7.277 16.254 16.254 16.254h276.32c8.977 0 16.254-7.277 16.254-16.254h-227.558c-26.931 0-48.762-21.832-48.762-48.762z" fill="#a4ccff"/><path d="m394.16 219.426c22.405 0 40.635 18.23 40.635 40.635v97.525c0 22.405-18.23 40.635-40.635 40.635s-40.635-18.23-40.635-40.635v-97.525c0-22.405 18.23-40.635 40.635-40.635m0-16.254c-31.369 0-56.889 25.521-56.889 56.889v97.525c0 31.369 25.521 56.889 56.889 56.889s56.889-25.521 56.889-56.889v-97.525c0-31.369-25.52-56.889-56.889-56.889z" fill="#c3ddff"/></g></svg>