<?xml version="1.0" encoding="iso-8859-1"?>
<!-- Generator: Adobe Illustrator 19.0.0, SVG Export Plug-In . SVG Version: 6.00 Build 0)  -->
<svg version="1.1" id="Capa_1" xmlns="http://www.w3.org/2000/svg" xmlns:xlink="http://www.w3.org/1999/xlink" x="0px" y="0px"
	 viewBox="0 0 512 512" style="enable-background:new 0 0 512 512;" xml:space="preserve">
<g transform="translate(-1)">
	<g transform="translate(2 1)">
		<path style="fill:#B2CDF8;" d="M343.844,92.867v324.267c-4.437,9.984-10.411,30.293-11.775,68.693
			c-0.261,9.212-7.766,16.566-16.982,16.64H160.804c-9.216-0.074-16.72-7.428-16.981-16.64c-1.365-38.4-7.339-58.709-11.775-68.693
			V92.867c4.437-9.984,10.411-30.293,11.775-68.693c0.261-9.212,7.766-16.566,16.981-16.64h154.283
			c9.216,0.074,16.72,7.428,16.981,16.64C333.434,62.573,339.407,82.883,343.844,92.867z"/>
		<g>
			<path style="fill:#E7EBF4;" d="M314.746,92.867v324.267c-4.437,9.984-10.411,30.293-11.776,68.693
				c-0.261,9.212-7.766,16.566-16.981,16.64H160.804c-9.216-0.074-16.72-7.428-16.981-16.64c-1.365-38.4-7.339-58.709-11.775-68.693
				V92.867c4.437-9.984,10.411-30.293,11.775-68.693c0.261-9.212,7.766-16.566,16.981-16.64h125.184
				c9.216,0.074,16.72,7.428,16.981,16.64C304.335,62.573,310.308,82.883,314.746,92.867z"/>
			<path style="fill:#E7EBF4;" d="M383.012,152.6h34.133c9.426,0,17.067,7.641,17.067,17.067v8.533
				c0,9.426-7.641,17.067-17.067,17.067h-34.133V152.6z"/>
			<path style="fill:#E7EBF4;" d="M383.012,255h34.133c9.426,0,17.067,7.641,17.067,17.067V331.8
				c0,9.426-7.641,17.067-17.067,17.067h-34.133V255z"/>
		</g>
		<path style="fill:#B2CDF8;" d="M127.012,92.867h221.867c28.277,0,51.2,22.923,51.2,51.2v221.867c0,28.277-22.923,51.2-51.2,51.2
			H127.012c-28.277,0-51.2-22.923-51.2-51.2V144.067C75.812,115.79,98.735,92.867,127.012,92.867z"/>
		
			<linearGradient id="SVGID_1_" gradientUnits="userSpaceOnUse" x1="-49.7948" y1="651.5053" x2="-48.8524" y2="650.6374" gradientTransform="matrix(298.6667 0 0 -324.2667 14956.4629 211375.75)">
			<stop  offset="0" style="stop-color:#D3DFF2"/>
			<stop  offset="0.1717" style="stop-color:#D3DFF2"/>
			<stop  offset="0.2" style="stop-color:#D3DFF2"/>
			<stop  offset="0.2002" style="stop-color:#DAE2F2"/>
			<stop  offset="0.2007" style="stop-color:#EBEAF2"/>
			<stop  offset="0.2014" style="stop-color:#F6EFF2"/>
			<stop  offset="0.2023" style="stop-color:#FDF2F2"/>
			<stop  offset="0.205" style="stop-color:#FFF3F2"/>
			<stop  offset="0.2522" style="stop-color:#FFF3F2"/>
			<stop  offset="0.26" style="stop-color:#FFF3F2"/>
			<stop  offset="0.26" style="stop-color:#D3DFF2"/>
			<stop  offset="0.3974" style="stop-color:#D3DFF2"/>
			<stop  offset="0.42" style="stop-color:#D3DFF2"/>
			<stop  offset="0.4202" style="stop-color:#DAE2F2"/>
			<stop  offset="0.4207" style="stop-color:#EBEAF2"/>
			<stop  offset="0.4214" style="stop-color:#F6EFF2"/>
			<stop  offset="0.4223" style="stop-color:#FDF2F2"/>
			<stop  offset="0.425" style="stop-color:#FFF3F2"/>
			<stop  offset="0.4894" style="stop-color:#FFF3F2"/>
			<stop  offset="0.5" style="stop-color:#FFF3F2"/>
			<stop  offset="0.5" style="stop-color:#F8F0F2"/>
			<stop  offset="0.5001" style="stop-color:#E7E8F2"/>
			<stop  offset="0.5003" style="stop-color:#DCE3F2"/>
			<stop  offset="0.5005" style="stop-color:#D5E0F2"/>
			<stop  offset="0.501" style="stop-color:#D3DFF2"/>
			<stop  offset="0.7062" style="stop-color:#D3DFF2"/>
			<stop  offset="0.74" style="stop-color:#D3DFF2"/>
			<stop  offset="0.741" style="stop-color:#FFF3F2"/>
			<stop  offset="0.8346" style="stop-color:#FFF3F2"/>
			<stop  offset="0.85" style="stop-color:#FFF3F2"/>
			<stop  offset="0.851" style="stop-color:#D3DFF2"/>
		</linearGradient>
		<path style="fill:url(#SVGID_1_);" d="M127.012,92.867h196.267c28.277,0,51.2,22.923,51.2,51.2v221.867
			c0,28.277-22.923,51.2-51.2,51.2H127.012c-28.277,0-51.2-22.923-51.2-51.2V144.067C75.812,115.79,98.735,92.867,127.012,92.867z"
			/>
		<path style="fill:#E7EBF4;" d="M288.496,169.938c3.158,19.327-5.003,38.76-21.014,50.037c-2.407,1.607-3.877,4.289-3.936,7.183
			v19.309c0,4.713-3.821,8.533-8.533,8.533h-34.133c-4.713,0-8.533-3.821-8.533-8.533v-19.335c-0.058-2.878-1.52-5.545-3.916-7.142
			c-18.965-13.402-26.533-37.892-18.435-59.657s29.833-35.352,52.946-33.098C266.054,129.488,284.755,147.018,288.496,169.938z"/>
		<g>
			<path style="fill:#FFFFFF;" d="M255.012,255v17.067c0,9.426-7.641,17.067-17.067,17.067c-9.426,0-17.067-7.641-17.067-17.067V255
				H255.012z"/>
			<path style="fill:#FFFFFF;" d="M127.012,417.133h5.035c4.437,9.984,10.411,30.293,11.775,68.693
				c0.261,9.212,7.766,16.566,16.982,16.64h25.6c-9.216-0.074-16.72-7.428-16.981-16.64c-1.365-38.4-7.339-58.709-11.775-68.693
				h-5.035c-28.268-0.022-51.178-22.932-51.2-51.2V144.067c0.022-28.268,22.932-51.178,51.2-51.2h5.035
				c4.437-9.984,10.411-30.293,11.775-68.693c0.261-9.212,7.766-16.566,16.982-16.64h-25.6c-9.216,0.074-16.72,7.428-16.981,16.64
				c-1.365,38.4-7.339,58.709-11.776,68.693h-5.035c-28.268,0.022-51.178,22.932-51.2,51.2v221.867
				C75.835,394.201,98.745,417.111,127.012,417.133z"/>
		</g>
	</g>
	<g>
		<path style="fill:#FFFFFF;" d="M129.012,426.667c-22.087-0.103-42.344-12.298-52.77-31.77c-2.501-4.79-4.368-9.885-5.555-15.157
			c-1.042-5.133-1.515-10.366-1.409-15.603V147.659c-0.181-6.537,0.636-13.063,2.424-19.354
			c3.794-12.92,11.835-24.183,22.824-31.966c5.468-3.849,11.535-6.77,17.954-8.643c6.285-1.763,12.802-2.56,19.327-2.363H350.58
			l4.941,0.227c6.666,0.536,13.199,2.163,19.339,4.816c12.307,5.452,22.44,14.859,28.789,26.727
			c3.138,5.912,5.242,12.317,6.219,18.939c0.49,3.252,0.739,6.537,0.744,9.826v214.482c0.234,6.303-0.19,12.614-1.267,18.829
			c-1.399,6.544-3.878,12.808-7.335,18.537c-6.919,11.554-17.564,20.408-30.184,25.108c-6.25,2.385-12.868,3.664-19.557,3.78
			l-17.354,0.062H129.012V409.6h205.903l16.96-0.058c4.776-0.071,9.501-0.985,13.959-2.698c9.021-3.35,16.627-9.68,21.56-17.942
			c2.465-4.083,4.237-8.546,5.243-13.208c0.829-5.07,1.133-10.212,0.908-15.345V145.868c-0.002-2.431-0.185-4.858-0.55-7.261
			c-0.688-4.721-2.183-9.288-4.42-13.502c-4.548-8.474-11.787-15.195-20.576-19.102c-4.382-1.881-9.04-3.039-13.792-3.427
			l-3.627-0.176H131.809c-9.76-0.523-19.414,2.246-27.412,7.864c-7.85,5.558-13.596,13.6-16.311,22.827
			c-1.343,4.734-1.93,9.651-1.74,14.569v216.478c-0.384,7.892,1.331,15.745,4.97,22.758c7.458,13.902,21.92,22.613,37.696,22.705
			V426.667z"/>
		<g>
			<path style="fill:#51A1FF;" d="M146.079,358.4v-17.067c0-4.713-3.82-8.533-8.533-8.533s-8.533,3.82-8.533,8.533V358.4
				c0,4.713,3.821,8.533,8.533,8.533S146.079,363.113,146.079,358.4z"/>
			<path style="fill:#51A1FF;" d="M274.079,332.8c-2.264-0.001-4.435,0.897-6.035,2.498c-1.601,1.601-2.499,3.772-2.498,6.035V358.4
				c0,4.713,3.82,8.533,8.533,8.533s8.533-3.82,8.533-8.533v-17.067c0.001-2.264-0.897-4.435-2.498-6.035
				C278.514,333.697,276.343,332.799,274.079,332.8z"/>
			<path style="fill:#51A1FF;" d="M316.746,366.933V332.8c0-4.713-3.82-8.533-8.533-8.533s-8.533,3.82-8.533,8.533v34.133
				c0,4.713,3.82,8.533,8.533,8.533S316.746,371.646,316.746,366.933z"/>
			<path style="fill:#51A1FF;" d="M180.212,366.933V332.8c0-4.713-3.821-8.533-8.533-8.533s-8.533,3.82-8.533,8.533v34.133
				c0,4.713,3.82,8.533,8.533,8.533S180.212,371.646,180.212,366.933z"/>
			<path style="fill:#51A1FF;" d="M231.412,332.8v34.133c0,4.713,3.821,8.533,8.533,8.533c4.713,0,8.533-3.82,8.533-8.533V332.8
				c0-4.713-3.821-8.533-8.533-8.533C235.233,324.267,231.412,328.087,231.412,332.8z"/>
			<path style="fill:#51A1FF;" d="M197.279,315.733V384c0,4.713,3.821,8.533,8.533,8.533c4.713,0,8.533-3.82,8.533-8.533v-68.267
				c0-4.713-3.821-8.533-8.533-8.533C201.1,307.2,197.279,311.021,197.279,315.733z"/>
			<path style="fill:#51A1FF;" d="M75.378,386.845l1.586,0.607c0.557,0.157,1.135,0.226,1.714,0.205
				c0.537,0.061,1.08,0.029,1.606-0.094c0.559-0.13,1.109-0.301,1.643-0.511c2.022-0.943,3.702-2.489,4.809-4.426
				c0.463-0.89,0.756-1.859,0.863-2.857c0.453-2.944-0.872-5.879-3.381-7.485c-0.921-0.577-1.915-1.028-2.956-1.339
				c-1.056-0.333-2.164-0.473-3.269-0.414c-2.307,0.159-4.428,1.318-5.808,3.174c-1.37,2.149-1.801,4.766-1.193,7.241
				C71.553,383.446,73.147,385.589,75.378,386.845z"/>
			<path style="fill:#51A1FF;" d="M342.346,366.933c2.264,0.001,4.435-0.897,6.035-2.498c1.601-1.601,2.499-3.772,2.498-6.035
				v-17.067c0-4.713-3.82-8.533-8.533-8.533s-8.533,3.82-8.533,8.533V358.4c-0.001,2.264,0.897,4.435,2.498,6.035
				C337.911,366.036,340.082,366.935,342.346,366.933z"/>
			<path style="fill:#51A1FF;" d="M419.146,204.8c14.132-0.015,25.585-11.468,25.6-25.6v-8.533
				c-0.015-14.132-11.468-25.585-25.6-25.6h-8.564c-0.045-9.741-2.422-19.33-6.933-27.964c-6.35-11.868-16.482-21.275-28.789-26.726
				c-6.139-2.653-12.672-4.28-19.338-4.816l-3.822-0.176c-6.016-19.613-9.084-40.011-9.104-60.527
				C342.207,11.04,330.91,0.031,317.087,0H162.804c-13.829,0.033-25.128,11.051-25.509,24.875
				c-0.02,20.51-3.088,40.903-9.104,60.511c-5.318,0.049-10.603,0.827-15.71,2.31c-6.419,1.874-12.486,4.794-17.954,8.643
				c-10.989,7.783-19.031,19.045-22.824,31.966c-1.788,6.29-2.605,12.817-2.424,19.354v197.278c0,4.713,3.821,8.533,8.533,8.533
				s8.533-3.82,8.533-8.533V147.659c-0.191-4.918,0.396-9.834,1.74-14.569c2.714-9.227,8.461-17.269,16.311-22.827
				c7.999-5.617,17.652-8.386,27.412-7.864H350.58l3.627,0.176c4.753,0.388,9.411,1.546,13.792,3.427
				c8.788,3.907,16.027,10.627,20.575,19.102c2.237,4.214,3.732,8.781,4.42,13.502c0.365,2.403,0.549,4.831,0.551,7.261v214.482
				c0.225,5.133-0.079,10.275-0.908,15.345c-1.006,4.662-2.778,9.125-5.243,13.208c-4.933,8.262-12.54,14.592-21.56,17.942
				c-4.458,1.714-9.184,2.627-13.959,2.698l-16.96,0.058H129.012c-9.563-0.033-18.841-3.26-26.36-9.168
				c-3.581-2.384-8.325-2.02-11.501,0.881c-1.775,1.671-2.701,4.054-2.519,6.485c0.182,2.431,1.452,4.65,3.456,6.038
				c10.312,8.088,22.993,12.57,36.097,12.758c6.022,19.619,9.093,40.026,9.111,60.548c0.388,13.818,11.685,24.827,25.509,24.858
				h154.283c13.829-0.033,25.127-11.051,25.508-24.875c0.02-20.513,3.089-40.908,9.107-60.518l0.567-0.002
				c6.689-0.116,13.307-1.395,19.557-3.78c12.62-4.699,23.265-13.554,30.184-25.108c3.458-5.729,5.937-11.994,7.336-18.538
				c1.077-6.215,1.501-12.526,1.267-18.829V358.4h8.533c14.132-0.015,25.585-11.468,25.6-25.6v-59.733
				c-0.015-14.132-11.468-25.585-25.6-25.6h-8.533V204.8H419.146z M146.138,85.333c5.203-19.531,7.96-39.632,8.208-59.842
				c0.082-4.632,3.827-8.362,8.459-8.425h154.283c4.626,0.061,8.37,3.782,8.458,8.408c0.247,20.216,3.005,40.322,8.208,59.858
				H146.138z M317.087,494.933H162.804c-4.626-0.061-8.37-3.782-8.458-8.408c-0.248-20.216-3.005-40.322-8.208-59.858h187.616
				c-5.203,19.531-7.96,39.632-8.208,59.842C325.464,491.14,321.719,494.87,317.087,494.933z M427.679,170.667v8.533
				c-0.003,4.712-3.822,8.53-8.533,8.533h-8.533v-25.6h8.533C423.857,162.137,427.676,165.955,427.679,170.667z M427.679,273.067
				V332.8c-0.003,4.712-3.822,8.53-8.533,8.533h-8.533v-76.8h8.533C423.857,264.536,427.676,268.355,427.679,273.067z"/>
			<path style="fill:#51A1FF;" d="M298.929,169.617c-4.317-26.822-26.19-47.354-53.231-49.967
				c-27.041-2.614-52.441,13.348-61.816,38.847c-9.375,25.499-0.364,54.112,21.931,69.637v19.333
				c0.021,6.069,3.272,11.667,8.533,14.692v10.908c0,14.138,11.462,25.6,25.6,25.6c14.138,0,25.6-11.462,25.6-25.6v-10.908
				c5.261-3.025,8.513-8.623,8.533-14.692l0.317-19.517C293.08,214.816,302.61,192.157,298.929,169.617z M239.946,281.6
				c-4.712-0.003-8.53-3.822-8.533-8.533v-8.533h17.067v8.533C248.476,277.778,244.657,281.597,239.946,281.6z M264.562,214
				c-4.664,3.215-7.479,8.494-7.55,14.158v19.308h-34.133v-19.333c-0.071-5.649-2.88-10.913-7.533-14.117
				c-10.644-7.499-17.274-19.453-18-32.453c-0.726-13,4.533-25.618,14.275-34.255c7.765-6.964,17.836-10.803,28.267-10.775
				c1.755,0,3.508,0.103,5.25,0.308c18.757,2.408,33.741,16.784,36.925,35.425C284.715,188.383,277.917,204.596,264.562,214z"/>
			<path style="fill:#51A1FF;" d="M239.946,153.6c-14.132,0.015-25.585,11.468-25.6,25.6c0,4.713,3.821,8.533,8.533,8.533
				c4.713,0,8.533-3.82,8.533-8.533c0.003-4.712,3.822-8.53,8.533-8.533c4.713,0,8.533-3.821,8.533-8.533
				C248.479,157.421,244.658,153.6,239.946,153.6z"/>
		</g>
	</g>
</g>
<g>
</g>
<g>
</g>
<g>
</g>
<g>
</g>
<g>
</g>
<g>
</g>
<g>
</g>
<g>
</g>
<g>
</g>
<g>
</g>
<g>
</g>
<g>
</g>
<g>
</g>
<g>
</g>
<g>
</g>
</svg>
