<?xml version="1.0" encoding="iso-8859-1"?>
<!-- Generator: Adobe Illustrator 19.0.0, SVG Export Plug-In . SVG Version: 6.00 Build 0)  -->
<svg version="1.1" id="Capa_1" xmlns="http://www.w3.org/2000/svg" xmlns:xlink="http://www.w3.org/1999/xlink" x="0px" y="0px"
	 viewBox="0 0 512 512" style="enable-background:new 0 0 512 512;" xml:space="preserve">
<g>
	<path style="fill:none;stroke:#428DFF;stroke-width:2;stroke-linecap:round;stroke-linejoin:round;" d="M285.127,344.868
		c-7.727-7.727-18.207-12.068-29.135-12.068l0,0c-10.928,0-21.408,4.341-29.135,12.068l-46.201,46.201
		c-6.401,6.401-9.997,15.083-9.997,24.136V435.2h170.667v-19.995c0-9.053-3.596-17.735-9.997-24.136L285.127,344.868z"/>
	<g>
		<path style="fill:#A4C2F7;" d="M290.125,227.499v57.003c-0.003,9.055,3.588,17.741,9.984,24.149l65.365,65.365
			c6.396,6.409,9.987,15.095,9.984,24.149v79.701h-25.6v-79.701c0.003-9.055-3.588-17.74-9.984-24.149l-65.365-65.365
			c-6.396-6.409-9.987-15.095-9.984-24.149v-57.003c-0.003-9.055,3.588-17.74,9.984-24.149l65.365-65.365
			c6.396-6.409,9.987-15.095,9.984-24.149V34.133h25.6v79.701c0.003,9.055-3.588,17.74-9.984,24.149l-65.365,65.365
			C293.713,209.758,290.122,218.444,290.125,227.499z"/>
		
			<linearGradient id="SVGID_1_" gradientUnits="userSpaceOnUse" x1="-49.0603" y1="652.5521" x2="-47.477" y2="651.8214" gradientTransform="matrix(204.8004 0 0 -443.7334 10132.8936 289653)">
			<stop  offset="0" style="stop-color:#D4E1F4"/>
			<stop  offset="0.1717" style="stop-color:#D4E1F4"/>
			<stop  offset="0.2" style="stop-color:#D4E1F4"/>
			<stop  offset="0.2001" style="stop-color:#DAE4F4"/>
			<stop  offset="0.2007" style="stop-color:#EBEBF4"/>
			<stop  offset="0.2014" style="stop-color:#F6F1F4"/>
			<stop  offset="0.2023" style="stop-color:#FDF4F4"/>
			<stop  offset="0.205" style="stop-color:#FFF5F4"/>
			<stop  offset="0.2522" style="stop-color:#FFF5F4"/>
			<stop  offset="0.26" style="stop-color:#FFF5F4"/>
			<stop  offset="0.26" style="stop-color:#D4E1F4"/>
			<stop  offset="0.3974" style="stop-color:#D4E1F4"/>
			<stop  offset="0.42" style="stop-color:#D4E1F4"/>
			<stop  offset="0.4201" style="stop-color:#DAE4F4"/>
			<stop  offset="0.4207" style="stop-color:#EBEBF4"/>
			<stop  offset="0.4214" style="stop-color:#F6F1F4"/>
			<stop  offset="0.4223" style="stop-color:#FDF4F4"/>
			<stop  offset="0.425" style="stop-color:#FFF5F4"/>
			<stop  offset="0.4894" style="stop-color:#FFF5F4"/>
			<stop  offset="0.5" style="stop-color:#FFF5F4"/>
			<stop  offset="0.5" style="stop-color:#F9F2F4"/>
			<stop  offset="0.5001" style="stop-color:#E8EBF4"/>
			<stop  offset="0.5003" style="stop-color:#DDE5F4"/>
			<stop  offset="0.5005" style="stop-color:#D6E2F4"/>
			<stop  offset="0.501" style="stop-color:#D4E1F4"/>
			<stop  offset="0.7062" style="stop-color:#D4E1F4"/>
			<stop  offset="0.74" style="stop-color:#D4E1F4"/>
			<stop  offset="0.741" style="stop-color:#FFF5F4"/>
			<stop  offset="0.8346" style="stop-color:#FFF5F4"/>
			<stop  offset="0.85" style="stop-color:#FFF5F4"/>
			<stop  offset="0.851" style="stop-color:#D4E1F4"/>
		</linearGradient>
		<path style="fill:url(#SVGID_1_);" d="M267.939,227.499v57.003c-0.032,8.983,3.401,17.633,9.584,24.149l62.751,65.365
			c6.183,6.517,9.616,15.166,9.584,24.149v79.701h-204.8v-79.701c-0.032-8.983,3.401-17.633,9.584-24.149l62.751-65.365
			c6.183-6.517,9.616-15.166,9.584-24.149v-57.003c0.032-8.983-3.401-17.633-9.584-24.149l-62.751-65.365
			c-6.183-6.517-9.616-15.166-9.584-24.149V34.133h204.8v79.701c0.032,8.983-3.401,17.633-9.584,24.149l-62.751,65.365
			C271.34,209.866,267.907,218.515,267.939,227.499L267.939,227.499z"/>
		<path style="fill:#7FACFA;" d="M392.525,477.867v17.067c0.336,4.334-2.871,8.135-7.2,8.533h-216
			c-4.329-0.398-7.536-4.199-7.2-8.533v-17.067c-0.336-4.334,2.871-8.135,7.2-8.533h216
			C389.654,469.732,392.861,473.532,392.525,477.867L392.525,477.867z"/>
		<path style="fill:#FFFFFF;" d="M349.859,477.867v17.067c0.336,4.334-2.871,8.135-7.2,8.533h-216
			c-4.329-0.398-7.536-4.199-7.2-8.533v-17.067c-0.336-4.334,2.871-8.135,7.2-8.533h216
			C346.988,469.732,350.195,473.532,349.859,477.867z"/>
		<path style="fill:#7FACFA;" d="M341.325,415.232V435.2H170.659v-19.968c-0.003-9.055,3.588-17.741,9.984-24.149l46.251-46.251
			c7.761-7.649,18.202-11.966,29.099-12.032c10.91,0.001,21.374,4.328,29.099,12.032l46.251,46.251
			C337.738,397.492,341.329,406.177,341.325,415.232z"/>
		<path style="fill:#A4C2F7;" d="M307.192,415.232V435.2H170.659v-19.968c-0.003-9.055,3.588-17.741,9.984-24.149l46.251-46.251
			c3.467-3.476,7.546-6.282,12.032-8.277c4.486,1.995,8.565,4.801,12.032,8.277l46.251,46.251
			C303.605,397.492,307.195,406.177,307.192,415.232L307.192,415.232z"/>
		<path style="fill:#7FACFA;" d="M401.059,17.067v17.067c0.274,4.411-3.058,8.22-7.467,8.533h-224
			c-4.409-0.314-7.741-4.122-7.467-8.533V17.067c-0.274-4.411,3.058-8.22,7.467-8.533h224
			C398.001,8.847,401.333,12.655,401.059,17.067z"/>
		<path style="fill:#FFFFFF;" d="M349.859,17.067v17.067c0.336,4.334-2.871,8.135-7.2,8.533h-216
			c-4.329-0.398-7.536-4.199-7.2-8.533V17.067c-0.336-4.334,2.871-8.135,7.2-8.533h216C346.988,8.932,350.195,12.732,349.859,17.067
			z"/>
		<g>
			<path style="fill:#A4C2F7;" d="M358.392,477.867v17.067c0,4.713-2.865,8.533-6.4,8.533h-192c-3.535,0-6.4-3.821-6.4-8.533
				v-17.067c0-4.713,2.865-8.533,6.4-8.533h192C355.527,469.333,358.392,473.154,358.392,477.867z"/>
			<path style="fill:#A4C2F7;" d="M358.392,17.067v17.067c0,4.713-2.865,8.533-6.4,8.533h-192c-3.535,0-6.4-3.821-6.4-8.533V17.067
				c0-4.713,2.865-8.533,6.4-8.533h192C355.527,8.533,358.392,12.354,358.392,17.067z"/>
		</g>
		<path style="fill:#FFFFFF;" d="M247.459,227.499v57.003c0.003,9.055-3.588,17.741-9.984,24.149l-65.365,65.365
			c-6.396,6.409-9.987,15.095-9.984,24.149v79.701h-25.6v-79.701c-0.003-9.055,3.588-17.74,9.984-24.149l65.365-65.365
			c6.396-6.409,9.987-15.095,9.984-24.149v-57.003c0.003-9.055-3.588-17.74-9.984-24.149l-65.365-65.365
			c-6.396-6.409-9.987-15.095-9.984-24.149V34.133h25.6v79.701c-0.003,9.055,3.588,17.74,9.984,24.149l65.365,65.365
			C243.871,209.758,247.462,218.444,247.459,227.499L247.459,227.499z"/>
		<g>
			<path style="fill:#428DFF;" d="M306.143,209.383l65.366-65.366c7.972-8.026,12.458-18.872,12.483-30.184V51.2
				c9.422-0.009,17.057-7.645,17.067-17.067V17.067C401.049,7.645,393.414,0.009,383.992,0h-256
				c-9.422,0.009-17.057,7.645-17.067,17.067v17.067c0.009,9.422,7.645,17.057,17.067,17.067v62.633
				c0.026,11.312,4.511,22.158,12.483,30.184l65.367,65.367c3.748,3.75,6.223,8.584,7.075,13.817
				c0.736,4.655,5.107,7.832,9.762,7.096c4.655-0.736,7.832-5.107,7.096-9.762c-1.425-8.791-5.576-16.913-11.867-23.217
				l-65.366-65.367c-4.781-4.819-7.47-11.328-7.484-18.116V51.2h221.867v62.633c-0.014,6.788-2.703,13.297-7.484,18.116
				l-65.367,65.367c-7.972,8.026-12.457,18.872-12.483,30.184v57c0.026,11.312,4.511,22.158,12.483,30.184l65.367,65.367
				c4.781,4.819,7.47,11.328,7.484,18.116V460.8H145.059v-62.633c0.014-6.788,2.703-13.297,7.484-18.116l65.366-65.367
				c6.291-6.304,10.442-14.425,11.867-23.217c0.736-4.655-2.441-9.026-7.096-9.762c-4.655-0.736-9.026,2.441-9.762,7.096
				c-0.852,5.233-3.327,10.066-7.075,13.817l-65.367,65.367c-7.972,8.026-12.457,18.871-12.483,30.183V460.8
				c-9.422,0.009-17.057,7.645-17.067,17.067v17.067c0.009,9.422,7.645,17.057,17.067,17.067h256
				c9.422-0.009,17.057-7.645,17.067-17.067v-17.067c-0.009-9.422-7.645-17.057-17.067-17.067v-62.633
				c-0.026-11.312-4.511-22.158-12.483-30.183l-65.366-65.367c-4.781-4.819-7.47-11.328-7.484-18.116v-57
				C298.673,220.712,301.362,214.202,306.143,209.383z M136.525,34.133h-8.533V17.067l256-0.012v17.079H136.525z M383.992,494.933
				h-256v-17.067l8.531-0.001l0.002,0.001h238.933l0.06-0.012l8.474-0.001V494.933z"/>
			<path style="fill:#428DFF;" d="M174.621,385.037c-8.027,7.983-12.527,18.846-12.496,30.167V435.2
				c0,4.713,3.821,8.533,8.533,8.533h170.667c4.713,0,8.533-3.821,8.533-8.533v-19.996c0.031-11.321-4.469-22.184-12.496-30.167
				l-46.204-46.204c-9.327-9.327-21.977-14.567-35.167-14.567s-25.84,5.24-35.167,14.567L174.621,385.037z M279.092,350.9
				l46.204,46.204c4.782,4.812,7.476,11.316,7.496,18.1v11.462h-153.6v-11.462c0.02-6.784,2.714-13.288,7.496-18.1l46.204-46.204
				C245.82,338.559,266.165,338.559,279.092,350.9z"/>
			<circle style="fill:#428DFF;" cx="221.859" cy="256" r="8.533"/>
		</g>
	</g>
</g>
<g>
</g>
<g>
</g>
<g>
</g>
<g>
</g>
<g>
</g>
<g>
</g>
<g>
</g>
<g>
</g>
<g>
</g>
<g>
</g>
<g>
</g>
<g>
</g>
<g>
</g>
<g>
</g>
<g>
</g>
</svg>
