<?xml version="1.0" encoding="iso-8859-1"?>
<!-- Generator: Adobe Illustrator 19.0.0, SVG Export Plug-In . SVG Version: 6.00 Build 0)  -->
<svg version="1.1" id="Capa_1" xmlns="http://www.w3.org/2000/svg" xmlns:xlink="http://www.w3.org/1999/xlink" x="0px" y="0px"
	 viewBox="0 0 512.026 512.026" style="enable-background:new 0 0 512.026 512.026;" xml:space="preserve">
<g transform="translate(0 -1)">
	<g transform="translate(1 2)">
		<g>
			<path style="fill:#A4C2F7;" d="M85.882,502.475h-1.535c-13.58,0.004-26.605-5.389-36.208-14.992
				c-9.603-9.603-14.996-22.628-14.992-36.208v-128h136.533v179.2H85.882z"/>
			<path style="fill:#A4C2F7;" d="M476.879,24.609v426.667c-0.022,28.268-22.932,51.178-51.2,51.2H85.882
				c28.168-1.605,50.068-25.123,49.665-53.333V24.609c0.027-9.414,7.652-17.039,17.067-17.067h307.2
				C469.227,7.569,476.852,15.194,476.879,24.609z"/>
		</g>
		<path style="fill:#D4E1F4;" d="M451.279,24.609v426.667c-0.022,28.268-22.932,51.178-51.2,51.2H85.882
			c28.168-1.605,50.068-25.123,49.665-53.333V24.609c0.027-9.414,7.652-17.039,17.067-17.067h281.6
			C443.627,7.569,451.252,15.194,451.279,24.609z"/>
		<g>
			<path style="fill:#A4C2F7;" d="M331.813,141.345v53.931c-0.014,4.707-3.826,8.519-8.533,8.533H186.746
				c-4.707-0.014-8.519-3.826-8.533-8.533v-53.931H331.813z"/>
			<path style="fill:#A4C2F7;" d="M296.655,144.075H187.77c-9.989-0.005-18.086-8.102-18.091-18.091V92.875
				c0.014-4.707,3.826-8.52,8.533-8.533h153.6c4.707,0.014,8.52,3.826,8.533,8.533v33.109c-0.005,9.989-8.102,18.086-18.091,18.091
				H296.655"/>
		</g>
		<g>
			<path style="fill:#E3E7F2;" d="M306.213,141.345v53.931c-0.014,4.707-3.826,8.519-8.533,8.533H186.746
				c-4.707-0.014-8.519-3.826-8.533-8.533v-53.931H306.213z"/>
			<path style="fill:#E3E7F2;" d="M314.746,92.875v33.109c-0.005,9.989-8.102,18.086-18.091,18.091H187.77
				c-9.989-0.005-18.086-8.102-18.091-18.091V94.753l8.533-10.411h128C310.92,84.356,314.732,88.168,314.746,92.875z"/>
		</g>
		<g>
			<path style="fill:#FFFFFF;" d="M178.213,7.542c-9.414,0.027-17.039,7.652-17.067,17.067v426.667
				c-0.022,28.268-22.932,51.178-51.2,51.2h-25.6c28.268-0.022,51.178-22.932,51.2-51.2V24.609
				c0.027-9.414,7.652-17.039,17.067-17.067H178.213z"/>
			<path style="fill:#FFFFFF;" d="M85.882,502.475h24.065c-13.58,0.004-26.606-5.389-36.208-14.992
				c-9.603-9.603-14.996-22.628-14.992-36.208v-128h-25.6v128c-0.004,13.58,5.389,26.605,14.992,36.208
				c9.603,9.603,22.628,14.996,36.208,14.992H85.882z"/>
		</g>
	</g>
	<g>
		<polygon style="fill:#FFFFFF;" points="145.079,26.609 145.079,137.542 145.079,350.875 128.013,350.875 128.013,137.542 
			128.013,26.609 		"/>
		<g>
			<path style="fill:#428DFF;" d="M136.546,103.409c3.45-0.014,6.556-2.096,7.879-5.282s0.606-6.856-1.82-9.31l-1.279-1.025
				c-0.476-0.324-0.993-0.583-1.538-0.771c-0.484-0.246-1.002-0.417-1.537-0.508c-0.564-0.096-1.133-0.153-1.705-0.17
				c-2.259,0.031-4.423,0.915-6.059,2.475c-2.07,1.994-2.979,4.908-2.409,7.726c0.57,2.818,2.539,5.149,5.222,6.183
				C134.327,103.163,135.43,103.395,136.546,103.409z"/>
			<path style="fill:#428DFF;" d="M460.813,1h-307.2c-14.132,0.015-25.585,11.468-25.6,25.6l0.002,0.009h-0.002v34.133
				c0,4.713,3.821,8.533,8.533,8.533c4.713,0,8.533-3.82,8.533-8.533V26.609h-0.002l0.002-0.009c0.003-4.712,3.822-8.53,8.533-8.533
				h307.2c4.712,0.003,8.53,3.822,8.533,8.533v426.667c-0.028,23.553-19.114,42.639-42.667,42.667h-300.45
				c12.039-11.8,18.831-27.943,18.85-44.8V129.009c0-4.713-3.821-8.533-8.533-8.533c-4.713,0-8.533,3.821-8.533,8.533v187.733
				H34.146c-2.264-0.001-4.435,0.897-6.035,2.498c-1.601,1.601-2.499,3.772-2.498,6.035v127.991
				c-0.006,32.99,26.726,59.742,59.716,59.759c0.6,0,1.208-0.009,1.808-0.025h339.542c32.973-0.04,59.693-26.76,59.733-59.733
				V26.601C486.398,12.468,474.945,1.015,460.813,1z M42.679,453.267l0-119.458h85.334v117.325
				c0.392,23.592-17.834,43.324-41.383,44.8c-11.554,0.458-22.781-3.899-31-12.033C47.318,475.881,42.64,464.816,42.679,453.267z"/>
			<path style="fill:#428DFF;" d="M375.479,146.075h59.733c4.713,0,8.533-3.821,8.533-8.533s-3.82-8.533-8.533-8.533h-59.733
				c-4.713,0-8.533,3.82-8.533,8.533S370.767,146.075,375.479,146.075z"/>
			<path style="fill:#428DFF;" d="M375.479,77.809h59.733c4.713,0,8.533-3.821,8.533-8.533c0-4.713-3.82-8.533-8.533-8.533h-59.733
				c-4.713,0-8.533,3.82-8.533,8.533C366.946,73.988,370.767,77.809,375.479,77.809z"/>
			<path style="fill:#428DFF;" d="M375.479,111.942h59.733c4.713,0,8.533-3.821,8.533-8.533c0-4.713-3.82-8.533-8.533-8.533h-59.733
				c-4.713,0-8.533,3.821-8.533,8.533C366.946,108.121,370.767,111.942,375.479,111.942z"/>
			<path style="fill:#428DFF;" d="M375.479,180.209h59.733c4.713,0,8.533-3.821,8.533-8.533c0-4.713-3.82-8.533-8.533-8.533h-59.733
				c-4.713,0-8.533,3.821-8.533,8.533C366.946,176.388,370.767,180.209,375.479,180.209z"/>
			<path style="fill:#428DFF;" d="M375.479,214.342h59.733c4.713,0,8.533-3.821,8.533-8.533c0-4.713-3.82-8.533-8.533-8.533h-59.733
				c-4.713,0-8.533,3.821-8.533,8.533C366.946,210.521,370.767,214.342,375.479,214.342z"/>
			<path style="fill:#428DFF;" d="M170.679,248.475h264.533c4.713,0,8.533-3.821,8.533-8.533s-3.82-8.533-8.533-8.533H170.679
				c-4.713,0-8.533,3.821-8.533,8.533S165.967,248.475,170.679,248.475z"/>
			<path style="fill:#428DFF;" d="M170.679,282.609h264.533c4.713,0,8.533-3.821,8.533-8.533c0-4.713-3.82-8.533-8.533-8.533
				H170.679c-4.713,0-8.533,3.821-8.533,8.533C162.146,278.788,165.967,282.609,170.679,282.609z"/>
			<path style="fill:#428DFF;" d="M435.213,299.675H324.279c-4.713,0-8.533,3.821-8.533,8.533s3.82,8.533,8.533,8.533h110.933
				c4.713,0,8.533-3.82,8.533-8.533S439.926,299.675,435.213,299.675z"/>
			<path style="fill:#428DFF;" d="M170.679,316.742h102.4c4.713,0,8.533-3.82,8.533-8.533s-3.821-8.533-8.533-8.533h-102.4
				c-4.713,0-8.533,3.821-8.533,8.533S165.967,316.742,170.679,316.742z"/>
			<path style="fill:#428DFF;" d="M435.213,333.809H324.279c-4.713,0-8.533,3.82-8.533,8.533s3.82,8.533,8.533,8.533h110.933
				c4.713,0,8.533-3.82,8.533-8.533S439.926,333.809,435.213,333.809z"/>
			<path style="fill:#428DFF;" d="M170.679,350.875h102.4c4.713,0,8.533-3.82,8.533-8.533s-3.821-8.533-8.533-8.533h-102.4
				c-4.713,0-8.533,3.82-8.533,8.533S165.967,350.875,170.679,350.875z"/>
			<path style="fill:#428DFF;" d="M435.213,367.942H324.279c-4.713,0-8.533,3.82-8.533,8.533s3.82,8.533,8.533,8.533h110.933
				c4.713,0,8.533-3.82,8.533-8.533S439.926,367.942,435.213,367.942z"/>
			<path style="fill:#428DFF;" d="M170.679,385.009h102.4c4.713,0,8.533-3.82,8.533-8.533s-3.821-8.533-8.533-8.533h-102.4
				c-4.713,0-8.533,3.82-8.533,8.533S165.967,385.009,170.679,385.009z"/>
			<path style="fill:#428DFF;" d="M435.213,402.075H324.279c-4.713,0-8.533,3.82-8.533,8.533s3.82,8.533,8.533,8.533h110.933
				c4.713,0,8.533-3.82,8.533-8.533S439.926,402.075,435.213,402.075z"/>
			<path style="fill:#428DFF;" d="M170.679,419.142h102.4c4.713,0,8.533-3.82,8.533-8.533s-3.821-8.533-8.533-8.533h-102.4
				c-4.713,0-8.533,3.82-8.533,8.533S165.967,419.142,170.679,419.142z"/>
			<path style="fill:#428DFF;" d="M435.213,436.209H324.279c-4.713,0-8.533,3.82-8.533,8.533s3.82,8.533,8.533,8.533h110.933
				c4.713,0,8.533-3.821,8.533-8.533S439.926,436.209,435.213,436.209z"/>
			<path style="fill:#428DFF;" d="M170.679,453.275h102.4c4.713,0,8.533-3.821,8.533-8.533s-3.821-8.533-8.533-8.533h-102.4
				c-4.713,0-8.533,3.82-8.533,8.533S165.967,453.275,170.679,453.275z"/>
			<path style="fill:#428DFF;" d="M298.679,43.675h-85.333c-9.421,0.012-17.054,7.646-17.067,17.067v17.067h-17.067
				c-9.421,0.012-17.054,7.646-17.067,17.067v33.1c0.015,7.379,3.108,14.418,8.533,19.42v49.88
				c0.012,9.421,7.646,17.054,17.067,17.067h136.533c9.421-0.012,17.054-7.646,17.067-17.067v-49.88
				c5.426-5.002,8.518-12.04,8.533-19.42v-33.1c-0.012-9.421-7.646-17.054-17.067-17.067h-17.067V60.742
				C315.734,51.321,308.1,43.687,298.679,43.675z M213.346,60.742h85.333v17.067h-85.333V60.742z M324.279,197.275H187.746v-42.771
				c0.35,0.013,0.679,0.104,1.033,0.104h58.7v8.533c0,4.713,3.821,8.533,8.533,8.533s8.533-3.82,8.533-8.533v-8.533h58.7
				c0.354,0,0.683-0.092,1.033-0.104V197.275z M332.813,127.975c-0.006,5.281-4.286,9.561-9.567,9.567H188.779
				c-5.281-0.006-9.561-4.286-9.567-9.567v-33.1h153.6V127.975z"/>
		</g>
	</g>
</g>
<g>
</g>
<g>
</g>
<g>
</g>
<g>
</g>
<g>
</g>
<g>
</g>
<g>
</g>
<g>
</g>
<g>
</g>
<g>
</g>
<g>
</g>
<g>
</g>
<g>
</g>
<g>
</g>
<g>
</g>
</svg>
