<svg height="512pt" viewBox="0 0 512.01919 512" width="512pt" xmlns="http://www.w3.org/2000/svg"><path d="m349.867188 358.40625h25.601562c68.167969-.234375 124.199219-53.855469 127.417969-121.949219 3.222656-68.097656-47.492188-126.769531-115.335938-133.4375-23.351562-62.898437-86.820312-101.546875-153.421875-93.425781-66.601562 8.121094-118.921875 60.890625-126.472656 127.558594-58.699219 6.203125-102.261719 57.289062-99.117188 116.234375 3.148438 58.941406 51.898438 105.097656 110.929688 105.019531zm0 0" fill="#d4e1f4"/><path d="m503.46875 230.40625c-.027344 70.679688-57.320312 127.976562-128 128h-119.46875v-349.78125c58.980469 1.753906 111.011719 39.074219 131.585938 94.378906 65.691406 6.246094 115.871093 61.410156 115.882812 127.402344zm0 0" fill="#a4c2f7"/><path d="m477.867188 230.40625c-.023438 70.679688-57.316407 127.976562-128 128h-93.867188v-346.796875c48.648438 10.304687 88.636719 44.789063 105.984375 91.394531 65.691406 6.246094 115.871094 61.410156 115.882813 127.402344zm0 0" fill="#d4e1f4"/><path d="m315.734375 119.472656c0 32.988282-26.746094 59.730469-59.734375 59.730469s-59.734375-26.742187-59.734375-59.730469c0-32.992187 26.746094-59.734375 59.734375-59.734375s59.734375 26.742188 59.734375 59.734375zm0 0" fill="#e3e7f2"/><path d="m119.46875 358.40625h25.597656c-58.933594-.046875-107.546875-46.171875-110.6875-105.019531-3.140625-58.851563 40.28125-109.886719 98.878906-116.207031 7.8125-68.433594 62.667969-121.941407 131.277344-128.042969-1.828125-.15625-3.6875-.222657-5.53125-.308594-1.007812-.050781-1.996094-.179687-3.003906-.203125v.085938c-1.425781-.042969-2.832031-.171876-4.265625-.171876-73.742187.027344-135.726563 55.371094-144.078125 128.640626-58.59375 6.320312-102.019531 57.355468-98.875 116.207031 3.140625 58.847656 51.75 104.972656 110.6875 105.019531zm0 0" fill="#fff"/><path d="m0 247.472656c.167969-40.640625 20.835938-78.445312 54.953125-100.523437 15.667969-9.921875 33.382813-16.160157 51.808594-18.253907l1.789062 16.972657c-15.777343 1.8125-30.945312 7.160156-44.371093 15.644531-29.238282 18.925781-46.957032 51.328125-47.113282 86.160156zm0 0" fill="#fff"/><g fill="#428dff"><path d="m264.535156 145.070312c0 4.714844-3.820312 8.535157-8.535156 8.535157-4.710938 0-8.53125-3.820313-8.53125-8.535157 0-4.710937 3.820312-8.53125 8.53125-8.53125 4.714844 0 8.535156 3.820313 8.535156 8.53125zm0 0"/><path d="m16.65625 205.847656c-2.175781-.855468-4.609375-.75-6.703125.292969-2.09375 1.039063-3.644531 2.917969-4.277344 5.167969-3.648437 11.710937-5.5625 23.894531-5.675781 36.164062-.0703125 44.582032 24.746094 85.476563 64.324219 106 4.179687 2.175782 9.335937.554688 11.511719-3.625 2.175781-4.183594.554687-9.335937-3.625-11.511718-33.929688-17.59375-55.203126-52.648438-55.144532-90.863282.117188-10.515625 1.757813-20.957031 4.871094-31.003906 1.1875-4.367188-1.082031-8.929688-5.28125-10.621094zm0 0"/><path d="m22.914062 189.574219c.433594.371093.890626.71875 1.371094 1.03125 1.9375 1.097656 4.195313 1.484375 6.382813 1.09375 1.066406-.207031 2.085937-.613281 3.003906-1.195313 2.667969-1.785156 4.089844-4.925781 3.671875-8.109375-.183594-1.082031-.550781-2.128906-1.09375-3.085937-.527344-.976563-1.230469-1.84375-2.074219-2.5625-1.773437-1.441406-4.050781-2.109375-6.324219-1.859375-2.382812.335937-4.511718 1.675781-5.84375 3.679687-1.34375 1.960938-1.910156 4.351563-1.585937 6.707032l.511719 1.578124c.230468.539063.539062 1.046876.910156 1.5.292969.460938.652344.871094 1.070312 1.222657zm0 0"/><path d="m393.617188 95.117188c-26.152344-63.675782-91.523438-102.125-159.882813-94.039063-68.363281 8.085937-122.960937 60.726563-133.535156 128.746094-16.066407 2.640625-31.441407 8.464843-45.226563 17.125l-7.519531 5.273437c-1.882813 1.382813-3.105469 3.488282-3.375 5.8125-.273437 2.324219.433594 4.652344 1.949219 6.433594 2.964844 3.425781 8.054687 4.015625 11.726562 1.363281l6.441406-4.519531c13.429688-8.484375 28.59375-13.832031 44.375-15.644531v-.1875c3.941407-.355469 7.105469-3.410157 7.601563-7.335938 7.101563-62.746093 56.335937-112.417969 119.019531-120.066406 62.679688-7.648437 122.417969 28.722656 144.398438 87.917969 1.140625 3.066406 3.9375 5.207031 7.191406 5.515625 50.882812 4.835937 93.050781 41.511719 104.902344 91.230469 11.847656 49.71875-9.242188 101.46875-52.472656 128.738281-3.984376 2.519531-5.175782 7.789062-2.660157 11.773437 2.519531 3.984375 7.789063 5.175782 11.773438 2.660156 48.585937-30.652343 72.789062-88.433593 60.554687-144.558593-12.234375-56.128907-58.292968-98.589844-115.226562-106.238281zm0 0"/><path d="m153.601562 464.703125v26.335937c.015626 11.570313 9.394532 20.945313 20.964844 20.964844h9.265625c11.574219-.019531 20.949219-9.394531 20.96875-20.964844v-26.335937c-.019531-11.570313-9.394531-20.945313-20.96875-20.964844h-9.265625c-11.570312.019531-20.949218 9.394531-20.964844 20.964844zm17.066407 0c.003906-2.148437 1.746093-3.894531 3.898437-3.898437h9.265625c2.152344.003906 3.898438 1.75 3.902344 3.898437v26.335937c-.003906 2.152344-1.75 3.894532-3.902344 3.898438h-9.265625c-2.152344-.003906-3.894531-1.746094-3.898437-3.898438zm0 0"/><path d="m85.332031 464.703125v26.335937c.019531 11.570313 9.394531 20.945313 20.96875 20.964844h9.265625c11.574219-.019531 20.949219-9.394531 20.96875-20.964844v-26.335937c-.019531-11.570313-9.394531-20.945313-20.96875-20.964844h-9.265625c-11.574219.019531-20.949219 9.394531-20.96875 20.964844zm17.066407 0c.007812-2.148437 1.75-3.894531 3.902343-3.898437h9.265625c2.152344.003906 3.894532 1.75 3.902344 3.898437v26.335937c-.007812 2.152344-1.75 3.894532-3.902344 3.898438h-9.265625c-2.152343-.003906-3.894531-1.746094-3.902343-3.898438zm0 0"/><path d="m256 464.703125v26.335937c.019531 11.570313 9.394531 20.945313 20.964844 20.964844h9.269531c11.570313-.019531 20.945313-9.394531 20.964844-20.964844v-26.335937c-.019531-11.570313-9.394531-20.945313-20.964844-20.964844h-9.269531c-11.570313.019531-20.945313 9.394531-20.964844 20.964844zm17.066406 0c.003906-2.148437 1.75-3.894531 3.898438-3.898437h9.269531c2.152344.003906 3.894531 1.75 3.898437 3.898437v26.335937c-.003906 2.152344-1.746093 3.894532-3.898437 3.898438h-9.269531c-2.148438-.003906-3.894532-1.746094-3.898438-3.898438zm0 0"/><path d="m324.265625 464.703125v26.335937c.019531 11.570313 9.394531 20.945313 20.96875 20.964844h9.265625c11.570312-.019531 20.949219-9.394531 20.96875-20.964844v-26.335937c-.019531-11.570313-9.398438-20.945313-20.96875-20.964844h-9.265625c-11.574219.019531-20.949219 9.394531-20.96875 20.964844zm17.066406 0c.007813-2.148437 1.75-3.894531 3.902344-3.898437h9.265625c2.152344.003906 3.894531 1.75 3.898438 3.898437v26.335937c-.003907 2.152344-1.746094 3.894532-3.898438 3.898438h-9.265625c-2.152344-.003906-3.894531-1.746094-3.902344-3.898438zm0 0"/><path d="m418.132812 491.039062c.019532 11.570313 9.394532 20.945313 20.96875 20.964844h9.265626c11.570312-.019531 20.949218-9.394531 20.964843-20.964844v-26.335937c-.015625-11.570313-9.394531-20.945313-20.964843-20.964844h-9.265626c-11.574218.019531-20.949218 9.394531-20.96875 20.964844zm17.066407-26.335937c.003906-2.148437 1.75-3.894531 3.902343-3.898437h9.265626c2.152343.003906 3.894531 1.75 3.898437 3.898437v26.335937c-.003906 2.152344-1.746094 3.894532-3.898437 3.898438h-9.265626c-2.152343-.003906-3.898437-1.746094-3.902343-3.898438zm0 0"/><path d="m196.265625 388.636719c.019531 11.574219 9.394531 20.949219 20.96875 20.96875h9.265625c11.570312-.019531 20.949219-9.394531 20.96875-20.96875v-26.332031c-.019531-11.570313-9.398438-20.949219-20.96875-20.964844h-9.265625c-11.574219.015625-20.949219 9.394531-20.96875 20.964844zm17.066406-26.332031c.007813-2.152344 1.75-3.894532 3.902344-3.898438h9.265625c2.152344.003906 3.894531 1.746094 3.898438 3.898438v26.332031c-.003907 2.152343-1.746094 3.898437-3.898438 3.902343h-9.265625c-2.152344-.003906-3.894531-1.75-3.902344-3.902343zm0 0"/><path d="m124.101562 409.605469c11.570313-.019531 20.945313-9.394531 20.964844-20.96875v-26.332031c-.019531-11.570313-9.394531-20.949219-20.964844-20.964844h-9.269531c-11.570312.015625-20.945312 9.394531-20.964843 20.964844v26.332031c.019531 11.574219 9.394531 20.949219 20.964843 20.96875zm-13.167968-20.96875v-26.332031c.003906-2.152344 1.746094-3.894532 3.898437-3.898438h9.269531c2.152344.003906 3.894532 1.746094 3.898438 3.898438v26.332031c-.003906 2.152343-1.746094 3.898437-3.898438 3.902343h-9.269531c-2.152343-.003906-3.894531-1.75-3.898437-3.902343zm0 0"/><path d="m397.167969 341.339844h-9.269531c-11.570313.015625-20.945313 9.394531-20.964844 20.964844v26.332031c.019531 11.574219 9.394531 20.949219 20.964844 20.96875h9.269531c11.570312-.019531 20.945312-9.394531 20.964843-20.96875v-26.332031c-.019531-11.570313-9.394531-20.949219-20.964843-20.964844zm3.898437 47.296875c-.003906 2.152343-1.746094 3.898437-3.898437 3.902343h-9.269531c-2.148438-.003906-3.894532-1.75-3.898438-3.902343v-26.332031c.003906-2.152344 1.75-3.894532 3.898438-3.898438h9.269531c2.152343.003906 3.894531 1.746094 3.898437 3.898438zm0 0"/><path d="m226.5 238.9375h-9.265625c-11.574219.019531-20.949219 9.394531-20.96875 20.96875v26.332031c.019531 11.570313 9.394531 20.949219 20.96875 20.964844h9.265625c11.570312-.015625 20.949219-9.394531 20.96875-20.964844v-26.332031c-.019531-11.574219-9.398438-20.949219-20.96875-20.96875zm3.898438 47.300781c-.003907 2.152344-1.746094 3.894531-3.898438 3.898438h-9.265625c-2.152344-.003907-3.894531-1.746094-3.902344-3.898438v-26.332031c.007813-2.152344 1.75-3.898438 3.902344-3.902344h9.265625c2.152344.003906 3.894531 1.75 3.898438 3.902344zm0 0"/><path d="m294.765625 238.9375h-9.265625c-11.570312.019531-20.949219 9.394531-20.964844 20.96875v26.332031c.015625 11.570313 9.394532 20.949219 20.964844 20.964844h9.265625c11.574219-.015625 20.949219-9.394531 20.96875-20.964844v-26.332031c-.019531-11.574219-9.394531-20.949219-20.96875-20.96875zm3.902344 47.300781c-.003907 2.152344-1.75 3.894531-3.902344 3.898438h-9.265625c-2.152344-.003907-3.894531-1.746094-3.898438-3.898438v-26.332031c.003907-2.152344 1.746094-3.898438 3.898438-3.902344h9.265625c2.152344.003906 3.898437 1.75 3.902344 3.902344zm0 0"/><path d="m294.765625 409.605469c11.574219-.019531 20.949219-9.394531 20.96875-20.96875v-26.332031c-.019531-11.570313-9.394531-20.949219-20.96875-20.964844h-9.265625c-11.570312.015625-20.949219 9.394531-20.964844 20.964844v26.332031c.015625 11.574219 9.394532 20.949219 20.964844 20.96875zm-13.164063-20.96875v-26.332031c.003907-2.152344 1.746094-3.894532 3.898438-3.898438h9.265625c2.152344.003906 3.898437 1.746094 3.902344 3.898438v26.332031c-.003907 2.152343-1.75 3.898437-3.902344 3.902343h-9.265625c-2.152344-.003906-3.894531-1.75-3.898438-3.902343zm0 0"/><path d="m221.867188 452.273438v51.199218c0 4.710938 3.820312 8.53125 8.53125 8.53125 4.714843 0 8.535156-3.820312 8.535156-8.53125v-51.199218c0-4.714844-3.820313-8.535157-8.535156-8.535157-4.710938 0-8.53125 3.820313-8.53125 8.535157zm0 0"/><path d="m59.734375 443.738281c-4.714844 0-8.535156 3.820313-8.535156 8.535157v51.199218c0 4.710938 3.820312 8.53125 8.535156 8.53125 4.710937 0 8.53125-3.820312 8.53125-8.53125v-51.199218c0-4.714844-3.820313-8.535157-8.53125-8.535157zm0 0"/><path d="m392.535156 452.273438v51.199218c0 4.710938 3.820313 8.53125 8.53125 8.53125 4.714844 0 8.535156-3.820312 8.535156-8.53125v-51.199218c0-4.714844-3.820312-8.535157-8.535156-8.535157-4.710937 0-8.53125 3.820313-8.53125 8.535157zm0 0"/><path d="m162.132812 401.070312c0 4.714844 3.820313 8.535157 8.535157 8.535157 4.710937 0 8.53125-3.820313 8.53125-8.535157v-51.199218c0-4.710938-3.820313-8.53125-8.53125-8.53125-4.714844 0-8.535157 3.820312-8.535157 8.53125zm0 0"/><path d="m170.667969 307.203125c4.710937 0 8.53125-3.820313 8.53125-8.53125v-51.199219c0-4.714844-3.820313-8.535156-8.53125-8.535156-4.714844 0-8.535157 3.820312-8.535157 8.535156v51.199219c0 4.710937 3.820313 8.53125 8.535157 8.53125zm0 0"/><path d="m341.332031 307.203125c4.714844 0 8.535157-3.820313 8.535157-8.53125v-51.199219c0-4.714844-3.820313-8.535156-8.535157-8.535156-4.710937 0-8.53125 3.820312-8.53125 8.535156v51.199219c0 4.710937 3.820313 8.53125 8.53125 8.53125zm0 0"/><path d="m332.800781 401.070312c0 4.714844 3.820313 8.535157 8.53125 8.535157 4.714844 0 8.535157-3.820313 8.535157-8.535157v-51.199218c0-4.710938-3.820313-8.53125-8.535157-8.53125-4.710937 0-8.53125 3.820312-8.53125 8.53125zm0 0"/><path d="m256 51.203125c-37.703125 0-68.265625 30.566406-68.265625 68.269531s30.5625 68.265625 68.265625 68.265625 68.265625-30.5625 68.265625-68.265625c-.042969-37.6875-30.582031-68.226562-68.265625-68.269531zm0 119.46875c-28.277344 0-51.199219-22.921875-51.199219-51.199219s22.921875-51.199218 51.199219-51.199218 51.199219 22.921874 51.199219 51.199218c-.027344 28.265625-22.933594 51.171875-51.199219 51.199219zm0 0"/><path d="m256 85.339844c-4.710938 0-8.53125 3.820312-8.53125 8.53125v17.066406c0 4.714844 3.820312 8.535156 8.53125 8.535156 4.714844 0 8.535156-3.820312 8.535156-8.535156v-17.066406c0-4.710938-3.820312-8.53125-8.535156-8.53125zm0 0"/></g></svg>