<svg height="512pt" viewBox="0 0 512.21824 512" width="512pt" xmlns="http://www.w3.org/2000/svg"><path d="m367.351562 86.953125 11.949219-24.671875c9.90625 2.707031 20.308594-2.222656 24.488281-11.605469 5.28125-9.957031 1.566407-22.308593-8.328124-27.707031-5.199219-2.40625-11.214844-2.304688-16.332032.273438-1.160156-5.613282-4.828125-10.390626-9.957031-12.953126-10.382813-4.378906-22.355469.402344-26.863281 10.726563-4.773438 9.132813-2.144532 20.378906 6.175781 26.453125v-.027344l-11 22.828125zm0 0" fill="#f5f5f5"/><path d="m450.722656 179.265625 19.371094-19.371094h-.042969c8.484375 5.863281 19.984375 4.632813 27.035157-2.890625 8.257812-7.664062 8.824218-20.542968 1.269531-28.902344-4.113281-3.992187-9.832031-5.878906-15.511719-5.121093.757812-5.683594-1.128906-11.398438-5.121094-15.515625-8.359375-7.554688-21.238281-6.988282-28.902344 1.273437-7.527343 7.050781-8.757812 18.550781-2.894531 27.035157l-17.917969 17.917968zm0 0" fill="#f5f5f5"/><g fill="#a4c2f7"><path d="m34.125 452.246094h443.734375c0 28.277344-22.921875 51.203125-51.199219 51.203125h-341.335937c-28.273438 0-51.199219-22.925781-51.199219-51.203125zm0 0"/><path d="m34.125 452.246094h409.601562c0 28.277344-22.921874 51.203125-51.199218 51.203125h-307.203125c-28.273438 0-51.199219-22.925781-51.199219-51.203125zm0 0"/><path d="m503.460938 435.179688c-.070313 9.398437-7.671876 17-17.066407 17.066406h-460.800781c-9.414062-.027344-17.039062-7.652344-17.066406-17.066406-.023438-4.527344 1.792968-8.871094 5.035156-12.03125 3.160156-3.242188 7.503906-5.058594 12.03125-5.035157h460.800781c.824219.011719 1.652344.070313 2.472657.171875 8.382812 1.226563 14.597656 8.421875 14.59375 16.894532zm0 0"/><path d="m469.324219 435.179688c.054687 4.449218-1.589844 8.753906-4.597657 12.03125-2.769531 3.1875-6.777343 5.023437-11 5.035156h-421.066406c-9.003906-.445313-15.964844-8.058594-15.601562-17.066406-.050782-4.449219 1.59375-8.75 4.601562-12.03125 2.769532-3.183594 6.777344-5.019532 11-5.035157h421.066406c.757813.011719 1.511719.070313 2.261719.171875 7.972657 1.625 13.609375 8.765625 13.335938 16.894532zm0 0"/><path d="m133.019531 375.449219c-4.054687 0-7.550781-2.855469-8.363281-6.828125-2.363281-11.699219-3.789062-23.566406-4.265625-35.492188-.113281-3.046875 1.410156-5.925781 3.992187-7.546875 2.582032-1.621093 5.835938-1.742187 8.535157-.316406 2.695312 1.429687 4.425781 4.183594 4.539062 7.234375.441407 10.988281 1.757813 21.925781 3.933594 32.707031.921875 4.617188-2.074219 9.109375-6.691406 10.035157-.550781.128906-1.113281.195312-1.679688.207031zm0 0"/><path d="m170.660156 324.246094c-4.714844 0-8.535156-3.820313-8.535156-8.53125 0-62.550782 26.949219-90.222656 28.101562-91.367188 3.339844-3.246094 8.664063-3.214844 11.964844.070313 3.300782 3.28125 3.359375 8.605469.136719 11.960937-.53125.554688-23.136719 24.78125-23.136719 79.335938 0 4.710937-3.820312 8.53125-8.53125 8.53125zm0 0"/><path d="m170.660156 366.914062c-4.714844 0-8.535156-3.820312-8.535156-8.53125v-8.535156c0-4.714844 3.820312-8.535156 8.535156-8.535156 4.710938 0 8.53125 3.820312 8.53125 8.535156v8.535156c0 4.710938-3.820312 8.53125-8.53125 8.53125zm0 0"/></g><path d="m503.460938 388.246094c.027343 11.726562-5.359376 22.8125-14.59375 30.039062-.820313-.101562-1.648438-.160156-2.472657-.171875h-30.378906c11.15625-20.710937 17.15625-43.804687 17.492187-67.328125 17.511719 3.949219 29.953126 19.507813 29.953126 37.460938zm0 0" fill="#e3e7f2"/><path d="m59.726562 332.78125 8.53125 34.132812h42.667969v-34.132812c-.109375-13.695312-10.972656-24.878906-24.660156-25.382812-13.683594-.5-25.34375 9.855468-26.453125 23.503906zm0 0" fill="#a4c2f7"/><path d="m67.148438 357.273438v-.085938c.554687-1.773438.898437-3.609375 1.027343-5.460938.070313-.625.097657-1.253906.082031-1.878906-.058593-14.113281-11.484374-25.539062-25.597656-25.601562-14.140625 0-25.601562 11.464844-25.601562 25.601562-.019532 7.105469 2.953125 13.890625 8.191406 18.6875-11.578125 4.332032-18.410156 16.320313-16.234375 28.488282 2.179687 12.171874 12.746094 21.046874 25.109375 21.089843h25.601562zm0 0" fill="#a4c2f7"/><path d="m373.582031 150.765625c-2.636719 12.5-6 24.835937-10.070312 36.949219l-165.546875 4.4375c-.085938-.34375-.167969-.597656-.253906-.941406-9.898438-35.410157 23.210937-52.820313 52.734374-61.863282 13.652344-3.394531 26.753907-8.710937 38.914063-15.789062 10.484375-8.308594 19.808594-17.976563 27.730469-28.757813 2.53125-2.929687 5.332031-5.613281 8.363281-8.019531 3.453125-3.070312 7.570313-5.289062 12.03125-6.484375 5.210937-1.347656 10.738281-.644531 15.445313 1.960937 3.472656 1.894532 6.59375 4.378907 9.21875 7.339844 2 2.214844 3.746093 4.648438 5.203124 7.253906v.085938c4.25 7.238281 7.25 15.144531 8.875 23.378906 2.460938 13.496094 1.550782 27.390625-2.644531 40.449219zm0 0" fill="#7fabfa"/><path d="m339.789062 150.765625c-2.636718 12.5-6 24.835937-10.066406 36.949219l-132.011718 3.496094c-9.898438-35.410157 23.210937-52.820313 52.734374-61.863282 13.652344-3.394531 26.753907-8.710937 38.914063-15.789062 10.484375-8.308594 19.808594-17.976563 27.730469-28.757813 2.53125-2.929687 5.332031-5.613281 8.363281-8.019531 1.03125.871094 2 1.8125 2.902344 2.816406 2 2.214844 3.746093 4.648438 5.207031 7.253906v.085938c4.246094 7.238281 7.246094 15.144531 8.871094 23.378906 2.460937 13.496094 1.550781 27.390625-2.644532 40.449219zm0 0" fill="#e3e7f2"/><path d="m473.507812 350.785156c-.335937 23.523438-6.335937 46.617188-17.492187 67.328125h-404.824219v-17.066406c-.019531-18.113281 7.164063-35.488281 19.972656-48.296875 12.804688-12.808594 30.183594-19.992188 48.296876-19.96875h9.46875c-1.703126-42.667969 9.558593-86.273438 38.316406-116.394531 23.859375-24.871094 55.945312-40.21875 90.28125-43.179688 24.765625-2.292969 49.738281.34375 73.472656 7.765625h.085938l101.207031 65.109375c18.964843 21.242188 32.132812 47.019531 38.226562 74.835938 1.667969 8.125 2.636719 16.375 2.902344 24.664062.085937 1.789063.085937 3.496094.085937 5.203125zm0 0" fill="#e3e7f2"/><path d="m439.375 350.785156c-.335938 23.523438-6.335938 46.617188-17.496094 67.328125h-370.6875v-17.066406c-.019531-18.113281 7.164063-35.488281 19.972656-48.296875 12.804688-12.808594 30.183594-19.992188 48.296876-19.96875h9.46875c-1.703126-42.667969 9.558593-86.273438 38.316406-116.394531 23.859375-24.871094 55.945312-40.21875 90.28125-43.179688 13.34375 1.242188 26.527344 3.84375 39.339844 7.765625h.085937l101.203125 65.109375c18.96875 21.242188 32.136719 47.019531 38.230469 74.835938 1.667969 8.125 2.636719 16.375 2.902343 24.664062.085938 1.789063.085938 3.496094.085938 5.203125zm0 0" fill="#a4c2f7"/><path d="m451.40625 204.183594c-2.09375 13.585937-7.550781 26.433594-15.871094 37.375-24.234375 35.5-83.371094 93.953125-129.964844 78.421875-11.472656-4.136719-21.355468-11.777344-28.246093-21.84375-14.546875-21.402344-22.011719-46.835938-21.332031-72.707031 0-31.742188 24.40625-42.066407 50.347656-44.285157 5.191406-.441406 10.40625-.582031 15.617187-.425781h.082031c1.453126 0 2.902344 0 4.355469.082031 13.996094 1.257813 28.101563.539063 41.898438-2.132812 12.660156-4.390625 24.6875-10.445313 35.753906-18.003907.851563-.425781 1.707031-.9375 2.558594-1.28125 11.691406-6.058593 24.832031-9.726562 35.328125 1.28125 2.648437 2.902344 4.757812 6.253907 6.230468 9.898438 3.890626 10.753906 5.007813 22.320312 3.242188 33.621094zm0 0" fill="#e3e7f2"/><path d="m417.359375 204.183594c-2.0625 13.582031-7.492187 26.429687-15.789063 37.375-18.601562 27.222656-57.769531 68.011718-96 78.421875-11.472656-4.136719-21.355468-11.777344-28.246093-21.84375-14.546875-21.402344-22.011719-46.835938-21.332031-72.707031 0-31.742188 24.40625-42.066407 50.347656-44.285157 5.207031.199219 10.425781.054688 15.617187-.425781h.082031c1.453126 0 2.902344 0 4.355469.082031 13.996094 1.257813 28.101563.539063 41.898438-2.132812 12.660156-4.390625 24.6875-10.445313 35.753906-18.003907.851563-.425781 1.707031-.9375 2.558594-1.28125.496093.382813.953125.8125 1.367187 1.28125 2.648438 2.902344 4.757813 6.253907 6.226563 9.898438 3.867187 10.761719 4.953125 22.328125 3.160156 33.621094zm0 0" fill="#a4c2f7"/><path d="m25.59375 418.113281c-4.527344-.023437-8.871094 1.792969-12.03125 5.035157-3.242188 3.160156-5.058594 7.503906-5.035156 12.03125.027344 9.414062 7.652344 17.039062 17.066406 17.066406h8.53125c0 28.277344 22.925781 51.203125 51.199219 51.203125h25.601562c-28.277343 0-51.199219-22.925781-51.199219-51.203125h-8.535156c-9.414062-.027344-17.039062-7.652344-17.066406-17.066406.070312-9.394532 7.671875-16.996094 17.066406-17.066407h8.535156c-12.363281-.042969-22.929687-8.917969-25.109374-21.089843-2.179688-12.167969 4.652343-24.15625 16.234374-28.488282-5.960937-5.488281-8.945312-13.492187-8.035156-21.546875.910156-8.050781 5.605469-15.1875 12.644532-19.207031-3.875-2.300781-8.296876-3.523438-12.800782-3.535156-14.140625 0-25.601562 11.464844-25.601562 25.601562-.019532 7.105469 2.953125 13.890625 8.191406 18.6875-11.578125 4.332032-18.410156 16.320313-16.234375 28.488282 2.179687 12.171874 12.746094 21.046874 25.109375 21.089843zm0 0" fill="#fff"/><path d="m68.257812 324.246094c6.347657 0 12.46875 2.375 17.152344 6.65625.597656-8.421875 5.347656-15.996094 12.664063-20.207032-6.742188-3.980468-14.949219-4.617187-22.230469-1.730468-7.277344 2.886718-12.816406 8.972656-15 16.496094 2.398438-.765626 4.898438-1.175782 7.414062-1.214844zm0 0" fill="#fff"/><path d="m167.246094 216.386719c-24.097656 27.140625-37.644532 62.03125-38.179688 98.320312" fill="#fff"/><path d="m289.359375 113.558594c-12.160156 7.078125-25.261719 12.394531-38.914063 15.789062-29.523437 9.042969-62.632812 26.453125-52.734374 61.863282.085937.328124.160156.582031.246093.90625-11.324219 6.609374-21.667969 14.78125-30.71875 24.269531" fill="#fff"/><path d="m120.40625 333.121094c-2.59375-39.179688 8.117188-78.089844 30.40625-110.421875 3.195312-4.246094 6.613281-8.320313 10.238281-12.210938l12.339844 11.792969c-3.148437 3.378906-6.117187 6.914062-8.902344 10.601562-19.933593 29.207032-29.457031 64.277344-27.03125 99.558594zm0 0" fill="#fff"/><path d="m131.40625 270.929688c.367188.453124.792969.851562 1.261719 1.1875.382812.375.820312.6875 1.296875.929687.515625.25 1.042968.460937 1.589844.632813 2.171874.585937 4.488281.363281 6.507812-.632813.941406-.539063 1.789062-1.226563 2.511719-2.039063 2.136719-2.484374 2.636719-5.984374 1.277343-8.96875-.492187-.992187-1.164062-1.890624-1.976562-2.644531-.796875-.785156-1.730469-1.410156-2.757812-1.84375-2.117188-.835937-4.476563-.792969-6.5625.121094-2.128907 1.027344-3.75 2.875-4.496094 5.117187-.761719 2.226563-.617188 4.664063.398437 6.785157zm0 0" fill="#428dff"/><path d="m481.453125 172.15625c16.40625-.167969 29.855469-13.0625 30.71875-29.445312.449219-7.671876-2.390625-15.167969-7.808594-20.617188-3.722656-3.652344-8.449219-6.109375-13.574219-7.058594-.957031-5.125-3.414062-9.855468-7.058593-13.585937-5.449219-5.410157-12.949219-8.246094-20.617188-7.796875-7.671875.367187-14.925781 3.605468-20.324219 9.070312-8.316406 8.160156-11.148437 20.398438-7.273437 31.386719l-11.023437 11.023437c-8.703126.804688-17.113282 3.570313-24.59375 8.089844-3.300782 1.808594-6.527344 3.761719-9.753907 5.707032-4.171875 2.5625-8.234375 4.960937-12.355469 7.023437 1.511719-4.445313 2.917969-8.832031 4.035157-12.96875 4.515625-14.347656 5.464843-29.578125 2.765625-44.375-1.570313-7.59375-4.152344-14.9375-7.679688-21.84375l7.296875-15.105469c.179688 0 .359375.042969.535157.042969 11.488281-.210937 21.855468-6.933594 26.738281-17.332031 7.378906-14.199219 1.871093-31.691406-12.316407-39.097656-4.730468-2.207032-10.011718-2.964844-15.171874-2.175782-2.582032-4.511718-6.441407-8.160156-11.09375-10.488281-14.625-6.488281-31.746094.089844-38.261719 14.703125-5.160157 10.441406-3.800781 22.929688 3.488281 32.015625l-6.738281 13.988281c-7.992188 3.617188-15.050781 9.015625-20.628907 15.785156-2.558593 2.816407-4.921874 5.726563-7.3125 8.636719-5.265624 7.152344-11.597656 13.457031-18.773437 18.695313-10.621094 6.207031-22.0625 10.894531-33.988281 13.917968l-2.730469.855469c-55.191406 16.929688-63.777344 44.621094-59.628906 66.976563-9.941407 6.3125-19.082031 13.808594-27.222657 22.316406-3.621093 3.875-7.039062 7.941406-10.238281 12.175781l-5.1875 7.484375c-1.296875 1.933594-1.726562 4.320313-1.191406 6.585938.53125 2.265625 1.984375 4.207031 4.003906 5.359375 3.96875 2.234375 8.984375 1.054687 11.539063-2.714844l4.539062-6.535156c2.78125-3.683594 5.753906-7.222657 8.902344-10.597657 26.324219-27.273437 62.835938-42.328124 100.734375-41.53125-4.65625 2.230469-8.941406 5.160157-12.707031 8.695313-9.53125 9.480469-14.628906 22.542969-14.035156 35.976563-.75 27.714843 7.289062 54.957031 22.96875 77.824218 11.421874 17.273438 30.699218 27.71875 51.40625 27.851563h1.253906c42.417968-.792969 85.597656-41.472657 109.449218-71.226563 14.496094 18.414063 24.621094 39.878906 29.617188 62.777344 1.566406 7.648438 2.480469 15.410156 2.734375 23.210938.574219 22.089843-4.296875 43.984374-14.183594 63.746093h-390.980469v-8.535156c.039063-32.972656 26.757813-59.695313 59.734376-59.734375h1.59375c.652343 9.167969 1.855468 18.285156 3.601562 27.308594.8125 3.972656 4.308594 6.828125 8.363281 6.828125.574219 0 1.144531-.054688 1.707031-.171875 2.21875-.449219 4.167969-1.765625 5.417969-3.652344 1.25-1.890625 1.699219-4.199219 1.246094-6.417969-2.179687-10.804687-3.496094-21.761719-3.933594-32.777343-.4375-10.890626.050781-21.796876 1.457031-32.605469.480469-4.558594-2.636718-8.71875-7.148437-9.539063-2.277344-.398437-4.617187.160156-6.46875 1.546875s-3.046875 3.476563-3.304687 5.773438c-1.097657 8.839843-1.621094 17.738281-1.570313 26.640625h-.960937c-.402344 0-.796876.050781-1.195313.0625-3.519531-13.878906-15.347656-24.074219-29.59375-25.5-14.246094-1.429688-27.863281 6.210937-34.066406 19.117187-3.816407-1.453125-7.863281-2.203125-11.945313-2.210937-12.039062-.113282-23.226562 6.183594-29.378906 16.53125-6.152344 10.34375-6.335938 23.183594-.488281 33.703125-7.417969 5.894531-12.023438 14.628906-12.7031252 24.078125-.6796878 9.449218 2.6328122 18.75 9.1289062 25.644531-8.285156 6.871094-11.359375 18.203125-7.6875 28.316406 3.671875 10.117188 13.300781 16.835938 24.0625 16.792969h.683594c4.234375 29.363281 29.382812 51.164062 59.046875 51.199219h341.335937c29.667969-.035157 54.8125-21.835938 59.050782-51.199219h.683593c10.714844.042969 20.316407-6.621094 24.023438-16.675781 3.703125-10.058594.722656-21.359375-7.460938-28.277344 8.621094-11.765625 11.253907-26.882813 7.121094-40.875-4.132813-13.988281-14.558594-25.246094-28.191406-30.4375-.304688-8.507813-1.3125-16.976563-3.011719-25.320313-5.914062-27-18.203125-52.191406-35.839844-73.472656 13.789063-18.140625 19.859375-40.996094 16.894532-63.589844l11.777343-11.773437c3.117188 1.171875 6.414063 1.78125 9.746094 1.796875zm-396.128906 143.558594c6.996093.011718 13.261719 4.320312 15.78125 10.84375-9.488281 2.34375-18.433594 6.480468-26.359375 12.195312-1.304688-3.828125-3.296875-7.386718-5.878906-10.496094 1.972656-7.453124 8.75-12.617187 16.457031-12.542968zm-42.664063 17.066406c4.261719.015625 8.359375 1.628906 11.492188 4.515625 3.570312 3.191406 5.597656 7.761719 5.574218 12.550781l-.078124 1.5c-.085938.757813-.238282 1.507813-.453126 2.238282-3.019531 3.824218-5.671874 7.925781-7.917968 12.253906-.117188.21875-.222656.441406-.316406.671875-5.449219 10.699219-8.292969 22.53125-8.300782 34.535156v8.535156h-8.535156c-8.230469-.027343-15.273438-5.929687-16.738281-14.03125-1.464844-8.101562 3.0625-16.09375 10.765625-19.003906.078125 0 .128906-.09375.214844-.125.429687-.214844.839843-.464844 1.226562-.753906.601562-.328125 1.160156-.726563 1.664062-1.183594.078126-.078125.179688-.101563.257813-.1875.234375-.320313.4375-.660156.613281-1.015625.367188-.480469.679688-1 .929688-1.546875.179687-.503906.3125-1.027344.394531-1.558594.128906-.53125.210937-1.070312.238281-1.613281-.03125-.597656-.117187-1.1875-.265625-1.769531-.03125-.398438-.09375-.792969-.1875-1.183594 0-.113281-.128906-.179687-.171875-.28125-.234375-.515625-.519531-1.003906-.851562-1.460937-.28125-.484376-.613282-.9375-.988282-1.355469-.085937-.085938-.113281-.195313-.199218-.273438-3.488282-3.171875-5.464844-7.675781-5.433594-12.390625 0-9.425781 7.640625-17.066406 17.066406-17.066406zm384 162.132812h-341.335937c-2.722657-.023437-5.4375-.308593-8.105469-.851562-.851562-.171875-1.707031-.460938-2.515625-.683594-1.738281-.421875-3.449219-.949218-5.121094-1.578125-.9375-.375-1.824219-.855469-2.730469-1.28125-1.445312-.683593-2.855468-1.445312-4.214843-2.285156-.855469-.566406-1.707031-1.164063-2.5625-1.785156-1.253907-.921875-2.457031-1.914063-3.597657-2.96875-.769531-.699219-1.519531-1.417969-2.230468-2.175781-1.070313-1.164063-2.078125-2.382813-3.019532-3.652344-.597656-.8125-1.226562-1.597656-1.765624-2.441406-.910157-1.457032-1.734376-2.96875-2.464844-4.523438-.386719-.792969-.855469-1.542969-1.171875-2.363281-.941407-2.300781-1.683594-4.679688-2.210938-7.109375 0-.152344-.101562-.289063-.132812-.441406h424.992187c-4.074218 19.855468-21.542968 34.117187-41.8125 34.140624zm59.734375-51.199218h-460.800781c-4.714844 0-8.535156-3.820313-8.535156-8.535156 0-4.710938 3.820312-8.53125 8.535156-8.53125h460.800781c4.710938 0 8.53125 3.820312 8.53125 8.53125 0 4.714843-3.820312 8.535156-8.53125 8.535156zm8.53125-55.46875c-.007812 8.09375-3.375 15.816406-9.292969 21.335937h-16.144531c6.382813-14.738281 10.390625-30.390625 11.878907-46.378906 8.492187 5.492187 13.601562 14.929687 13.558593 25.042969zm-40.105469-273.457032c2.390626-2.449218 5.617188-3.90625 9.035157-4.089843 2.878906-.1875 5.703125.835937 7.792969 2.828125 2.152343 2.25 3.144531 5.371094 2.6875 8.453125.003906.339843.027343.679687.074218 1.015625-.046875.332031-.070312.664062-.074218 1 0 .238281.167968.433594.210937.664062.121094.550782.296875 1.082032.523437 1.597656.351563.992188.9375 1.890626 1.707032 2.609376.390625.429687.832031.808593 1.3125 1.136718.421875.273438.871094.503906 1.339844.691406.546874.246094 1.117187.433594 1.707031.554688.238281.042969.425781.1875.671875.222656.328125-.011718.652344-.042968.972656-.085937.34375.050781.6875.078125 1.035156.085937 2.972656-.507812 6.015625.398438 8.230469 2.449219 2.210937 2.050781 3.347656 5.015625 3.066406 8.019531-.175781 3.425782-1.636719 6.65625-4.085937 9.054688-4.050782 4.507812-10.777344 5.402344-15.863282 2.105468-.230468-.167968-.496093-.203124-.734374-.347656-.597657-.386718-1.246094-.691406-1.921876-.914062-.402343-.113282-.8125-.191406-1.226562-.238282-.636719-.105468-1.277344-.140624-1.921875-.101562-.46875.050781-.933594.144531-1.390625.273438-.566406.128906-1.121094.320312-1.644531.570312-.765625.503906-1.527344 1.011719-2.289063 1.519531l-9.8125 9.839844c-1.617187-3.242187-3.675781-6.246094-6.117187-8.917969-1.5-1.558594-3.148438-2.972656-4.917969-4.214844l8.789062-8.792968c.214844-.269532.40625-.554688.582032-.851563.363281-.433593.675781-.90625.9375-1.40625.25-.53125.441406-1.085937.574218-1.65625.128907-.453125.21875-.914062.269532-1.382812.039062-.640625.003906-1.285157-.101563-1.921875-.046875-.417969-.125-.832032-.238281-1.234375-.214844-.679688-.511719-1.328125-.886719-1.929688-.144531-.238281-.179687-.503906-.351562-.734375-3.304688-5.078125-2.433594-11.804687 2.058593-15.871094zm-104.832031-90.0625c2.507813-6.042968 9.34375-9.023437 15.480469-6.75 2.773438 1.425782 4.738281 4.046876 5.324219 7.109376.117187.3125.253906.617187.410156.914062.058594.332031.140625.660156.246094.980469.109375.222656.308593.351562.433593.5625.300782.488281.648438.941406 1.042969 1.355469.351563.40625.738281.773437 1.160157 1.101562.429687.3125.890624.582031 1.375.804688.484374.25.996093.449218 1.527343.597656.5.121094 1.011719.195312 1.527344.21875.585937.050781 1.179687.035156 1.765625-.042969.226562.015625.453125.015625.683594 0 .3125-.117187.617187-.253906.910156-.40625.332031-.0625.65625-.144531.972656-.25 2.769532-1.449219 6.046875-1.542969 8.894532-.253906 5.597656 3.378906 7.523437 10.582031 4.359374 16.304687-2.339843 5.59375-8.398437 8.660156-14.292968 7.230469-.257813-.085937-.503906 0-.761719-.085937-.699219-.171876-1.417969-.253907-2.140625-.238282-.425781.027344-.847656.089844-1.261719.175782-.628906.109374-1.242187.292968-1.828125.539062-.429687.207031-.84375.445312-1.234375.71875-.488281.308594-.941406.667969-1.351562 1.074219-.398438.421875-.75.882812-1.046875 1.382812-.222656.257813-.429688.527344-.617188.808594l-6.046875 12.535156c-2.613281-2.527343-5.546875-4.695312-8.730469-6.449219-1.914062-.96875-3.914062-1.753906-5.972656-2.347656l5.359375-11.136718c.101563-.316407.183594-.636719.246094-.964844.433594-1.082032.585937-2.253906.445313-3.410156-.03125-.496094-.101563-.988282-.214844-1.46875-.171875-.59375-.414063-1.167969-.71875-1.707032-.183594-.386718-.398438-.757812-.636719-1.109375-.441406-.570312-.953125-1.085937-1.519531-1.527343-.207032-.164063-.316406-.394532-.539063-.546876-4.816406-3.71875-6.195312-10.394531-3.25-15.71875zm-145.648437 154.566407c-.136719-11.777344 7.03125-29.015625 48.640625-41.816407l2.714843-.851562c13.480469-3.449219 26.394532-8.820312 38.339844-15.957031 8.621094-6.140625 16.226563-13.589844 22.542969-22.085938 2.230469-2.730469 4.472656-5.453125 6.828125-8.097656 4.128906-5.472656 9.761719-9.621094 16.214844-11.945313 3.136718-.792968 6.464844-.339843 9.273437 1.269532 2.566407 1.414062 4.875 3.25 6.828125 5.4375 1.429688 1.574218 2.699219 3.292968 3.789063 5.121094.144531.332031.3125.65625.503906.972656 3.746094 6.394531 6.382813 13.375 7.804687 20.648437 2.179688 12.199219 1.316407 24.746094-2.507812 36.53125-2.238281 7.96875-4.921875 15.804688-8.027344 23.476563-8.367187.789062-16.78125.929687-25.167968.425781-41.972657-13.59375-87.5-11.148437-127.777344 6.871094zm238.53125 23.78125c-1.929688 12.234375-6.875 23.796875-14.386719 33.648437-20.144531 29.5-66.679687 76.550782-105.710937 77.285156h-.910157c-15.296875-.179687-29.472656-8.050781-37.710937-20.941406-13.507813-19.925781-20.375-43.609375-19.625-67.667968-.558594-8.78125 2.636718-17.382813 8.789062-23.671876 8.6875-8.347656 24.027344-12.570312 45.660156-12.570312 2.289063 0 4.660157.050781 7.082032.144531l2.375.09375c.773437 0 1.558594.042969 2.328125.078125h.238281.1875c10.871094.671875 21.78125.238282 32.5625-1.296875.851562-.027343 1.691406-.183593 2.492188-.460937 1.375-.273438 2.75-.417969 4.121093-.761719 10.171875-2.988281 19.820313-7.523437 28.613281-13.445313 3.011719-1.820312 6.042969-3.652343 9.140626-5.359374 16.851562-9.261719 23.234374-6.257813 27.613281-1.632813 1.960937 2.128906 3.519531 4.601563 4.589843 7.289063 3.285157 9.390624 4.160157 19.453124 2.550782 29.269531zm0 0" fill="#428dff"/><path d="m170.660156 324.246094c4.710938 0 8.53125-3.820313 8.53125-8.53125 0-54.554688 22.605469-78.78125 23.136719-79.359375 3.222656-3.359375 3.164063-8.683594-.136719-11.964844-3.300781-3.28125-8.625-3.3125-11.964844-.070313-1.152343 1.171876-28.101562 28.84375-28.101562 91.394532 0 4.710937 3.820312 8.53125 8.535156 8.53125zm0 0" fill="#428dff"/><path d="m162.125 358.382812c0 4.710938 3.820312 8.53125 8.535156 8.53125 4.710938 0 8.53125-3.820312 8.53125-8.53125v-8.535156c0-4.714844-3.820312-8.535156-8.53125-8.535156-4.714844 0-8.535156 3.820312-8.535156 8.535156zm0 0" fill="#428dff"/></svg>