<svg height="512pt" viewBox="0 0 512.31125 512" width="512pt" xmlns="http://www.w3.org/2000/svg"><path d="m144.542969 370.273438c.371093 6.417968-3.261719 12.394531-9.132813 15.015624-2.917968 1.359376-6.082031 2.113282-9.300781 2.21875-5.042969 9.449219-8.992187 19.441407-11.777344 29.78125-.601562 3.167969-2.484375 5.949219-5.203125 7.683594l-28.757812 18.003906c-2.097656 1.28125-4.730469 1.28125-6.828125 0l-9.042969-5.632812-19.714844-12.371094c-2.71875-1.734375-4.601562-4.515625-5.203125-7.683594-2.785156-10.339843-6.734375-20.332031-11.777343-29.78125 0 0-18.429688 0-18.429688-17.234374 0-17.238282 12.285156-17.324219 12.285156-17.324219v-28.585938c-.03125-4.4375 1.054688-8.808593 3.160156-12.714843 6.589844-14.300782 19.683594-24.535157 35.15625-27.476563h.085938c1.527344-.175781 3.066406-.261719 4.605469-.257813 28.84375 0 30.636719 0 40.875 9.472657.683593.683593 1.367187 1.367187 2.132812 2.046875 0 0 24.578125 0 24.578125 28.757812v28.757813s12.289063 0 12.289063 17.324219zm0 0" fill="#a4c2f7"/><path d="m119.625 370.273438c.402344 6.421874-3.242188 12.417968-9.132812 15.015624-2.917969 1.359376-6.082032 2.113282-9.300782 2.21875-5.039062 9.441407-8.960937 19.4375-11.691406 29.78125-.636719 3.179688-2.546875 5.953126-5.289062 7.683594l-19.710938 12.371094-19.714844-12.371094c-2.71875-1.734375-4.601562-4.515625-5.203125-7.683594-2.785156-10.339843-6.734375-20.332031-11.777343-29.78125 0 0-18.429688 0-18.429688-17.234374 0-17.238282 12.285156-17.324219 12.285156-17.324219v-28.585938c-.03125-4.4375 1.054688-8.808593 3.160156-12.714843 6.589844-14.300782 19.683594-24.535157 35.15625-27.476563h.085938c7.886719-.148437 15.425781 3.230469 20.5625 9.214844.683594.683593 1.453125 1.367187 2.132812 2.046875 0 0 24.578126 0 24.578126 28.757812v28.757813s12.289062 0 12.289062 17.324219zm0 0" fill="#e3e7f2"/><path d="m409.757812 162.316406c.039063 54.867188-29.25 105.570313-76.800781 132.949219h-153.601562c-58.105469-33.59375-87.671875-101.019531-73.015625-166.519531 14.652344-65.496094 70.136718-113.894532 137.015625-119.519532 4.183593-.339843 8.449219-.511718 12.800781-.511718 61.144531-.042969 116.472656 36.238281 140.800781 92.332031 8.484375 19.308594 12.84375 40.175781 12.800781 61.269531zm0 0" fill="#a4c2f7"/><path d="m384.15625 162.316406c.042969 54.867188-29.25 105.570313-76.800781 132.949219h-128c-58.105469-33.59375-87.671875-101.019531-73.015625-166.519531 14.652344-65.496094 70.136718-113.894532 137.015625-119.519532 56.316406 4.71875 105.484375 39.988282 128 91.820313 8.488281 19.308594 12.847656 40.175781 12.800781 61.269531zm0 0" fill="#e3e7f2"/><path d="m272.328125 162.316406c0 8.929688-7.242187 16.167969-16.171875 16.167969s-16.167969-7.238281-16.167969-16.167969c0-8.933594 7.238281-16.171875 16.167969-16.171875s16.171875 7.238281 16.171875 16.171875zm0 0" fill="#7fabfa"/><path d="m224.5 503.648438h-156.078125c2.121094-6.972657 4.65625-13.8125 7.597656-20.480469 1.519531-3.347657 4.097657-6.105469 7.335938-7.851563 16.664062-8.886718 33.878906-16.695312 51.542969-23.378906.144531-.019531.285156-.050781.425781-.085938 19.832031-7.582031 40.394531-13.097656 61.355469-16.46875zm0 0" fill="#7fabfa"/><path d="m443.890625 503.648438h-156.074219l19.539063-47.957032 8.277343-20.308594c39.660157 7.203126 77.914063 20.683594 113.324219 39.933594 3.238281 1.746094 5.816407 4.503906 7.339844 7.851563 2.941406 6.667969 5.476563 13.507812 7.59375 20.480469zm0 0" fill="#7fabfa"/><path d="m195.398438 503.648438h-126.976563c2.121094-6.972657 4.65625-13.8125 7.597656-20.480469 1.519531-3.347657 4.097657-6.105469 7.335938-7.851563 16.664062-8.886718 33.878906-16.695312 51.542969-23.378906.144531-.019531.285156-.050781.425781-.085938 11.730469-3.429687 23.675781-6.082031 35.753906-7.9375zm0 0" fill="#a4c2f7"/><path d="m412.0625 503.648438h-124.246094l19.539063-47.957032c33.441406 8.066406 65.707031 20.398438 96 36.691406 3.242187 1.746094 5.820312 4.503907 7.339843 7.851563.527344 1.109375.984376 2.246094 1.367188 3.414063zm0 0" fill="#a4c2f7"/><path d="m132.234375 324.210938v13.753906c-5.128906-9.164063-12.214844-17.085938-20.761719-23.195313.554688 7.074219-9.949218 13.296875-45.753906 2.015625-16.503906-5.429687-34.597656.957032-44.039062 15.539063v-7.996094c-.019532-4.421875 1.054687-8.777344 3.128906-12.679687 5.34375-10.070313 17.921875-27.742188 39.867187-27.742188 28.800781 0 30.585938 0 40.84375 9.496094l2.148438 2.015625s24.566406.015625 24.566406 28.792969zm0 0" fill="#7fabfa"/><path d="m502.941406 370.273438c.375 6.417968-3.261718 12.394531-9.132812 15.015624-2.917969 1.359376-6.082032 2.113282-9.300782 2.21875-5.042968 9.449219-8.992187 19.441407-11.773437 29.78125-.605469 3.167969-2.488281 5.949219-5.207031 7.683594l-28.757813 18.003906c-2.09375 1.28125-4.730469 1.28125-6.824219 0l-9.046874-5.632812-19.710938-12.371094c-2.71875-1.734375-4.601562-4.515625-5.207031-7.683594-2.78125-10.339843-6.734375-20.332031-11.777344-29.78125 0 0-18.429687 0-18.429687-17.234374 0-17.238282 12.289062-17.324219 12.289062-17.324219v-28.585938c-.03125-4.4375 1.054688-8.808593 3.15625-12.714843 6.589844-14.300782 19.6875-24.535157 35.15625-27.476563h.085938c1.53125-.175781 3.070312-.261719 4.609374-.257813 28.839844 0 30.546876 0 40.875 9.472657.679688.683593 1.363282 1.367187 2.132813 2.046875 0 0 24.574219 0 24.574219 28.757812v28.757813s12.289062 0 12.289062 17.324219zm0 0" fill="#a4c2f7"/><path d="m478.023438 370.273438c.40625 6.421874-3.238282 12.417968-9.128907 15.015624-2.921875 1.359376-6.085937 2.113282-9.304687 2.21875-5.039063 9.441407-8.960938 19.4375-11.6875 29.78125-.636719 3.179688-2.550782 5.953126-5.292969 7.683594l-19.710937 12.371094-19.710938-12.371094c-2.71875-1.734375-4.601562-4.515625-5.207031-7.683594-2.78125-10.339843-6.734375-20.332031-11.777344-29.78125 0 0-18.429687 0-18.429687-17.234374 0-17.238282 12.289062-17.324219 12.289062-17.324219v-28.585938c-.03125-4.4375 1.054688-8.808593 3.15625-12.714843 6.589844-14.300782 19.6875-24.535157 35.15625-27.476563h.085938c7.886718-.148437 15.425781 3.230469 20.566406 9.214844.683594.683593 1.363281 1.367187 2.132812 2.046875 0 0 24.574219 0 24.574219 28.757812v28.757813s12.289063 0 12.289063 17.324219zm0 0" fill="#e3e7f2"/><path d="m490.636719 324.210938v13.753906c-5.128907-9.164063-12.21875-17.085938-20.761719-23.195313.554688 7.074219-9.949219 13.296875-45.757812 2.015625-16.503907-5.429687-34.59375.957032-44.039063 15.539063v-7.996094c-.019531-4.417969 1.058594-8.769531 3.132813-12.671875 5.339843-10.070312 17.875-27.742188 39.859374-27.742188 28.808594 0 30.589844 0 40.847657 9.5l2.152343 2.011719s24.566407.007813 24.566407 28.785157zm0 0" fill="#7fabfa"/><path d="m350.023438 334.730469c.726562 9.328125-4.3125 18.15625-12.714844 22.273437-4.003906 2.023438-8.398438 3.160156-12.886719 3.328125-7.046875 14.054688-12.515625 28.851563-16.296875 44.117188-.78125 4.632812-3.394531 8.753906-7.253906 11.433593l-40.019532 26.625c-2.847656 1.875-6.539062 1.875-9.386718 0l-7.765625-5.207031-32.257813-21.417969c-3.855468-2.679687-6.472656-6.800781-7.253906-11.433593-3.78125-15.265625-9.246094-30.0625-16.296875-44.117188-6.832031.144531-13.429687-2.503906-18.261719-7.339843-4.835937-4.832032-7.484375-11.429688-7.339844-18.261719 0-25.601563 17.066407-25.601563 17.066407-25.601563v-42.492187c-.027344-6.511719 1.460937-12.941407 4.355469-18.773438 7.167968-14.421875 23.636718-39.339843 52.308593-40.960937 1.015625-.144532 2.042969-.199219 3.070313-.171875 40.023437 0 42.496094 0 56.746094 14.082031l2.988281 2.984375s34.132812 0 34.132812 42.667969v42.664062s17.066407 0 17.066407 25.601563zm0 0" fill="#a4c2f7"/><path d="m325.105469 332.8125c.726562 9.328125-4.3125 18.152344-12.714844 22.269531-4.003906 2.027344-8.398437 3.160157-12.882813 3.328125-7.050781 14.058594-12.519531 28.855469-16.300781 44.117188-.78125 4.632812-3.394531 8.753906-7.253906 11.433594l-32.253906 21.421874-32.257813-21.421874c-3.855468-2.679688-6.472656-6.800782-7.253906-11.433594-3.78125-15.261719-9.246094-30.058594-16.296875-44.117188-6.832031.144532-13.429687-2.503906-18.261719-7.335937-4.835937-4.832031-7.484375-11.429688-7.339844-18.261719 0-25.601562 17.066407-25.601562 17.066407-25.601562v-42.496094c-.027344-6.511719 1.460937-12.941406 4.355469-18.773438 7.167968-14.421875 23.636718-39.339844 52.308593-40.960937 19.882813.511719 23.890625 2.988281 34.898438 13.910156l2.988281 2.988281s34.132812 0 34.132812 42.664063v42.667969s17.066407 0 17.066407 25.601562zm0 0" fill="#e3e7f2"/><path d="m332.957031 269.921875v20.394531c-6.980469-13.4375-16.824219-25.179687-28.84375-34.390625.769531 10.496094-13.824219 19.710938-63.570312 2.988281-30.378907-10.15625-50.261719 7.59375-61.1875 23.039063v-11.863281c-.027344-6.511719 1.460937-12.9375 4.355469-18.773438 7.421874-14.933594 24.832031-41.128906 55.378906-41.128906 40.023437 0 42.496094 0 56.746094 14.078125l2.988281 2.988281s34.132812 0 34.132812 42.667969zm0 0" fill="#7fabfa"/><path d="m76.019531 483.167969c-2.253906 5.042969-4.199219 10.359375-6.027343 15.8125-.980469 1.363281-1.527344 2.988281-1.570313 4.667969 0 4.710937 3.824219 8.53125 8.535156 8.53125h25.601563c-4.714844 0-8.535156-3.820313-8.535156-8.53125.042968-1.679688.589843-3.304688 1.570312-4.667969 1.828125-5.453125 3.773438-10.769531 6.023438-15.8125 1.523437-3.347657 4.101562-6.105469 7.339843-7.851563 16.664063-8.886718 33.878907-16.695312 51.542969-23.378906.140625-.019531.285156-.050781.425781-.085938 12.34375-4.585937 24.9375-8.476562 37.714844-11.648437l-1.960937-4.820313c-20.960938 3.371094-41.523438 8.886719-61.355469 16.46875-.140625.035157-.28125.066407-.425781.085938-17.664063 6.683594-34.878907 14.492188-51.542969 23.378906-3.238281 1.746094-5.816407 4.503906-7.335938 7.851563zm0 0" fill="#fff"/><path d="m55.308594 285.195312c-1.371094.335938-2.722656.75-4.046875 1.238282-.851563.332031-1.707031.679687-2.558594 1.066406-1.21875.5625-2.378906 1.175781-3.507813 1.832031-.785156.472657-1.570312.921875-2.3125 1.425781-1.058593.71875-2.039062 1.46875-3.011718 2.253907-.691406.5625-1.382813 1.101562-2.03125 1.707031-.902344.851562-1.707032 1.65625-2.558594 2.515625-.589844.605469-1.195312 1.195313-1.707031 1.820313-.769531.851562-1.460938 1.703124-2.152344 2.625-.476563.617187-.988281 1.222656-1.433594 1.835937-.671875.921875-1.246093 1.808594-1.832031 2.695313-.351562.539062-.742188 1.085937-1.058594 1.605468-.855468 1.375-1.597656 2.679688-2.226562 3.875-.113282.203125-.136719.433594-.242188.640625-1.921875 3.71875-2.941406 7.84375-2.96875 12.03125v28.585938s-12.285156 0-12.285156 17.324219c0 17.320312 18.429688 17.234374 18.429688 17.234374 5.042968 9.449219 8.992187 19.441407 11.777343 29.78125.601563 3.167969 2.484375 5.949219 5.203125 7.683594l19.714844 12.371094 9.042969 5.632812c2.097656 1.28125 4.730469 1.28125 6.828125 0l9.386718-5.863281-19.371093-12.140625c-2.71875-1.734375-4.601563-4.515625-5.207031-7.683594-2.78125-10.339843-6.730469-20.332031-11.773438-29.78125 0 0-18.433594 0-18.433594-17.234374 0-17.238282 12.289063-17.324219 12.289063-17.324219v-28.585938c0-4.195312 1-8.332031 2.910156-12.066406.101563-.203125.128906-.433594.238281-.640625.632813-1.195312 1.382813-2.5 2.226563-3.875.316406-.519531.707031-1.066406 1.058593-1.601562.589844-.855469 1.160157-1.777344 1.835938-2.699219.441406-.613281.953125-1.21875 1.433594-1.832031.691406-.855469 1.382812-1.757813 2.148437-2.628907.546875-.625 1.152344-1.210937 1.707031-1.816406.855469-.855469 1.65625-1.707031 2.558594-2.519531.648438-.578125 1.339844-1.117188 2.03125-1.707032.972656-.785156 1.957032-1.535156 3.011719-2.253906.746094-.5 1.53125-.953125 2.3125-1.421875 1.128906-.660156 2.289063-1.273437 3.507813-1.835937.855468-.382813 1.707031-.734375 2.5625-1.066406 1.324218-.488282 2.671874-.898438 4.042968-1.238282.921875-.238281 1.851563-.441406 2.816406-.605468.527344-.09375 1.007813-.265626 1.554688-.332032-4.15625-.273437-9.53125-.316406-16.785156-.324218h-3.765625c-1.539063-.003907-3.078125.082031-4.605469.253906h-.085938c-.648437.078125-1.222656.292968-1.851562.402344-.964844.179687-1.894531.382812-2.816406.640624zm0 0" fill="#fff"/><path d="m204.1875 404.449219c.78125 4.632812 3.398438 8.753906 7.253906 11.433593l32.257813 21.417969 7.765625 5.207031c2.847656 1.875 6.539062 1.875 9.386718 0l8.105469-5.417968-31.914062-21.207032c-3.859375-2.679687-6.472657-6.800781-7.253907-11.433593-3.78125-15.265625-9.25-30.0625-16.296874-44.117188-6.835938.144531-13.429688-2.503906-18.265626-7.339843-4.832031-4.832032-7.480468-11.429688-7.335937-18.261719 0-.410157 0-.757813.050781-1.152344 0-.265625-.050781-.496094-.050781-.765625 0-25.601562 17.066406-25.601562 17.066406-25.601562v-3.414063c-1.5.003906-2.96875-.390625-4.265625-1.144531-24.402344-14.09375-44.699218-34.316406-58.882812-58.664063-.167969-.191406-.324219-.394531-.46875-.605469-.085938-.144531-.074219-.300781-.152344-.445312-9.230469-16.117188-15.628906-33.695312-18.917969-51.976562-.042969-.179688-.144531-.316407-.179687-.484376-.035156-.171874 0-.335937 0-.503906-3.304688-18.179687-3.304688-36.804687 0-54.980468 0-.28125-.066406-.546876 0-.855469.066406-.304688.1875-.398438.246094-.621094 3.265624-18.105469 9.617187-35.515625 18.773437-51.472656.074219-.292969.164063-.578125.273437-.855469.214844-.285156.453126-.550781.710938-.800781 9.246094-15.75 21.074219-29.835938 34.984375-41.667969.167969-.234375.347656-.460938.539063-.675781.152343-.128907.339843-.152344.503906-.273438 14.136718-11.734375 30.164062-20.984375 47.402344-27.347656.25-.179687.511718-.339844.785156-.488281.28125-.058594.566406-.101563.851562-.125 13.46875-4.84375 27.527344-7.863282 41.796875-8.980469-4.265625-.332031-8.480469-.648437-12.800781-.648437-18.609375.039062-37.070312 3.304687-54.5625 9.652343-.285156.027344-.570312.070313-.851562.128907-.273438.144531-.535157.308593-.785157.484374-17.265625 6.367188-33.320312 15.628907-47.480469 27.386719-.160156.117188-.347656.144531-.503906.273438-.191406.214843-.371094.4375-.535156.671875-13.914062 11.835937-25.738281 25.917968-34.988281 41.667968-.253907.25-.492188.519532-.707031.804688-.109376.277344-.203126.5625-.273438.851562-9.160156 15.957032-15.507812 33.367188-18.773438 51.472657-.058593.222656-.207031.394531-.25.625-.039062.230469.042969.554687 0 .851562-3.304687 18.175781-3.304687 36.800781 0 54.980469v.503906c0 .171875.136719.304688.179688.484375 3.292969 18.28125 9.691406 35.859375 18.917969 51.976563.078125.144531.070312.300781.15625.445312.144531.210938.300781.414063.46875.605469 14.183593 24.351563 34.476562 44.574219 58.878906 58.667969 1.296875.75 2.769531 1.144531 4.265625 1.140625v3.414062s-17.066406 0-17.066406 25.601563c0 .273437 0 .503906.054687.765625 0 .394531-.054687.746093-.054687 1.152343-.144532 6.835938 2.507812 13.429688 7.339844 18.265626 4.832031 4.832031 11.429687 7.480468 18.261718 7.335937 7.0625 14.035156 12.542969 28.8125 16.339844 44.058594zm0 0" fill="#fff"/><path d="m224.5 512.179688h-157.613281v-17.066407h157.613281zm0 0" fill="#fff"/><g fill="#428dff"><path d="m21.824219 395.53125c3.863281 7.441406 6.871093 15.296875 8.976562 23.414062 1.058594 5.523438 4.378907 10.355469 9.15625 13.320313l29.097657 17.921875c4.851562 2.96875 10.953124 2.96875 15.804687 0l29.132813-17.972656c4.769531-2.976563 8.078124-7.8125 9.128906-13.335938 2.113281-8.132812 5.136718-16.003906 9.011718-23.460937 2.554688-.480469 5.035157-1.289063 7.382813-2.40625 8.996094-3.902344 14.660156-12.949219 14.242187-22.75 1.316407-11.492188-5.921874-22.234375-17.066406-25.332031v-20.71875c0-26.71875-17.210937-35.21875-27.375-36.949219-11.949218-11.878907-16.835937-11.878907-43.734375-11.878907-24.890625 0-38.613281 20.375-44.578125 32.503907-2.515625 5.109375-3.8125 10.734375-3.78125 16.433593v20.609376c-11.15625 3.097656-18.394531 13.855468-17.066406 25.359374-.25 12.699219 9.074219 23.5625 21.667969 25.242188zm-.726563-34.003906h4.660156c4.710938 0 8.53125-3.824219 8.53125-8.535156v-28.671876c-.023437-3.082031.667969-6.125 2.023438-8.890624 4.214844-8.535157 13.652344-22.980469 29.269531-22.980469 24.746094 0 24.746094 0 31.753907 6.953125l1.996093 2.03125c1.597657 1.574218 3.730469 2.488281 5.972657 2.558594 3.363281.09375 14.34375 1.851562 14.34375 20.242187v28.785156c0 4.710938 3.820312 8.53125 8.535156 8.53125h4.660156c.039062 0 3.871094.238281 3.871094 8.738281.386718 3.175782-1.445313 6.203126-4.4375 7.339844-1.777344.8125-3.695313 1.289063-5.648438 1.398438-3.136718 0-6.019531 1.71875-7.507812 4.480468-5.515625 10.167969-9.785156 20.964844-12.714844 32.152344-.148438.871094-.652344 1.636719-1.390625 2.117188l-28.058594 17.269531-27.996093-17.277344c-.75-.472656-1.265626-1.238281-1.417969-2.109375-2.933594-11.199218-7.207031-22-12.722657-32.179687-1.492187-2.757813-4.375-4.480469-7.511718-4.480469-2.523438.320312-5.066406-.453125-6.988282-2.117188-1.925781-1.667968-3.050781-4.074218-3.097656-6.621093 0-5.324219 1.527344-8.515625 3.875-8.734375zm0 0"/><path d="m495.089844 344.929688v-20.71875c0-26.71875-17.210938-35.21875-27.375-36.949219-11.945313-11.878907-16.835938-11.878907-43.734375-11.878907-24.890625 0-38.613281 20.375-44.578125 32.503907-2.515625 5.109375-3.808594 10.734375-3.777344 16.433593v20.609376c-11.15625 3.097656-18.398438 13.855468-17.066406 25.359374-.265625 12.710938 9.0625 23.589844 21.664062 25.265626 3.863282 7.445312 6.875 15.300781 8.976563 23.417968 1.058593 5.523438 4.378906 10.351563 9.15625 13.320313l29.101562 17.917969c4.847657 2.972656 10.953125 2.972656 15.800781 0l29.132813-17.96875c4.769531-2.980469 8.082031-7.8125 9.132813-13.339844 2.109374-8.132813 5.132812-16 9.011718-23.457032 2.550782-.480468 5.03125-1.289062 7.378906-2.40625 9.007813-3.90625 14.671876-12.964843 14.242188-22.777343 1.316406-11.492188-5.921875-22.234375-17.066406-25.332031zm-4.4375 32.699218c-1.777344.8125-3.695313 1.289063-5.648438 1.398438-3.136718 0-6.019531 1.71875-7.507812 4.480468-5.515625 10.167969-9.785156 20.964844-12.714844 32.152344-.148438.871094-.652344 1.636719-1.390625 2.117188l-28.035156 17.269531-27.996094-17.277344c-.75-.472656-1.261719-1.238281-1.417969-2.109375-2.933594-11.199218-7.203125-22-12.722656-32.179687-1.488281-2.757813-4.371094-4.480469-7.507812-4.480469-2.527344.320312-5.070313-.453125-6.992188-2.117188-1.925781-1.667968-3.050781-4.074218-3.09375-6.621093 0-5.324219 1.527344-8.53125 3.871094-8.734375h4.660156c4.714844 0 8.535156-3.824219 8.535156-8.535156v-28.671876c-.027344-3.082031.664063-6.125 2.019532-8.890624 4.21875-8.535157 13.65625-22.980469 29.269531-22.980469 24.789062 0 24.789062 0 31.753906 6.953125l1.996094 2.03125c1.597656 1.574218 3.730469 2.488281 5.972656 2.558594 3.363281.09375 14.347656 1.851562 14.347656 20.242187v28.785156c0 4.710938 3.820313 8.53125 8.53125 8.53125h4.660157c.042968 0 3.875.238281 3.875 8.738281.367187 3.171876-1.472657 6.191407-4.464844 7.3125zm0 0"/><path d="m159.472656 495.796875c-3.179687-1.285156-6.824218-.585937-9.300781 1.792969-.769531.816406-1.378906 1.769531-1.789063 2.816406-.4375 1.023438-.671874 2.125-.683593 3.242188-.019531 3.464843 2.058593 6.601562 5.261719 7.929687 3.199218 1.328125 6.886718.589844 9.328124-1.871094l1.023438-1.28125c.324219-.472656.582031-.992187.769531-1.535156.246094-.484375.417969-1 .511719-1.535156.09375-.566407.152344-1.136719.171875-1.707031-.035156-2.257813-.917969-4.421876-2.476563-6.058594-.816406-.773438-1.769531-1.378906-2.816406-1.792969zm0 0"/><path d="m453.703125 502.375c-.011719-.417969-.054687-.839844-.128906-1.253906-2.25-7.3125-4.941407-14.480469-8.054688-21.46875-2.320312-5.074219-6.253906-9.238282-11.1875-11.84375-36.683593-19.703125-76.246093-33.5-117.230469-40.875-3.867187-.554688-7.621093 1.589844-9.105468 5.207031l-25.898438 62.972656h-51.882812l-25.898438-62.972656c-1.484375-3.617187-5.234375-5.761719-9.105468-5.207031-40.96875 7.378906-80.523438 21.171875-117.195313 40.875-4.964844 2.628906-8.917969 6.828125-11.238281 11.945312-3.101563 6.945313-5.785156 14.070313-8.039063 21.335938-1.394531 4.5 1.125 9.277344 5.625 10.671875.828125.257812 1.691407.386719 2.558594.386719h55.210937c4.710938 0 8.53125-3.820313 8.53125-8.535157 0-4.710937-3.820312-8.53125-8.53125-8.53125h-43.246093c1.101562-2.878906 2.242187-5.71875 3.414062-8.433593.753907-1.648438 2.042969-3 3.660157-3.832032 33.015624-17.664062 68.414062-30.460937 105.09375-37.988281l20.730468 50.285156h-21.421875c-4.710937 0-8.53125 3.820313-8.53125 8.535157 0 4.710937 3.820313 8.53125 8.53125 8.53125h255.0625c.867188 0 1.730469-.128907 2.5625-.382813.132813 0 .226563-.152344.363281-.195313.558594-.230468 1.089844-.515624 1.589844-.855468.4375-.246094.855469-.53125 1.246094-.851563.707031-.800781 1.347656-1.65625 1.917969-2.558593.195312-.488282.347656-.992188.453125-1.503907.175781-.554687.292968-1.125.351562-1.707031 0-.152344.082032-.273438.082032-.425781-.054688-.449219-.152344-.890625-.289063-1.324219zm-132.488281-57.511719c36.691406 7.53125 72.101562 20.332031 105.132812 37.996094 1.585938.832031 2.855469 2.164063 3.609375 3.789063 1.21875 2.730468 2.363281 5.582031 3.472657 8.464843h-132.898438zm0 0"/><path d="m415.808594 135.007812c0-.289062.066406-.554687 0-.851562-.070313-.300781-.1875-.402344-.25-.625-3.265625-18.105469-9.617188-35.515625-18.773438-51.472656-.070312-.289063-.164062-.574219-.273437-.851563-.214844-.285156-.453125-.550781-.707031-.804687-9.25-15.75-21.074219-29.832032-34.984376-41.667969-.167968-.234375-.347656-.457031-.539062-.671875-.152344-.128906-.339844-.15625-.503906-.273438-14.128906-11.742187-30.152344-20.996093-47.386719-27.367187-.25-.179687-.511719-.339844-.785156-.488281-.28125-.058594-.566407-.101563-.851563-.125-35.238281-12.871094-73.886718-12.871094-109.125 0-.285156.023437-.570312.066406-.851562.125-.273438.148437-.535156.308594-.785156.488281-17.265626 6.367187-33.324219 15.625-47.480469 27.382813-.164063.121093-.351563.144531-.503907.273437-.191406.214844-.371093.441406-.539062.675781-13.910156 11.832032-25.738281 25.917969-34.984375 41.667969-.257813.246094-.492187.515625-.710937.800781-.109376.277344-.199219.5625-.269532.851563-9.160156 15.957031-15.511718 33.367187-18.773437 51.476562-.0625.21875-.207031.390625-.25.621094s.042969.554687 0 .851563c-3.304688 18.179687-3.304688 36.804687 0 54.980468v.503906c0 .171876.136719.308594.179687.488282 3.289063 18.277344 9.6875 35.859375 18.917969 51.976562.078125.144532.070313.296875.15625.441406.140625.210938.300781.414063.46875.605469 13.355469 22.847657 32.109375 42.066407 54.621094 55.980469v.785156c-8.234375 3.523438-17.066407 12.578125-17.066407 32.195313-.675781 16.929687 11.722657 31.558593 28.535157 33.664062 5.863281 12.003907 10.390625 24.617188 13.507812 37.605469 1.179688 6.910156 5.121094 13.042969 10.914063 16.992188l40.019531 26.613281c5.707031 3.808593 13.140625 3.808593 18.84375 0l40.105469-26.648438c5.785156-3.957031 9.710937-10.097656 10.882812-17.007812 3.125-13.003907 7.667969-25.628907 13.539063-37.648438 3.835937-.65625 7.550781-1.886719 11.019531-3.652343 11.265625-5.59375 18.121094-17.355469 17.433594-29.917969 0-19.625-8.832032-28.671875-17.066406-32.195313v-.785156c22.507812-13.921875 41.261718-33.15625 54.613281-56.011719.167969-.191406.324219-.394531.46875-.605469.085937-.144531.074219-.300781.152343-.445312 9.230469-16.117188 15.628907-33.695312 18.917969-51.976562.042969-.179688.144531-.316407.179688-.484376.035156-.171874 0-.335937 0-.503906 3.304687-18.175781 3.304687-36.796875 0-54.972656zm-82.433594 212.683594c-2.792969 1.386719-5.839844 2.1875-8.953125 2.355469-3.246094-.015625-6.226563 1.8125-7.679687 4.71875-7.421876 14.765625-13.148438 30.324219-17.066407 46.378906-.351562 2.363281-1.640625 4.480469-3.574219 5.878907l-39.945312 26.652343-39.953125-26.625c-1.945313-1.386719-3.246094-3.5-3.609375-5.863281-3.914062-16.070312-9.636719-31.644531-17.066406-46.421875-1.445313-2.890625-4.402344-4.71875-7.636719-4.71875-4.609375.296875-9.125-1.40625-12.394531-4.671875-3.265625-3.265625-4.96875-7.78125-4.671875-12.394531 0-15.707031 7.3125-16.972657 8.53125-17.066407 4.714843 0 8.535156-3.820312 8.535156-8.53125v-42.496093c-.035156-5.191407 1.148437-10.320313 3.457031-14.96875 6.78125-13.59375 21.953125-36.402344 47.742188-36.402344 38.988281 0 38.988281 0 50.714844 11.578125l2.984374 2.988281c1.601563 1.597657 3.773438 2.5 6.035157 2.5 1.039062 0 25.597656.390625 25.597656 34.132813v42.667968c.03125 4.328126 3.324219 7.933594 7.628906 8.351563.230469 0 .429688.15625.667969.171875 1.457031.101562 8.773438 1.367188 8.773438 17.066406.675781 6.125-2.574219 12.015625-8.117188 14.710938zm8.117188-68.214844v-14.761718c0-37.28125-23.648438-49.304688-38.921876-50.996094l-.726562-.722656c-16.742188-16.546875-21.988281-16.546875-62.753906-16.546875-34.984375 0-54.511719 28.730469-63.019532 45.847656-3.492187 7.015625-5.289062 14.753906-5.246093 22.589844v14.589843c-14.058594-10.222656-26.164063-22.894531-35.730469-37.410156l6.316406-3.644531c2.660156-1.511719 4.308594-4.335937 4.316406-7.398437.003907-3.0625-1.628906-5.890626-4.285156-7.417969-2.65625-1.523438-5.921875-1.511719-8.566406.039062l-6.320312 3.644531c-5.007813-10.003906-8.84375-20.554687-11.429688-31.4375l7.167969-1.273437c3.105469-.417969 5.730469-2.5 6.839843-5.429687 1.109376-2.925782.527344-6.226563-1.515624-8.597657-2.046876-2.371093-5.222657-3.433593-8.285157-2.765625l-7.210937 1.261719c-1.378906-11.109375-1.378906-22.351563 0-33.464844l7.203125 1.269531c.492187.085938.992187.128907 1.496093.128907 4.40625-.027344 8.066407-3.40625 8.449219-7.796875.378907-4.390625-2.648437-8.347656-6.984375-9.132813l-7.132812-1.261719c2.585937-10.878906 6.433594-21.417968 11.460937-31.40625l6.253907 3.601563c2.640624 1.550781 5.910156 1.566406 8.566406.039063 2.65625-1.523438 4.289062-4.355469 4.28125-7.417969-.003906-3.0625-1.652344-5.886719-4.3125-7.398438l-6.308594-3.636719c6.1875-9.3125 13.421875-17.886718 21.566406-25.546874l4.605469 5.503906c1.960937 2.335937 5.015625 3.449218 8.019531 2.921875 3.003906-.527344 5.496094-2.617188 6.539063-5.484375 1.046875-2.863282.484375-6.066406-1.476563-8.402344l-4.609375-5.496094c8.949219-6.71875 18.640625-12.378906 28.886719-16.871094l2.507812 6.886719c1 2.921875 3.5 5.074219 6.539063 5.628907 3.039063.558593 6.140625-.570313 8.109375-2.949219 1.96875-2.378907 2.5-5.636719 1.386719-8.515625l-2.507813-6.886719c10.730469-3.164063 21.792969-5.066406 32.964844-5.675781v7.246094c0 4.710937 3.820312 8.53125 8.53125 8.53125 4.714844 0 8.535156-3.820313 8.535156-8.53125v-7.246094c11.171875.609375 22.230469 2.519531 32.964844 5.683594l-2.511719 6.886718c-1.109375 2.878906-.582031 6.136719 1.390625 8.515625 1.96875 2.378907 5.070313 3.507813 8.105469 2.953125 3.039063-.558594 5.539063-2.710937 6.539063-5.632812l2.507812-6.886719c10.246094 4.488281 19.933594 10.148437 28.878906 16.863281l-4.609375 5.496094c-3.027343 3.609375-2.554687 8.992188 1.058594 12.023438 3.613281 3.027343 8.996094 2.550781 12.023437-1.058594l4.609376-5.503906c8.140624 7.660156 15.375 16.234374 21.5625 25.546874l-6.304688 3.636719c-2.664062 1.511719-4.308594 4.335938-4.316406 7.398438-.007813 3.0625 1.628906 5.894531 4.28125 7.417969 2.65625 1.527343 5.925781 1.511718 8.566406-.039063l6.253906-3.601563c5.03125 9.988282 8.875 20.527344 11.460938 31.40625l-7.132813 1.261719c-4.335937.785157-7.363281 4.742188-6.980469 9.132813.378907 4.390625 4.039063 7.769531 8.449219 7.796875.5 0 1-.042969 1.492188-.128907l7.203125-1.269531c1.382812 11.113281 1.382812 22.355469 0 33.464844l-7.210938-1.261719c-3.058594-.667968-6.238281.394532-8.285156 2.765625-2.042969 2.371094-2.625 5.671875-1.515625 8.597657 1.109375 2.929687 3.734375 5.011718 6.839844 5.429687l7.167969 1.273437c-2.585938 10.882813-6.421876 21.433594-11.425782 31.4375l-6.324218-3.644531c-2.640626-1.550781-5.910157-1.5625-8.566407-.039062-2.65625 1.527343-4.289062 4.355469-4.28125 7.417969.003907 3.0625 1.652344 5.886718 4.3125 7.398437l6.324219 3.644531c-9.570312 14.511719-21.671875 27.183594-35.726562 37.410156zm0 0"/><path d="m337 153.78125h-57.75c-2.507812-6.738281-7.824219-12.050781-14.558594-14.558594v-81.996094c0-4.710937-3.820312-8.53125-8.535156-8.53125-4.710938 0-8.53125 3.820313-8.53125 8.53125v81.996094c-10.71875 3.925782-17.34375 14.691406-16.011719 26.027344s10.269531 20.277344 21.609375 21.609375c11.335938 1.332031 22.101563-5.292969 26.027344-16.011719h57.75c4.714844 0 8.535156-3.820312 8.535156-8.53125 0-4.714844-3.820312-8.535156-8.535156-8.535156zm-80.84375 16.214844c-4.207031-.023438-7.601562-3.445313-7.59375-7.652344s3.417969-7.617188 7.625-7.625c4.203125-.007812 7.625 3.390625 7.648438 7.597656 0 4.238282-3.4375 7.679688-7.679688 7.679688zm0 0"/></g></svg>