<svg height="512" viewBox="0 0 60 60" width="512" xmlns="http://www.w3.org/2000/svg"><g id="Page-1" fill="none" fill-rule="evenodd"><g id="011---Painting-Fence" fill-rule="nonzero"><path id="Shape" d="m20 23.41v34.59c0 .5522847-.4477153 1-1 1h-4c0-6-1.3-9.94-3-12.61v-23c.0011046-.2623399.1052558-.5137394.29-.7l3-3c.1877666-.1893127.4433625-.2957983.71-.2957983s.5222334.1064856.71.2957983l3 3c.1896681.1911631.294221.4507427.29.72z" fill="#e8edfc"/><path id="Shape" d="m19.71 22.71-3-3c-.1877666-.1893127-.4433625-.2957983-.71-.2957983s-.5222334.1064856-.71.2957983l-.79.79 2.21 2.21c.1847442.1862606.2888954.4376601.29.7v34.59c0 .5522847-.4477153 1-1 1h3c.5522847 0 1-.4477153 1-1v-34.59c-.0011046-.2623399-.1052558-.5137394-.29-.7z" fill="#cad9fc"/><path id="Shape" d="m34 23.41v34.59c0 .5522847-.4477153 1-1 1h-6c-.5522847 0-1-.4477153-1-1v-34.59c.0011046-.2623399.1052558-.5137394.29-.7l3-3c.0712365-.070873.1520157-.1314574.24-.18l3.47 3.47h.91c.0586689.1287602.0893446.2685051.09.41z" fill="#e8edfc"/><path id="Shape" d="m33.91 23h-.91l-3.47-3.47c-.0879843.0485426-.1687635.109127-.24.18l-1.29 1.29 2 2h.91c.0586689.1287602.0893446.2685051.09.41v34.59c0 .5522847-.4477153 1-1 1h3c.5522847 0 1-.4477153 1-1v-34.59c-.0006554-.1414949-.0313311-.2812398-.09-.41z" fill="#cad9fc"/><path id="Shape" d="m48 24.52v21.87c-1.7 2.67-3 6.66-3 12.61h-4c-.5522847 0-1-.4477153-1-1v-34.59c.0006554-.1414949.0313311-.2812398.09-.41h.91c2.4256648-.1089336 4.8379586.4148788 7 1.52z" fill="#e8edfc"/><path id="Shape" d="m41 23h-.91v.1c1.7178844.1251863 3.3904825.6089112 4.91 1.42v21.87c-1.7 2.67-3 6.66-3 12.61h3c0-6 1.3-9.94 3-12.61v-21.87c-2.1620414-1.1051212-4.5743352-1.6289336-7-1.52z" fill="#cad9fc"/><path id="Rectangle-path" d="m20 31h6v6h-6z" fill="#a4c2f7"/><path id="Rectangle-path" d="m34 31h6v6h-6z" fill="#a4c2f7"/><path id="Shape" d="m56 59h-6c-.1323706-2.7766583.4786514-5.5383395 1.77-8 1.4478505-2.6051523 4.253713-4.1574967 7.23-4-5 7-3 12-3 12z" fill="#e8edfc"/><path id="Shape" d="m59 47c-1.1552397-.0674101-2.3107585.1274555-3.38.57-4.49 6.7-2.62 11.43-2.62 11.43h3s-2-5 3-12z" fill="#cad9fc"/><path id="Rectangle-path" d="m20 47h6v6h-6z" fill="#a4c2f7"/><path id="Rectangle-path" d="m34 47h6v6h-6z" fill="#a4c2f7"/><path id="Shape" d="m4 59s2-5-3-12c2.976287-.1574967 5.78214953 1.3948477 7.23 4 1.29134863 2.4616605 1.9023706 5.2233417 1.77 8z" fill="#e8edfc"/><path id="Shape" d="m15 59h-5c.1323706-2.7766583-.47865137-5.5383395-1.77-8-.6185567-3.6153474-2.06642193-7.0381966-4.23-10 3.34715957.4876908 6.2909074 2.4710409 8 5.39 1.7 2.67 3 6.66 3 12.61z" fill="#a4c2f7"/><path id="Shape" d="m56 41c-2.1564604 2.9636535-3.5974245 6.386371-4.21 10-1.2982759 2.4597411-1.9162255 5.2215267-1.79 8h-5c0-6 1.3-9.94 3-12.61 1.7090926-2.9189591 4.6528404-4.9023092 8-5.39z" fill="#a4c2f7"/><path id="Shape" d="m52.06 42.39c-1.6612373 2.6211958-2.7799597 5.5489159-3.29 8.61-1.2913486 2.4616605-1.9023706 5.2233417-1.77 8h3c-.1323706-2.7766583.4786514-5.5383395 1.77-8 .6185567-3.6153474 2.0664219-7.0381966 4.23-10-1.3984895.1725723-2.7428101.6468376-3.94 1.39z" fill="#7facfa"/><path id="Rectangle-path" d="m33 1h8v22h-8z" fill="#a4c2f7"/><path id="Rectangle-path" d="m38 1h3v22h-3z" fill="#7facfa"/><path id="Shape" d="m33 1v22l-3.47-3.47-2.64-2.64c-1.211716-1.2121645-2.8560591-1.8922101-4.57-1.89-.6302421.0033612-1.2566999.0976667-1.86.28l-9.46 1.72c-2.76142375 0-5-2.2385763-5-5 0-2.76142375 2.23857625-5 5-5l9.46 1.72c.6033001.18233328 1.2297579.27663877 1.86.28 1.7139409.00221014 3.358284-.67783548 4.57-1.89z" fill="#e8edfc"/><path id="Shape" d="m48.25 11.25 2.46 2.46c.1847442.1862606.2888954.4376601.29.7v10.31c.0000257.390353-.2270897.7450391-.5816401.9083471-.3545504.1633081-.7717173.1053824-1.0683599-.1483471-.4108009-.3832345-.8636875-.7187061-1.35-1-2.165761-1.091299-4.5778638-1.6012865-7-1.48v-22c9 0 10 5 10 5v2.22c.0137136.47069718-.3028167.88718447-.76 1l-1.53.38c-.3377986.09368419-.6018778.35740809-.6960166.6950802-.0941389.3376721-.0045907.6999831.2360166.9549198z" fill="#e8edfc"/><path id="Shape" d="m48.71 9.57 1.53-.38c.4571833-.11281553.7737136-.52930282.76-1v-2.19s-1-5-10-5v.21c6.23.96 7 4.79 7 4.79v2.22c.0137136.47069718-.3028167.88718447-.76 1l-1.53.38c-.3498917.08802673-.6252364.35770542-.7205183.7056914-.0952819.347986.0042747.7203163.2605183.9743086l2.46 2.46c.1847442.1862606.2888954.4376601.29.7v10.08c.4863125.2812939.9391991.6167655 1.35 1 .3021186.2589867.7290406.3141993 1.0871053.1405921.3580647-.1736071.5791216-.5429912.5628947-.9405921v-10.31c-.0011046-.2623399-.1052558-.5137394-.29-.7l-2.46-2.46c-.2562436-.2539923-.3558002-.6263226-.2605183-.9743086.0952819-.34798598.3706266-.61766467.7205183-.7056914z" fill="#cad9fc"/><g fill="#fff"><path id="Shape" d="m6 12c0 2.7614237 2.23857625 5 5 5l1.46-.27c-2.0213561-.6926598-3.37916688-2.5932599-3.37916688-4.73 0-2.13674007 1.35781078-4.03734018 3.37916688-4.73l-1.46-.27c-2.76142375 0-5 2.23857625-5 5z"/><path id="Shape" d="m7 59s1.87-4.73-2.62-11.43c-1.06924147-.4425445-2.22476026-.6374101-3.38-.57 5 7 3 12 3 12z"/><path id="Shape" d="m12 23.41v19.7c1.1869087.9064366 2.2027891 2.0171325 3 3.28v-23c.0011046-.2623399.1052558-.5137394.29-.7l2.21-2.19-.79-.79c-.1877666-.1893127-.4433625-.2957983-.71-.2957983s-.5222334.1064856-.71.2957983l-3 3c-.1847442.1862606-.2888954.4376601-.29.7z"/><path id="Rectangle-path" d="m11 23.41h2v8h-2z"/></g><circle id="Oval" cx="12" cy="27.41" fill="#428dff" r="1"/><path id="Shape" d="m59.11 46c-1.9094556-.1276909-3.8076626.3784976-5.4 1.44.7517309-2.0890432 1.7881755-4.0643449 3.08-5.87.2177685-.3129231.2386648-.7224435.053879-1.0559075s-.5431005-.5328482-.923879-.5140925c-2.6461262.3458833-5.0910859 1.5966286-6.92 3.54v-14.54c0-.5522847-.4477153-1-1-1s-1 .4477153-1 1v17.13c-1.86 3-2.85 7-3 11.87h-3v-31c0-.5522847-.4477153-1-1-1s-1 .4477153-1 1v3h-4v-3c0-.5522847-.4477153-1-1-1s-1 .4477153-1 1v31h-6v-5-6-10-6-7.58l.71-.71c.3921221-.3921222.3921221-1.0278778 0-1.42-.3921222-.3921221-1.0278778-.3921221-1.42 0l-.71.71c-.3719209.3749829-.5804215.881855-.58 1.41v6.59h-4v-6.59c.0004215-.528145-.2080791-1.0350171-.58-1.41l-3-3c-.3755332-.3786253-.8867249-.5915966-1.42-.5915966s-1.0444668.2129713-1.42.5915966l-3 3c-.3719209.3749829-.5804215.881855-.58 1.41 0 .5522847.4477153 1 1 1s1-.4477153 1-1l3-3 3 3v34.59h-3c-.13-4.83-1.12-8.82-3-11.87v-14.72c0-.5522847-.4477153-1-1-1s-1 .4477153-1 1v12.13c-1.82891407-1.9433714-4.27387381-3.1941167-6.92-3.54-.38204684-.0219482-.74311831.1760588-.93.51-.18893697.3381815-.16556053.7550613.06 1.07 1.29182454 1.8056551 2.32826907 3.7809568 3.08 5.87-1.59358983-1.0595485-3.49000925-1.5687722-5.4-1.45-.35023161.0388764-.65415034.2592175-.8.58-.14875039.3270906-.11057525.708842.1 1 4.58 6.41 3 10.87 2.88 11.05-.1226369.3074452-.08519498.655655.1.93.18627044.2755788.49737392.4405011.83.44h52c.3290825-.0028029.6357191-.1673396.82-.44.1850966-.2701554.2261872-.6138215.11-.92-.07-.19-1.7-4.65 2.88-11.06.2105753-.291158.2487504-.6729094.1-1-.1458497-.3207825-.4497684-.5411236-.8-.58zm-53.84 12c.29-1.84.3-5.39-2.33-9.85 1.11494108.2491669 2.14765048.7792911 3 1.54 1.87 1.68 2.89 4.47 3.06 8.31zm3.91-7.37c-.49400359-2.817982-1.48256533-5.5263703-2.92-8 2.0289146.9026225 3.73713323 2.3981853 4.9 4.29 1.76 2.77 2.7 6.5 2.84 11.08h-3c-.0143767-2.5661416-.638169-5.0921578-1.82-7.37zm25.82-12.63h4v8h-4zm0 10h4v4h-4zm4-16v4h-4v-4zm-18 6h4v8h-4zm0 10h4v4h-4zm4-16v4h-4v-4zm-4 22h4v4h-4zm14 4v-4h4v4zm11 0c.12-4.58 1.06-8.31 2.82-11.07 1.159458-1.8946911 2.8686847-3.3911365 4.9-4.29-1.4389688 2.4729105-2.4276331 5.1815798-2.92 8-1.1733556 2.2765555-1.7902267 4.7988727-1.8 7.36zm8.71 0h-3.71c.15-3.82 1.16-6.61 3-8.29.8532755-.761407 1.8852822-1.2946105 3-1.55-2.57 4.45-2.56 8-2.27 9.84z" fill="#428dff"/><path id="Shape" d="m13 11h-2c-.5522847 0-1 .4477153-1 1s.4477153 1 1 1h2c.5522847 0 1-.4477153 1-1s-.4477153-1-1-1z" fill="#428dff"/><path id="Shape" d="m52 8.22v-2.22c.0049086-.06657631.0049086-.13342369 0-.2 0-.23-1.27-5.8-11-5.8h-8.06c-.0918651.01041629-.1823694.03052836-.27.06-.0298502-.00423982-.0601498-.00423982-.09 0-.1045997.0503079-.2021072.11419213-.29.19l-6.1 6.15c-1.4158363 1.44307443-3.5221638 1.9686901-5.45 1.36h-.1l-9.46-1.76h-.18c-3.3137085 0-6 2.6862915-6 6s2.6862915 6 6 6h.18l9.46-1.72h.1c1.9278362-.6086901 4.0341637-.0830744 5.45 1.36l6.1 6.11c.0938689.0926027.2063566.1641858.33.21.1229182.037634.2519397.0512152.38.04h8c4.31 0 6.56 1.21 7.68 2.22.3570255.3286396.8247468.5107295 1.31.51.2786039-.0023729.5539506-.0601617.81-.17.7311775-.3191063 1.202778-1.0422271 1.2-1.84v-10.31c-.0022328-.5295768-.2144122-1.0366497-.59-1.41l-2.41-2.46 1.53-.38c.8723937-.23973992 1.4751996-1.03527963 1.47-1.94zm-29.68 5.78c-.7038996.0029368-1.4039594.103907-2.08.3l-9.33 1.7c-2.209139 0-4-1.790861-4-4s1.790861-4 4-4l9.33 1.7c2.6141359.7761849 5.4432802.04967909 7.36-1.89l4.4-4.4v17.18l-4.4-4.4c-1.3962695-1.4067835-3.2979361-2.1955429-5.28-2.19zm11.68-12h6v20h-6zm16 6.22-1.53.38c-.7080193.16483121-1.2708478.70085834-1.47 1.4-.2137039.7096662-.0174407 1.4793257.51 2l2.49 2.41v10.33c-1.84-1.66-4.54-2.56-8-2.71v-20.03c6.59.3 7.84 3.55 8 4.09z" fill="#428dff"/></g></g></svg>