<svg height="504pt" viewBox="0 0 504.32481 504" width="504pt" xmlns="http://www.w3.org/2000/svg"><path d="m276.984375 333.300781c-10.773437-3.855469-22.132813-5.816406-33.574219-5.792969h-134.296875c-11.441406-.023437-22.800781 1.9375-33.574219 5.792969-40.253906 14.191407-67.171874 52.242188-67.144531 94.929688v50.359375c.027344 9.257812 7.527344 16.757812 16.785157 16.785156h302.164062c9.261719-.027344 16.757812-7.527344 16.789062-16.785156v-50.359375c.023438-42.6875-26.894531-80.738281-67.148437-94.929688zm0 0" fill="#bdc3c7"/><path d="m344.132812 428.230469v50.359375c-.03125 9.257812-7.527343 16.757812-16.789062 16.785156h-302.164062c-9.257813-.027344-16.757813-7.527344-16.785157-16.785156v-50.359375c-.027343-42.6875 26.890625-80.738281 67.144531-94.929688l41.96875-5.792969h117.507813l41.96875 5.792969c40.253906 14.191407 67.171875 52.242188 67.148437 94.929688zm0 0" fill="#cad9fc"/><path d="m320.882812 428.230469v50.359375c-.027343 9.257812-7.527343 16.757812-16.789062 16.785156h-278.914062c-9.257813-.027344-16.757813-7.527344-16.785157-16.785156v-50.359375c-.027343-42.6875 26.890625-80.738281 67.144531-94.929688l41.96875-5.792969h94.257813l41.96875 5.792969c40.253906 14.191407 67.171875 52.242188 67.148437 94.929688zm0 0" fill="#e8edfc"/><path d="m201.441406 352.6875v-70.875h-50.359375v70.875zm0 0" fill="#e8edfc"/><path d="m117.507812 327.507812v67.148438h-41.96875v-61.355469c10.773438-3.855469 22.132813-5.816406 33.574219-5.792969zm0 0" fill="#a4c2f7"/><path d="m276.984375 333.300781v61.355469h-41.96875v-67.148438h8.394531c11.441406-.023437 22.800782 1.9375 33.574219 5.792969zm0 0" fill="#a4c2f7"/><path d="m75.539062 394.65625h201.445313c4.636719 0 8.394531 3.757812 8.394531 8.390625v92.328125h-218.230468v-92.328125c0-4.632813 3.757812-8.390625 8.390624-8.390625zm0 0" fill="#a4c2f7"/><path d="m481.601562 146.03125 11.871094 11.871094c3.277344 3.277344 3.277344 8.59375 0 11.871094l-27.9375 27.9375c-3.277344 3.277343-8.59375 3.277343-11.871094 0l-11.871093-11.871094c-3.277344-3.277344-3.277344-8.59375 0-11.871094l27.9375-27.9375c3.277343-3.277344 8.59375-3.277344 11.871093 0zm0 0" fill="#a4c2f7"/><path d="m41.96875 193.210938h-8.394531c-9.261719-.027344-16.757813-7.527344-16.789063-16.785157.070313-9.242187 7.546875-16.71875 16.789063-16.785156h8.394531" fill="#cad9fc"/><path d="m310.558594 193.210938h8.390625c9.261719-.027344 16.761719-7.527344 16.789062-16.785157-.070312-9.242187-7.542969-16.71875-16.789062-16.785156h-8.390625" fill="#cad9fc"/><path d="m81.835938 48.007812c24.921874-25.273437 58.933593-39.5 94.425781-39.5 35.492187 0 69.503906 14.226563 94.425781 39.5zm0 0" fill="#a4c2f7"/><path d="m310.558594 92.492188v151.082031c.003906 2.8125-.246094 5.625-.757813 8.390625-4.058593 24.230468-25.035156 41.980468-49.605469 41.96875h-167.867187c-24.566406.011718-45.546875-17.738282-49.605469-41.96875-.507812-2.765625-.761718-5.578125-.753906-8.390625v-151.082031c0-27.816407 22.546875-50.363282 50.359375-50.363282h167.867187c27.816407 0 50.363282 22.546875 50.363282 50.363282zm0 0" fill="#cad9fc"/><path d="m287.308594 92.492188v151.082031c.003906 2.8125-.246094 5.625-.757813 8.390625-4.058593 24.230468-25.035156 41.980468-49.605469 41.96875h-144.617187c-24.566406.011718-45.546875-17.738282-49.605469-41.96875-.507812-2.765625-.761718-5.578125-.753906-8.390625v-151.082031c0-27.816407 22.546875-50.363282 50.359375-50.363282h144.617187c27.816407 0 50.363282 22.546875 50.363282 50.363282zm0 0" fill="#e8edfc"/><path d="m92.328125 126.066406h167.867187c9.273438 0 16.789063 7.515625 16.789063 16.785156v50.359376c0 9.273437-7.515625 16.789062-16.789063 16.789062h-167.867187c-9.269531 0-16.789063-7.515625-16.789063-16.789062v-50.359376c0-9.269531 7.519532-16.785156 16.789063-16.785156zm0 0" fill="#7facfa"/><path d="m92.328125 126.066406h144.617187c9.273438 0 16.789063 7.515625 16.789063 16.785156v50.359376c0 9.273437-7.515625 16.789062-16.789063 16.789062h-144.617187c-9.269531 0-16.789063-7.515625-16.789063-16.789062v-50.359376c0-9.269531 7.519532-16.785156 16.789063-16.785156zm0 0" fill="#a4c2f7"/><path d="m444.851562 302.328125v50.359375c0 4.636719-3.757812 8.394531-8.390624 8.394531-4.636719 0-8.394532 3.757813-8.394532 8.394531v117.507813c0 4.632813-3.757812 8.390625-8.394531 8.390625h-16.785156c-4.636719 0-8.394531-3.757812-8.394531-8.390625v-184.65625c0-4.636719 3.757812-8.394531 8.394531-8.394531h33.574219c4.632812 0 8.390624 3.757812 8.390624 8.394531zm0 0" fill="#a4c2f7"/><path d="m25.179688 495.375h25.179687c-9.257813-.027344-16.757813-7.527344-16.785156-16.785156v-50.359375c-.023438-42.6875 26.890625-80.738281 67.148437-94.929688 10.769532-3.855469 22.128906-5.816406 33.574219-5.792969h-25.183594c-11.441406-.023437-22.800781 1.9375-33.574219 5.792969-40.253906 14.191407-67.171874 52.242188-67.144531 94.929688v50.359375c.027344 9.257812 7.527344 16.757812 16.785157 16.785156zm0 0" fill="#fff"/><path d="m33.574219 193.210938h8.394531v50.363281c-.007812 2.8125.246094 5.625.753906 8.390625 4.058594 24.230468 25.039063 41.980468 49.605469 41.96875h25.179687c-24.566406.011718-45.542968-17.738282-49.605468-41.96875-.507813-2.765625-.761719-5.578125-.753906-8.390625v-50.363281h-8.394532c-9.257812-.027344-16.757812-7.527344-16.785156-16.785157.066406-9.242187 7.542969-16.71875 16.785156-16.785156h8.394532v-67.148437c.019531-26.203126 20.132812-48.011719 46.246093-50.152344 21.066407-18.667969 47.457031-30.257813 75.457031-33.136719-4.144531-.402344-8.34375-.644531-12.589843-.644531-32.480469.179687-63.78125 12.191406-88.046875 33.78125-26.113282 2.140625-46.226563 23.949218-46.246094 50.152344v67.148437h-8.394531c-9.242188.066406-16.71875 7.542969-16.789063 16.785156.03125 9.257813 7.527344 16.757813 16.789063 16.785157zm0 0" fill="#fff"/><path d="m151.082031 327.507812h25.179688v-33.574218h-25.179688zm0 0" fill="#fff"/><path d="m0 428.230469c.132812-40.367188 22.429688-77.394531 58.039062-96.398438 15.777344-8.234375 33.28125-12.59375 51.074219-12.71875v16.789063c-15.046875.121094-29.851562 3.808594-43.199219 10.757812-30.132812 16.085938-49 47.414063-49.128906 81.570313zm0 0" fill="#fff"/><g fill="#428dff"><path d="m109.113281 428.230469c0 4.632812-3.757812 8.390625-8.390625 8.390625-4.636718 0-8.394531-3.757813-8.394531-8.390625 0-4.636719 3.757813-8.394531 8.394531-8.394531 4.632813 0 8.390625 3.757812 8.390625 8.394531zm0 0"/><path d="m260.195312 428.230469c0 4.632812-3.757812 8.390625-8.390624 8.390625-4.636719 0-8.394532-3.757813-8.394532-8.390625 0-4.636719 3.757813-8.394531 8.394532-8.394531 4.632812 0 8.390624 3.757812 8.390624 8.394531zm0 0"/><path d="m23.777344 371.683594c.40625.390625.84375.75 1.3125 1.074218 1.867187 1.164063 4.074218 1.65625 6.257812 1.402344 1.054688-.160156 2.066406-.507812 2.988282-1.035156 2.667968-1.632812 4.207031-4.617188 3.988281-7.738281-.121094-1.078125-.429688-2.125-.914063-3.097657-.464844-.996093-1.105468-1.898437-1.898437-2.660156-1.65625-1.511718-3.855469-2.289062-6.09375-2.15625-2.375.230469-4.542969 1.449219-5.976563 3.355469-1.410156 1.882813-2.074218 4.214844-1.871094 6.558594l.402344 1.566406c.203125.539063.484375 1.042969.839844 1.496094.257812.457031.582031.875.964844 1.234375zm0 0"/><path d="m25.179688 503.769531h302.164062c13.90625 0 25.179688-11.273437 25.179688-25.179687v-50.359375c-.078126-45.894531-28.84375-86.839844-71.988282-102.476563-.273437-.117187-.554687-.214844-.839844-.292968-11.644531-4.171876-23.917968-6.320313-36.285156-6.347657h-33.574218v-16.785156h50.359374c32.433594-.039063 58.71875-26.320313 58.753907-58.753906v-41.96875c13.910156 0 25.183593-11.273438 25.183593-25.179688-.0625-13.882812-11.300781-25.121093-25.183593-25.179687v-58.753906c-.046875-26.898438-18.335938-50.332032-44.417969-56.917969-57-47.214844-139.527344-47.214844-196.53125 0-26.082031 6.578125-44.378906 30.015625-44.425781 56.917969v58.753906c-13.878907.066406-25.113281 11.300781-25.179688 25.179687 0 13.90625 11.273438 25.179688 25.179688 25.179688v41.96875c.035156 32.433593 26.320312 58.714843 58.753906 58.753906h50.359375v16.785156h-33.574219c-12.035156.136719-23.96875 2.210938-35.34375 6.144531-.671875.128907-1.328125.335938-1.957031.613282-4.71875 1.675781-9.320312 3.667968-13.773438 5.960937-2.683593 1.398438-5.210937 3.085938-7.820312 4.632813-1.980469 1.191406-3.359375 3.167968-3.800781 5.4375-.4375 2.265625.101562 4.617187 1.492187 6.460937 2.6875 3.515625 7.578125 4.464844 11.390625 2.21875 2.207031-1.292969 4.339844-2.746093 6.613281-3.921875.394532-.207031.839844-.351562 1.234376-.554687v42.488281c-5.175782 2.976562-8.375 8.484375-8.394532 14.453125v83.9375h-33.574218c-4.636719 0-8.394532-3.757813-8.394532-8.394531v-50.359375c.109375-10.285157 1.851563-20.484375 5.164063-30.21875 1.234375-4.246094-.855469-8.753907-4.894531-10.558594-2.109376-.925781-4.519532-.90625-6.617188.054687-2.09375.960938-3.679688 2.777344-4.351562 4.980469-3.929688 11.511719-5.984376 23.578125-6.085938 35.742188v50.359375c0 6.679687 2.652344 13.082031 7.375 17.804687 4.722656 4.722657 11.128906 7.375 17.804688 7.375zm310.558593-75.539062v50.359375c0 4.636718-3.757812 8.394531-8.394531 8.394531h-33.574219v-83.9375c-.015625-5.96875-3.214843-11.476563-8.390625-14.453125v-42.503906c30.871094 15.757812 50.320313 47.476562 50.359375 82.140625zm-67.148437-88.753907v46.785157h-25.179688v-50.359375c8.519532.019531 16.992188 1.222656 25.179688 3.574218zm56.335937-168.875c1.566407 1.53125 2.441407 3.632813 2.417969 5.824219 0 4.636719-3.757812 8.394531-8.394531 8.394531v-16.789062c2.261719-.007812 4.425781.921875 5.976562 2.570312zm-82.867187-136.863281h-131.542969c40.992187-22.382812 90.550781-22.382812 131.542969 0zm-216.878906 142.6875c-.007813-2.261719.921874-4.425781 2.570312-5.976562 1.53125-1.5625 3.632812-2.4375 5.824219-2.417969v16.789062c-4.636719 0-8.394531-3.757812-8.394531-8.394531zm26.019531 75.539063h99.882812c4.636719 0 8.394531-3.757813 8.394531-8.390625 0-4.636719-3.757812-8.394531-8.394531-8.394531h-100.722656v-142.6875c.027344-23.167969 18.800781-41.941407 41.96875-41.96875h167.867187c23.167969.027343 41.941407 18.800781 41.96875 41.96875v142.6875h-109.113281c-4.636719 0-8.394531 3.757812-8.394531 8.394531 0 4.632812 3.757812 8.390625 8.394531 8.390625h108.273438c-4.015625 19.527344-21.191407 33.550781-41.128907 33.574218h-167.867187c-19.933594-.023437-37.113281-14.046874-41.128906-33.574218zm99.882812 109.117187c4.636719 0 8.394531-3.757812 8.394531-8.394531v-50.359375h33.574219v50.359375c0 4.636719 3.757813 8.394531 8.390625 8.394531 4.636719 0 8.394532-3.757812 8.394532-8.394531v-16.785156h16.785156v50.359375h-100.71875v-50.359375h16.785156v16.785156c0 4.636719 3.757812 8.394531 8.394531 8.394531zm-41.96875-25.179687v50.359375h-25.179687v-46.625c8.1875-2.371094 16.65625-3.625 25.179687-3.734375zm-33.574219 67.144531h201.445313v83.9375h-201.445313zm0 0"/><path d="m285.378906 193.210938v-50.359376c0-13.90625-11.277344-25.179687-25.183594-25.179687h-167.867187c-13.90625 0-25.179687 11.273437-25.179687 25.179687v50.359376c0 13.910156 11.273437 25.183593 25.179687 25.183593h167.867187c13.90625 0 25.183594-11.273437 25.183594-25.183593zm-201.445312 0v-50.359376c0-4.636718 3.757812-8.394531 8.394531-8.394531h19.992187l-10.71875 21.429688c-2.070312 4.148437-.386718 9.191406 3.761719 11.265625 4.148438 2.070312 9.191407.386718 11.261719-3.761719l14.464844-28.933594h23.199218l-19.113281 38.214844c-2.070312 4.152344-.386719 9.195313 3.761719 11.265625 4.148438 2.074219 9.191406.390625 11.261719-3.761719l22.855469-45.71875h87.140624c4.636719 0 8.394532 3.757813 8.394532 8.394531v50.359376c0 4.636718-3.757813 8.394531-8.394532 8.394531h-167.867187c-4.636719 0-8.394531-3.757813-8.394531-8.394531zm0 0"/><path d="m487.542969 140.097656c-6.558594-6.550781-17.183594-6.550781-23.738281 0l-27.941407 27.933594c-6.3125 6.269531-6.585937 16.390625-.621093 22.992188l-20.078126 20.007812c-7.839843 7.894531-12.253906 18.5625-12.277343 29.6875v44.820312c-9.273438 0-16.789063 7.515626-16.789063 16.789063v184.65625c0 9.269531 7.515625 16.785156 16.789063 16.785156h16.785156c9.269531 0 16.789063-7.515625 16.789063-16.785156v-117.507813c9.269531 0 16.785156-7.515624 16.785156-16.789062v-.359375c4.007812 5.277344 10.164062 8.492187 16.785156 8.753906 4.636719 0 8.394531-3.757812 8.394531-8.394531s-3.757812-8.394531-8.394531-8.394531c-4.910156 0-13.125-16.996094-16.785156-34.527344v-7.4375c0-9.273437-7.515625-16.789063-16.785156-16.789063h-16.789063v-44.820312c.011719-6.671875 2.652344-13.074219 7.351563-17.808594l20.019531-19.953125.6875.6875c3.148437 3.152344 7.421875 4.921875 11.875 4.921875s8.722656-1.769531 11.871093-4.921875l27.933594-27.941406c6.554688-6.554687 6.554688-17.179687 0-23.734375zm-51.082031 212.589844c-9.273438 0-16.789063 7.515625-16.789063 16.789062v117.507813h-16.785156v-184.65625h33.574219zm23.148437-160.902344-6.582031-6.578125-.125-.128906-5.164063-5.167969 27.941407-27.933594 11.863281 11.859376zm0 0"/></g></svg>