<svg height="512" viewBox="0 0 60 60" width="512" xmlns="http://www.w3.org/2000/svg"><g id="Page-1" fill="none" fill-rule="evenodd"><g id="004---Book-Stack" fill-rule="nonzero" transform="translate(-1)"><path id="Shape" d="m60 57c-.0081672 1.1011688-.8988312 1.9918328-2 2h-45.69c-5.32501409.06779-9.80437605-3.9758363-10.28-9.28-.19991146-2.7693387.76056309-5.4971265 2.65146594-7.5302738 1.89090285-2.0331472 4.5419894-3.1886027 7.31853406-3.1897262h46c1.1032019.0032948 1.9967052.8967981 2 2-.0081672 1.1011688-.8988312 1.9918328-2 2h-46c-3.2494364.0056802-5.9065153 2.5919037-6 5.84.02641344 3.4262669 2.82371036 6.1832828 6.25 6.16h45.75c1.1032019.0032948 1.9967052.8967981 2 2z" fill="#a4c2f7"/><path id="Shape" d="m57 41c-.0081672 1.1011688-.8988312 1.9918328-2 2h3c1.1011688-.0081672 1.9918328-.8988312 2-2-.0032948-1.1032019-.8967981-1.9967052-2-2h-3c1.1032019.0032948 1.9967052.8967981 2 2z" fill="#7facfa"/><path id="Shape" d="m58 55h-3c1.1032019.0032948 1.9967052.8967981 2 2-.0081672 1.1011688-.8988312 1.9918328-2 2h3c1.1011688-.0081672 1.9918328-.8988312 2-2-.0032948-1.1032019-.8967981-1.9967052-2-2z" fill="#7facfa"/><path id="Shape" d="m55 49c-.0235975 2.0628844.3887326 4.1074967 1.21 6h-43.96c-3.42628964.0232828-6.22358656-2.7337331-6.25-6.16.0934847-3.2480963 2.7505636-5.8343198 6-5.84h44.21c-.8212674 1.8925033-1.2335975 3.9371156-1.21 6z" fill="#e8edfc"/><path id="Shape" d="m56.21 43h-3c-1.6133371 3.8373215-1.6133371 8.1626785 0 12h3c-1.6133371-3.8373215-1.6133371-8.1626785 0-12z" fill="#cad9fc"/><path id="Shape" d="m59.97 29.72c-.475624 5.3041637-4.9549859 9.34779-10.28 9.28h-45.69c-1.1045695 0-2-.8954305-2-2s.8954305-2 2-2h45.75c3.4262896.0232828 6.2235866-2.7337331 6.25-6.16-.0934847-3.2480963-2.7505636-5.8343198-6-5.84h-46c-1.10320187-.0032948-1.9967052-.8967981-2-2-.00282307-.5305905.2101411-1.0395388.59-1.41.3704612-.3798589.87940947-.5928231 1.41-.59h46c2.7765447.0011235 5.4276312 1.156579 7.3185341 3.1897262 1.8909028 2.0331473 2.8513774 4.7609351 2.6514659 7.5302738z" fill="#a4c2f7"/><path id="Shape" d="m57.07 21.93c-1.8729903-1.8783897-4.4173726-2.9328508-7.07-2.93h-3c2.7765447.0011235 5.4276312 1.156579 7.3185341 3.1897262 1.8909028 2.0331473 2.8513774 4.7609351 2.6514659 7.5302738-.475624 5.3041637-4.9549859 9.34779-10.28 9.28h3c5.3250141.06779 9.804376-3.9758363 10.28-9.28.2167646-2.8954895-.8425858-5.7411239-2.9-7.79z" fill="#7facfa"/><path id="Shape" d="m56 28.84c-.0264134 3.4262669-2.8237104 6.1832828-6.25 6.16h-43.96c.82126739-1.8925033 1.23359754-3.9371156 1.21-6 .02359754-2.0628844-.38873261-4.1074967-1.21-6h44.21c3.2494364.0056802 5.9065153 2.5919037 6 5.84z" fill="#e8edfc"/><path id="Shape" d="m9 1h3v18h-3c-3.86599325 0-7-3.1340068-7-7v-4c0-3.86599325 3.13400675-7 7-7z" fill="#e8edfc"/><path id="Rectangle-path" d="m12 1h5v18h-5z" fill="#a4c2f7"/><path id="Shape" d="m54 5.56v8.88l-6.75 4.4c-.0781926.0499292-.162135.0902215-.25.12v-17.92c.087865.02977846.1718074.07007081.25.12z" fill="#e8edfc"/><path id="Shape" d="m46.7 1c.1010686.00347651.2015513.01687419.3.04v17.92c-.0984487.0231258-.1989314.0365235-.3.04h-29.7v-18z" fill="#e8edfc"/><path id="Shape" d="m59.57 10.82-5.57 3.62v-8.88l5.57 3.62c.2679657.18704124.4276365.49321251.4276365.82 0 .3267875-.1596708.6329588-.4276365.82z" fill="#a4c2f7"/><path id="Shape" d="m59.57 9.18-5.57-3.62v1.95l2.57 1.67c.2679657.18704124.4276365.49321251.4276365.82 0 .3267875-.1596708.6329588-.4276365.82l-2.57 1.67v1.95l5.57-3.62c.2679657-.1870412.4276365-.4932125.4276365-.82 0-.32678749-.1596708-.63295876-.4276365-.82z" fill="#7facfa"/><path id="Shape" d="m15 39h-3c-2.77654466.0011235-5.42763121 1.156579-7.31853406 3.1897262-1.89090285 2.0331473-2.8513774 4.7609351-2.65146594 7.5302738.47562395 5.3041637 4.95498591 9.34779 10.28 9.28h3c-5.32501409.06779-9.80437605-3.9758363-10.28-9.28-.19991146-2.7693387.76056309-5.4971265 2.65146594-7.5302738 1.89090285-2.0331472 4.54198936-3.1886027 7.31853406-3.1897262z" fill="#fff"/><path id="Shape" d="m9 19h3c-3.86599325 0-7-3.1340068-7-7v-4c0-3.86599325 3.13400675-7 7-7h-3c-3.86599325 0-7 3.13400675-7 7v4c0 3.8659932 3.13400675 7 7 7z" fill="#fff"/><path id="Shape" d="m4 35c-1.1045695 0-2 .8954305-2 2s.8954305 2 2 2h3c-1.1045695 0-2-.8954305-2-2s.8954305-2 2-2h1.79c1.6135632-3.8372759 1.6135632-8.1627241 0-12h-1.79c-1.1045695 0-2-.8954305-2-2s.8954305-2 2-2h-3c-1.1045695 0-2 .8954305-2 2s.8954305 2 2 2h1.79c1.6135632 3.8372759 1.6135632 8.1627241 0 12z" fill="#fff"/><path id="Shape" d="m6.276 55.832-1.269 1.545c-2.31460995-1.874385-3.75404548-4.620129-3.979-7.59l2-.139c.18492152 2.4206458 1.35997124 4.657871 3.248 6.184z" fill="#fff"/><g fill="#428dff"><path id="Shape" d="m3.133 54.554c-.55228473.0027614-1.00223852-.4427153-1.00499994-.995-.00276143-.5522847.44271521-1.0022385.99499994-1.005h.01c.55228475 0 1 .4477153 1 1s-.44771525 1-1 1z"/><path id="Shape" d="m12 48h24c.5522847 0 1-.4477153 1-1s-.4477153-1-1-1h-24c-.5522847 0-1 .4477153-1 1s.4477153 1 1 1z"/><path id="Shape" d="m50 46h-10c-.5522847 0-1 .4477153-1 1s.4477153 1 1 1h10c.5522847 0 1-.4477153 1-1s-.4477153-1-1-1z"/><path id="Shape" d="m50 50h-24c-.5522847 0-1 .4477153-1 1s.4477153 1 1 1h24c.5522847 0 1-.4477153 1-1s-.4477153-1-1-1z"/><path id="Shape" d="m22 50h-10c-.5522847 0-1 .4477153-1 1s.4477153 1 1 1h10c.5522847 0 1-.4477153 1-1s-.4477153-1-1-1z"/><path id="Shape" d="m26 28h24c.5522847 0 1-.4477153 1-1s-.4477153-1-1-1h-24c-.5522847 0-1 .4477153-1 1s.4477153 1 1 1z"/><path id="Shape" d="m12 28h10c.5522847 0 1-.4477153 1-1s-.4477153-1-1-1h-10c-.5522847 0-1 .4477153-1 1s.4477153 1 1 1z"/><path id="Shape" d="m12 32h24c.5522847 0 1-.4477153 1-1s-.4477153-1-1-1h-24c-.5522847 0-1 .4477153-1 1s.4477153 1 1 1z"/><path id="Shape" d="m50 30h-10c-.5522847 0-1 .4477153-1 1s.4477153 1 1 1h10c.5522847 0 1-.4477153 1-1s-.4477153-1-1-1z"/><path id="Shape" d="m61 10c-.0024253-.66588673-.3336689-1.28757663-.885-1.661l-12.321-8.016c-.3377261-.18380924-.710597-.29389817-1.094-.323h-37.7c-4.41622192.00495988-7.99504012 3.58377808-8 8v4c.00112278 2.3126185 1.00594542 4.5108961 2.754 6.025-1.60537616.1245527-2.82426761 1.4972788-2.75802927 3.1061164.06623833 1.6088377 1.39384773 2.8767204 3.00402927 2.8688836h1.1c.60510354 1.5970899.91021486 3.2921528.9 5 .01021486 1.7078472-.29489646 3.4029101-.9 5h-1.1c-1.65685425 0-3 1.3431458-3 3s1.34314575 3 3 3h1.69c-.5230289.3650243-1.01382352.7741871-1.467 1.223-2.25672719 2.256844-3.42406558 5.3812982-3.2 8.565.03865994.5522847.51771525.9686599 1.07.93.55228474-.0386599.96865992-.5177153.93-1.07-.17997018-2.4930985.68498889-4.9487468 2.38768185-6.7787103 1.70269295-1.8299634 4.08973231-2.8693892 6.58931815-2.8692897h46c.5522847 0 1 .4477153 1 1s-.4477153 1-1 1h-46c-3.79446656.003478-6.89714114 3.0259262-7 6.819-.03882166 1.8496814.67714291 3.6354407 1.983 4.946 1.38547888 1.4215424 3.2839891 2.2268509 5.269 2.235h45.748c.5522847 0 1 .4477153 1 1s-.4477153 1-1 1h-45.689c-2.2009643-.0090374-4.33183879-.7748811-6.035-2.169-.41961611-.3125924-1.0050282-.2700169-1.375.1-.19477118.1972858-.29485375.4690738-.27454355.7455607.02031019.2764869.15903418.5307326.38054355.6974393 2.06090069 1.6880641 4.64002584 2.6153345 7.304 2.626h45.689c1.6568542 0 3-1.3431458 3-3s-1.3431458-3-3-3h-1.1c-1.1945687-3.2263088-1.1945687-6.7736912 0-10h1.1c1.6568542 0 3-1.3431458 3-3s-1.3431458-3-3-3h-1.835c2.7785761-1.8538716 4.5512774-4.8816219 4.808-8.212.2152557-2.9858794-.797304-5.9302893-2.8034895-8.1522323-2.0061855-2.2219429-4.8322295-3.5289635-7.8245105-3.6187677l9.794-6.373c.5392646-.3736185.8610057-.9879535.861-1.644zm-6.243 44h-42.5c-1.4452592-.0077256-2.82691648-.5953352-3.835-1.631-.92976396-.9246521-1.44314833-2.1878954-1.422-3.499.07570557-2.7082448 2.2907008-4.8656501 5-4.87h42.757c-1.0093364 3.2569263-1.0093364 6.7430737 0 10zm-41.757-36v-16h3v16zm5-3h7c.5522847 0 1-.4477153 1-1s-.4477153-1-1-1h-7v-6h16c.5522847 0 1-.44771525 1-1s-.4477153-1-1-1h-16v-3h28v3h-7c-.5522847 0-1 .44771525-1 1s.4477153 1 1 1h7v6h-16c-.5522847 0-1 .4477153-1 1s.4477153 1 1 1h16v3h-28zm30-12.16 5 3.24v7.82l-5 3.253zm-45 9.16v-4c.00330738-3.31233757 2.68766243-5.99669262 6-6h2v16h-2c-3.31233757-.0033074-5.99669262-2.6876624-6-6zm4.243 12h42.757c2.7092992.0043499 4.9242944 2.1617552 5 4.87.0230044 1.3105723-.4881838 2.5741026-1.416 3.5-1.0084931 1.0355437-2.3905391 1.6228051-3.836 1.63h-42.505c.51039814-1.6172555.76579232-3.3041391.757-5 .00879232-1.6958609-.24660186-3.3827445-.757-5zm51.735 5.648c-.4379761 4.7836777-4.4858425 8.4232277-9.289 8.352h-45.689c-.55228475 0-1-.4477153-1-1s.44771525-1 1-1h45.748c1.9843162-.0086848 3.8820067-.8139512 5.267-2.235 1.3065898-1.3102256 2.0232932-3.0960266 1.985-4.946-.1028589-3.7930738-3.2055334-6.815522-7-6.819h-46c-.55228475 0-1-.4477153-1-1s.44771525-1 1-1h46c2.4997597-.0003773 4.8870645 1.0389275 6.5899776 2.8689236 1.7029131 1.8299962 2.5680051 4.2858044 2.3880224 6.7790764zm-3.978-17.048v-5.224l4.024 2.608z"/><path id="Shape" d="m6 8c-.55228475 0-1-.44771525-1-1-.02347369-.80261558.28505273-1.5793921.85283031-2.14716969.56777759-.56777758 1.34455411-.876304 2.14716969-.85283031.55228474-.00276141 1.00223856.44271526 1.00499998.995s-.44271524 1.00223856-.99499998 1.005c-.2739117-.02884366-.54630073.06682243-.74202295.26060682-.19572223.19378438-.29409386.46520804-.26797705.73939318 0 .55228475-.44771525 1-1 1z"/></g></g></g></svg>