<svg height="512" viewBox="0 0 60 60" width="512" xmlns="http://www.w3.org/2000/svg"><g id="016---Male-And-Female-Parents" fill="none"><g id="Icons" transform="translate(1 1)"><path id="Shape" d="m55.22 33.87-1.71-.18c1.7645986-.7236308 2.7714467-2.5938191 2.4039664-4.4652912-.3674802-1.8714721-2.0067583-3.22207-3.9139664-3.2247088v-9.42c-.0123956-2.0548594-.9042509-4.0060205-2.45-5.36-1.6246947-1.44376971-3.7265489-2.23463686-5.9-2.22h-1.3c-1.1184125-.00138191-2.2273069.20547607-3.27.61-2.2589855.8238552-4.0164604 2.6365966-4.77 4.92-.2049678.6640546-.3094571 1.3550324-.31 2.05v9.42c-1.4777186-.0003001-2.835174.8142933-3.5301364 2.1183944s-.6141579 2.8851509.2101364 4.1116056c-.5462378-.1560506-1.1119197-.2334951-1.68-.23-1.4899709-.0569982-2.9325026.5294856-3.96 1.61l-5.04-.61v-4.3c1.7-1.89 1.4-3.56 1.35-5.45 1.1831821-.5270444 2.0928922-1.5237387 2.51-2.75.1884489-.927115.1610763-1.8851571-.08-2.8v-.01c.3702833-1.8089004.266944-3.6827849-.3-5.44-.69-2.24-3.03-3.3-5.08-3.8-1.1339053-.27339295-2.2938858-.42425745-3.46-.45-4.19 0-5.45 1.71-5.81 2.48-.08358878.2035-.2713913.3453101-.49.37-2.68.26-2.95 3.99-2.41 6.81v.01c-.25295051.9230067-.28379155 1.8927859-.09 2.83.41511881 1.2241626 1.3208223 2.2204364 2.5 2.75-.04 1.89-.34 3.56 1.36 5.45v4.3l-7.22.87c-1.58988008.1805538-2.78836075 1.5299224-2.78 3.13v18.95c.00747072 1.1368877.93309338 2.0535671 2.07 2.05h53.86c1.1369066.0035671 2.0625293-.9131123 2.07-2.05v-18.95c.0083607-1.6000776-1.1901199-2.9494462-2.78-3.13z" fill="#e8edfc"/><path id="Shape" d="m56 30c.0037849 1.6237967-.9827846 3.0858213-2.49 3.69l-7.42.09v-3.34c.33-.44-.11005-1.92.16-2.44.82-1.56 2.29-3.93 2.56-4.78.1294226-.3935885.193603-.8056944.19-1.22 1.51-.84 3-1.51 3-2.69v6.69c2.2069287.005327 3.994673 1.7930713 4 4z" fill="#cad9fc"/><g fill="#e8edfc"><path id="Shape" d="m53 30c.0037849 1.6237967-.9827846 3.0858213-2.49 3.69l-4.42.05v-3.3c.33-.44-.11005-1.92.16-2.44.82-1.56 2.29-3.93 2.56-4.78.1294226-.3935885.193603-.8056944.19-1.22v4c2.2069287.005327 3.994673 1.7930713 4 4z"/><path id="Shape" d="m39.91 30.44v3.34l-6.92-.14c-.6212736-.6788631-1.4222206-1.1677528-2.31-1.41-.8207222-1.227096-.8996482-2.8062505-.2053709-4.109066.6942773-1.3028156 2.049112-2.1179114 3.5253709-2.120934v-6.69c0 1.18 1.3 1.85 2.81 2.69-.003603.4143056.0605774.8264115.19 1.22.5284325 1.9717561 1.1967941 3.9033212 2 5.78.2632839.5041698.5676462.985798.91 1.44z"/><path id="Shape" d="m40 5.94c.0296991 1.28389139-.2881768 2.55193983-.92 3.67-2.2589855.8238552-4.0164604 2.6365966-4.77 4.92-1.58 1.38-3.65 3.1-4.67 3.94-.3660057.3078738-.8991916.3120721-1.27.01-.31-.25-.7-.58-1.15-.95-.98-.82-2.2-1.84-3.25-2.76-.0671622-.8558746-.2315542-1.7013194-.49-2.52-.63-2.04-2.63-3.1-4.53-3.66-.19-.05-.37-.1-.55-.14-.02-.06-.04-.13-.06-.2-.2358053-.74693928-.3505893-1.52679485-.34-2.31 0-3.96 2.44-5.94 5.7-5.94.3788182.00128755.756843.03474107 1.13.1.9066034.16626245 1.7603276.54683831 2.49 1.11.6926822.52677686 1.2653601 1.19490117 1.68 1.96 1.049413-1.95079702 3.0848536-3.1682209 5.3-3.17.4394621-.00113577.878058.03904096 1.31.12 2.58.47 4.39 2.41 4.39 5.82z"/></g><path id="Shape" d="m37.67 4.94c.0297041 1.28389195-.2881721 2.55194169-.92 3.67-2.2589855.82385521-4.0164604 2.6365966-4.77 4.92-1.58 1.38-3.65 3.1-4.67 3.94-.0275772.0234153-.0577793.04355-.09.06-.98-.82-2.2-1.84-3.25-2.76-.0671622-.8558746-.2315542-1.7013194-.49-2.52-.63-2.04-2.63-3.1-4.53-3.66-.2-.12-.4-.23-.61-.34-.2358053-.74693928-.3505893-1.52679485-.34-2.31 0-3.96 2.44-5.94 5.7-5.94.3788182.00128755.756843.03474107 1.13.1.7609568.54311591 1.3898453 1.25061554 1.84 2.07.1863015-.33954159.4039135-.66093778.65-.96.6926822.52677686 1.2653601 1.19490117 1.68 1.96 1.049413-1.95079702 3.0848536-3.1682209 5.3-3.17.4394621-.00113577.878058.03904096 1.31.12 1.4237763 1.18045344 2.1908009 2.97514218 2.06 4.82z" fill="#fff"/><path id="Shape" d="m23.86 20.5c-.4171078 1.2262613-1.3268179 2.2229556-2.51 2.75.05 1.89.35 3.56-1.35 5.45-.0370916.049083-.0771673.0958379-.12.14-1.95 2.08-1.95 4.16-3.91 4.16h-1.95c-.1679007-.0002772-.3353692-.0170241-.5-.05-1.47-.34-1.63-2.23-3.4-4.11-.0428327-.0441621-.0829084-.090917-.12-.14-1.7-1.89-1.4-3.56-1.36-5.45-1.1791777-.5295636-2.08488119-1.5258374-2.5-2.75-.19379155-.9372141-.16295051-1.9069933.09-2.83v-.01c.08219207-.1984968.24631295-.3516763.45-.42.48864934-.1263845 1.0070845-.062027 1.45.18-.01-.22-.01-.45-.01-.71-.01874463-.7375325.39041507-1.4194653 1.05-1.75 1.8563834-.7184478 3.8412687-1.04529 5.83-.96 1.5120305-.0290529 3.021402.1390285 4.49.5.4540687.120331.8986149.2740838 1.33.46.6650114.3260069 1.0790882 1.0096243 1.06 1.75 0 .14 0 .27-.01.39.01.11 0 .22 0 .32.01 0 .01-.01.02-.01.4383062-.2345474.9489207-.2952498 1.43-.17.2126704.0740536.3812908.2390083.46.45v.01c.2410763.9148429.2684489 1.872885.08 2.8z" fill="#cad9fc"/><path id="Shape" d="m21.89 17.41c-.000607.5931483-.0507816 1.1852086-.15 1.77-.4603383 1.357764-1.4686926 2.4604249-2.78 3.04.06 2.09.39 3.94-1.49005 6.03-.0404166.0524377-.0838009.1025195-.12994.15-1.98 2.11005-2.14 4.21-3.82 4.55-1.47-.34-1.63-2.23-3.4-4.11-.0428361-.0441618-.0829151-.0909167-.12001-.14-1.7-1.89-1.4-3.56-1.36-5.45-1.1791777-.5295636-2.08488119-1.5258374-2.5-2.75-.19379155-.9372141-.16295051-1.9069933.09-2.83v-.01c.08219207-.1984968.24631295-.3516763.45-.42.48864934-.1263845 1.0070845-.062027 1.45.18-.01-.22-.01-.45-.01-.71-.01874463-.7375325.39041507-1.4194653 1.05-1.75 1.8563834-.7184478 3.8412687-1.04529 5.83-.96 1.5120305-.0290529 3.021402.1390285 4.49.5.0402582.1636066.0604071.3315135.06.5 0 .28 0 .54-.01.78.4875142-.2707236 1.0608466-.3423902 1.6-.2.2340416.0854932.4198895.267697.51.5v.01c.1347037.3203098.2092802.6626838.22 1.01.01.1.02.21.02.31z" fill="#e8edfc"/><path id="Shape" d="m23.78 17.69c-.0787092-.2109917-.2473296-.3759464-.46-.45-.4885577-.1277814-1.0075149-.0633592-1.45.18.01-.22.01-.45.01-.71.0152288-.673692-.3271313-1.3051561-.9-1.66-.05-.03-.1-.06-.16-.09-1.852508-.7198723-3.8344346-1.046788-5.82-.96-.54 0-1.04.02-1.5.05-1.4857135.0455315-2.9516483.3536148-4.33.91-.65958493.3305347-1.06874463 1.0124675-1.05 1.75 0 .26 0 .49005.01.71-.4429155-.242027-.96135066-.3063845-1.45-.18-.20368705.0683237-.36780793.2215032-.45.42-.16954036-.8591994-.24332418-1.7345438-.22-2.61.05-2.1.74-4.02 2.63-4.2.2186087-.0246899.40641122-.1665.49-.37.31-.66 1.29-2.03 4.25-2.38.5168564-.07142204 1.0382547-.10484501 1.56-.1 1.1661142.02574255 2.3260947.17660705 3.46.45 2.05.5 4.39 1.56 5.08 3.8.566944 1.7572151.6702833 3.6310996.3 5.44z" fill="#cad9fc"/><path id="Shape" d="m20.98 15.05c-.05-.03-.1-.06-.16-.09-1.852508-.7198723-3.8344346-1.046788-5.82-.96-.54 0-1.04.02-1.5.05-.46-.03-.96-.05-1.5-.05-3.04 0-4 2.56-5 3-.06.03-.94-1.98-.99-1.95.05-2.1.74-4.02 2.63-4.2.2186087-.0246899.40641122-.1665.49-.37.31-.66 1.29-2.03 4.25-2.38.6802643.07235593 1.3550474.18927379 2.02.35 2.05.5 4.39 1.56 5.08 3.8.2584458.8186806.4228378 1.6641254.49 2.52.0083285.093088.0116666.1865551.01.28z" fill="#e8edfc"/><path id="Shape" d="m52 19.31c-.0704504 1.5335858-.9189266 2.9250868-2.25 3.69.003603.4143056-.0605774.8264115-.19 1.22-.4366272 1.3773279-.9885813 2.7153986-1.65 4-.2632803.5041719-.5676427.9858004-.91 1.44-.8754127 1.3820544-2.3662738 2.2542081-4 2.34-.5790869-.0005054-1.1515526-.1231767-1.68-.36-.9280932-.4535491-1.7262306-1.1347181-2.32-1.98-.3423573-.4541996-.6467197-.9358281-.91-1.44-.6614187-1.2846014-1.2133728-2.6226721-1.65-4-.1294226-.3935885-.193603-.8056944-.19-1.22-1.3310734-.7649132-2.1795496-2.1564142-2.25-3.69-.052185-.4538556.1376243-.9018057.5-1.18.6412245-.358026 1.4312173-.3152185 2.03.11.54-.43 2.14-1.88 3.7-3.22 1.596298-1.3599228 3.943702-1.3599228 5.54 0 1.56 1.34 3.16 2.79 3.7 3.22.1347426-.1001498.2828478-.1809345.44-.24.5235657-.1908479 1.1043884-.1433593 1.59.13.3623757.2781943.552185.7261444.5 1.18z" fill="#cad9fc"/><path id="Shape" d="m49.91 18c-.3093491 1.4724316-1.2288644 2.7444883-2.53 3.5.0058124.4830565-.0720021.9634762-.23 1.42-.5063721 1.6083112-1.1486895 3.1706143-1.92 4.67-.3087261.5869334-.6631531 1.1486667-1.06 1.68-.7204459 1.0311285-1.7047779 1.8496783-2.85 2.37-.9280932-.4535491-1.7262306-1.1347181-2.32-1.98-.3423573-.4541996-.6467197-.9358281-.91-1.44-.6614187-1.2846014-1.2133728-2.6226721-1.65-4-.1294226-.3935885-.193603-.8056944-.19-1.22-1.3310734-.7649132-2.1795496-2.1564142-2.25-3.69-.052185-.4538556.1376243-.9018057.5-1.18.6412245-.358026 1.4312173-.3152185 2.03.11.54-.43 2.14-1.88 3.7-3.22 1.596298-1.3599228 3.943702-1.3599228 5.54 0 1.56 1.34 3.16 2.79 3.7 3.22.1347426-.1001498.2828478-.1809345.44-.24z" fill="#e8edfc"/><path id="Shape" d="m52 16.58v2.73c.052185-.4538556-.1376243-.9018057-.5-1.18-.6412245-.358026-1.4312173-.3152185-2.03.11-.11-.09-.27-.22-.47-.39-.73-.64-2-1.77-3.23-2.83-.7732397-.6575898-1.7549517-1.0190866-2.77-1.02-.5128925.0010671-1.021262.0959627-1.5.28-.4639763.1691687-.8940484.4197619-1.27.74-1.56 1.34-3.16 2.79-3.7 3.22-.5987827-.4252185-1.3887755-.468026-2.03-.11-.3623757.2781943-.552185.7261444-.5 1.18v-2.73c.0005429-.6949676.1050322-1.3859454.31-2.05.7535396-2.2834034 2.5110145-4.0961448 4.77-4.92.7733551-.29974136 1.5843078-.49154344 2.41-.57h.01c.2824151-.02851075.5661555-.04186324.85-.04h1.3c2.1734511-.01463686 4.2753053.77623029 5.9 2.22 1.5457491 1.3539795 2.4376044 3.3051406 2.45 5.36z" fill="#cad9fc"/><path id="Shape" d="m49 16.58v1.27c-.73-.64-2-1.77-3.23-2.83-.7732397-.6575898-1.7549517-1.0190866-2.77-1.02-.5128925.0010671-1.021262.0959627-1.5.28-.47-.18.02.72-.5.72-1.02 0-3.24 2.35-4 3-1.23 1.06-2.27-.79-3-.15v-1.27c.0005429-.6949676.1050322-1.3859454.31-2.05.7535396-2.2834034 2.5110145-4.0961448 4.77-4.92.7733551-.29974136 1.5843078-.49154344 2.41-.57h.01c1.8749396.16083152 3.6470414.92581804 5.05 2.18 1.5457491 1.3539795 2.4376044 3.3051406 2.45 5.36z" fill="#e8edfc"/><path id="Shape" d="m47 29.66v3.34s0 4-4 4-4-4-4-4v-3.34c.8754127 1.3820544 2.3662738 2.2542081 4 2.34 1.6337262-.0857919 3.1245873-.9579456 4-2.34z" fill="#cad9fc"/><path id="Shape" d="m58 37v18.95c-.0074707 1.1368877-.9330934 2.0535671-2.07 2.05h-18.93c.5516009-.0016474.9983526-.4483991 1-1v-1.57c.0029905-1.706257-.6734936-3.3434908-1.8800014-4.5499986s-2.8437416-1.8829919-4.5499986-1.8800014h-.57v-2.49c.5582165-.813324 1.1660357-1.5914662 1.82-2.33.1641917-.1447495.3057639-.3132878.42-.5.4408871-.6930375.6925712-1.4894626.73-2.31.091926.0203892.185841.0304515.28.03.96 0 1.75-1.05 1.75-2.33 0-1.29-.79-2.34-1.75-2.34-.0286559-.9038957-.3129822-1.7811465-.82-2.53-.1362744-.194603-.2831635-.3815528-.44-.56l3.04-.32 2.97-.32s0 2.92 2.5 3.77c.4831974.1617611.9905345.2395528 1.5.23 1.0171798.0488539 2.0112191-.3137261 2.7580638-1.0060154s1.183641-1.6560254 1.2119362-2.6739846c.0171607-.1058737.0271833-.2127815.03-.32l6.51.69 1.71.18c1.5898801.1805538 2.7883607 1.5299224 2.78 3.13z" fill="#cad9fc"/><path id="Shape" d="m55 37v18.95c-.0074707 1.1368877-.9330934 2.0535671-2.07 2.05h-18.93c.5516009-.0016474.9983526-.4483991 1-1v-1.57c.0082262-2.6736401-1.6468478-5.0705064-4.15-6.01l.15-.42v-2.49c.5582165-.813324 1.1660357-1.5914662 1.82-2.33.1641917-.1447495.3057639-.3132878.42-.5.4408871-.6930375.6925712-1.4894626.73-2.31.091926.0203892.185841.0304515.28.03.96 0 1.75-1.05 1.75-2.33 0-1.29-.79-2.34-1.75-2.34-.0286559-.9038957-.3129822-1.7811465-.82-2.53-.1362744-.194603-.2831635-.3815528-.44-.56l6.01-.32c.09.94995-.31 3.68 3 3.68.58 0-.92-.08-.5-.23.4831974.1617611.9905345.2395528 1.5.23 1.0171798.0488539 2.0112191-.3137261 2.7580638-1.0060154s1.183641-1.6560254 1.2119362-2.6739846l3.54.37 1.71.18c1.5898801.1805538 2.7883607 1.5299224 2.78 3.13z" fill="#e8edfc"/><path id="Shape" d="m31 46.51v2.49c0 1.1045695-.8954305 2-2 2s-2-.8954305-2-2v-2.49c.3053545.3303165.7405905.5095313 1.19.49h1.62c.4494985.02004.8849404-.1592597 1.19-.49z" fill="#cad9fc"/><path id="Shape" d="m20 28.7v4.3s0 4-5 4-5-4-5-4v-4.3c.0370916.049083.0771673.0958379.12.14 1.95 2.08 1.95 4.16 3.9 4.16h1.95c1.96 0 1.96-2.08 3.91-4.16.0428327-.0441621.0829084-.090917.12-.14z" fill="#cad9fc"/><path id="Shape" d="m38 55.43v1.57c-.0016474.5516009-.4483991.9983526-1 1h-16c-.5516009-.0016474-.9983526-.4483991-1-1v-1.57c-.0003477-2.631729 1.6045562-4.9974763 4.05-5.97.7558416-.3067448 1.5642918-.4629998 2.38-.46h.57c.01137 1.0998255.9001745 1.98863 2 2 .9268479-.0036934 1.7316023-.6392431 1.95-1.54.0319771-.1512803.0487273-.3053822.05-.46h.57c1.706257-.0029905 3.3434908.6734936 4.5499986 1.8800014s1.8829919 2.8437416 1.8800014 4.5499986z" fill="#cad9fc"/><path id="Shape" d="m35 55.43v1.57c-.0016474.5516009-.4483991.9983526-1 1h-13c-.5516009-.0016474-.9983526-.4483991-1-1v-1.57c-.0003477-2.631729 1.6045562-4.9974763 4.05-5.97.21.88 2.01-.46 2.95-.46.6 0 .14 1.73.5 1.31.3753123.4379255.9232522.6899778 1.5.69.9268479-.0036934 1.7316023-.6392431 1.95-1.54.8135216.3186165 1.5523358.8020802 2.17 1.42 1.2035142 1.2085044 1.8794619 2.8444418 1.88 4.55z" fill="#e8edfc"/><path id="Shape" d="m36 39.07c0 1.28-.79 2.33-1.75 2.33-.094159.0004515-.188074-.0096108-.28-.03-.0374288.8205374-.2891129 1.6169625-.73 2.31-.1142361.1867122-.2558083.3552505-.42.5-.6539643.7385338-1.2617835 1.516676-1.82 2.33-.3050596.3307403-.7405015.51004-1.19.49h-1.62c-.4494095.0195313-.8846455-.1596835-1.19-.49-.1483229-.1576905-.2821933-.3283752-.4-.51-.3957957-.6633645-.8728135-1.2747535-1.42-1.82-.7154062-.7636587-1.1247541-1.7638914-1.15-2.81-.091926.0203892-.185841.0304515-.28.03-.97 0-1.75-1.05-1.75-2.33 0-1.29.78-2.34 1.75-2.34.0286559-.9038957.3129822-1.7811465.82-2.53.1429972-.207178.3000322-.404307.47-.59 1.0274974-1.0805144 2.4700291-1.6669982 3.96-1.61.5680803-.0034951 1.1337622.0739494 1.68.23.7806726.2142431 1.4955819.6198166 2.08 1.18.09.08.16.16.23.23.1568365.1784472.3037256.365397.44.56.0828194.1174403.1563747.241147.22.37.3679026.6624605.5735243 1.4026987.6 2.16.2158203-.0014262.4286997.0500769.62.15.7465617.4704959 1.179173 1.3089195 1.13 2.19z" fill="#cad9fc"/><path id="Shape" d="m34.87 36.88v.13c0 1.45-.9 2.63995-1.99 2.63995-.1040779.0004216-.2079343-.009629-.31-.03-.0444426.9305937-.3304988 1.8335661-.83 2.62-.1315129.2093129-.2932633.3980218-.48.56-.7406815.8364856-1.4286737 1.7181842-2.06 2.64-.3435559.3792386-.8388815.584707-1.35.56h-1.25c-.3957957-.6633645-.8728135-1.2747535-1.42-1.82-.7154062-.7636587-1.1247541-1.7638914-1.15-2.81-.091926.0203892-.185841.0304515-.28.03-.97.00005-1.75-1.04995-1.75-2.32995 0-1.29.78-2.34 1.75-2.34.0286559-.9038957.3129822-1.7811465.82-2.53.1429972-.207178.3000322-.404307.47-.59 1.0274974-1.0805144 2.4700291-1.6669982 3.96-1.61.5680803-.0034951 1.1337622.0739494 1.68.23.7806726.2142431 1.4955819.6198166 2.08 1.18.0700643.3121397.1102456.6302422.12.95.2701768.0045954.5348992.0767924.77.21.7710953.5141829 1.2300818 1.3832474 1.22 2.31z" fill="#e8edfc"/><path id="Shape" d="m2.07 58h3c-1.13690662.0035671-2.06252928-.9131123-2.07-2.05v-18.95c-.00836075-1.6000776 1.19011992-2.9494462 2.78-3.13l7.22-.87v-4.3c-1.7-1.89-1.4-3.56-1.36-5.45-1.1791777-.5295636-2.08488119-1.5258374-2.5-2.75-.19379155-.9372141-.16295051-1.9069933.09-2.83v-.01c-.07532-.39331-.13269-.80487-.17212-1.22168-.00421-.04535-.00738-.08972-.01117-.13519-.08873452-.9183567-.04610913-1.8446734.12659-2.751l.00732-.03479c.08811759-.4338068.23514643-.8535253.437-1.24749.0163-.03089.03412-.0597.05115-.08979.08204499-.1452343.17562959-.2836399.27985-.41388.022-.02746.04211-.05694.06494-.08337.1197055-.1391684.254457-.2646501.40179-.37415.0304-.02246.06476-.03948.09626-.06048.1237146-.0818844.2550394-.1516441.39215-.20831.05066-.02106.10119-.042.15423-.05988.1883369-.0656348.3836355-.1092582.582-.13.2186087-.0246899.4064112-.1665.49-.37.0417945-.0874069.0879561-.1726578.13831-.25543l.019-.03211c.0637474-.1021866.1332355-.20067792.20813-.295l.02881-.03558c.0939046-.11600212.1950815-.22592335.30292-.3291l.011-.00995c.2891934-.26956073.6135-.49878975.96411-.68146l.02441-.01318c.7925076-.39457258 1.6497439-.64281765 2.53046-.73279-.84329-.09301-1.41714-.09539-1.41714-.09539-.27972 0-.54425.00873-.79846.02319-.022.00135-.04266.00379-.06451.00525-1.1277503.03410814-2.2354909.30667153-3.25031.79975l-.02441.01318c-.35061.18267025-.6749166.41189927-.96411.68146l-.011.00995c-.10783848.10317665-.20901544.21309788-.30292.3291l-.02881.03558c-.07489448.09432208-.14438259.1928134-.20813.295l-.019.03211c-.05036412.0827716-.09653571.1680225-.13834.25543-.08358878.2035-.2713913.3453101-.49.37-.19836454.0207418-.39366311.0643652-.582.13-.053.01788-.10357.03882-.15423.05988-.1371106.0566659-.26843542.1264256-.39215.20831-.0315.021-.06586.038-.09626.06048-.14733299.1094999-.28208452.2349816-.40179.37415-.02283.02643-.043.05591-.06494.08337-.10422041.1302401-.19780501.2686457-.27985.41388-.017.03009-.03485.0589-.05115.08979-.20185357.3939647-.34888241.8136832-.437 1.24749l-.00732.03479c-.17269913.9063266-.21532452 1.8326433-.12659 2.751.00379.04547.007.08984.01117.13519.03943.41681.0968.82837.17212 1.22168v.01c-.25295051.9230067-.28379155 1.8927859-.09 2.83.41511881 1.2241626 1.3208223 2.2204364 2.5 2.75-.04001 1.88999-.34001 3.55999 1.35999 5.44999v4.3l-7.22.87c-1.58988008.1805538-2.78836075 1.5299224-2.78 3.13v18.95c.00747072 1.1368877.93309338 2.0535671 2.07 2.05z" fill="#fff"/></g><path id="Rectangle-path" d="m0 38h2v8h-2z" fill="#fff"/><g fill="#428dff"><circle id="Oval" cx="1" cy="42" r="1"/><path id="Shape" d="m56.97986 34.00891c.661008-.8638549 1.0194801-1.9211709 1.02014-3.00891-.0032621-2.3747856-1.6738425-4.4207997-4-4.89893v-8.52246c-.0107022-2.3363815-1.0204709-4.5565581-2.77441-6.10009-1.8086387-1.61600393-4.1547567-2.49971663-6.58008-2.47852h-1.291c-.5399424.00260892-1.0788181.04824338-1.61151.13647.1754938-.7188536.2618098-1.45658039.257-2.19653 0-4.21582-2.62988-6.93994-6.7002-6.93994-2.0348802-.00345876-3.9701213.88054162-5.2998 2.4209-1.3296787-1.54035838-3.2649198-2.42435876-5.2998-2.4209-4.07032 0-6.7002 2.72412-6.7002 6.93994.0010248.41448476.029591.82844336.08551 1.23914-.710308-.1068219-1.4268921-.16664525-2.14508-.17908-4.36816 0-6.01758 1.73438-6.62988 2.88428-.89163681.1348019-1.69267524.6196865-2.22555 1.34717-1.4364 1.9129-1.10309 5.0343-.888 6.31414-.25445781 1.0441692-.26704459 2.132666-.0368 3.18244.40966296 1.2995699 1.28875729 2.3999245 2.4658 3.08642l-.00293.06348c-.25069003 1.8406946.24509271 3.7052062 1.37693 5.17828v3.05719l-6.32617.7626c-2.099957.2311163-3.68590546 2.0113977-3.67383 4.124 0 .5522847.44771525 1 1 1s1-.4477153 1-1c-.00884692-1.0945232.81233755-2.0180409 1.90039-2.13721l6.24841-.753c.44806 1.73621 1.99945 3.89021 5.8512 3.89021 3.85144 0 5.40289-2.15363 5.85107-3.88983l2.46466.29828c-.2289362.4780587-.3916663.9850822-.4837 1.50708-1.1848522.5899642-1.9050944 1.8283123-1.83203 3.1499-.10063 1.4471065.7809804 2.7821252 2.15137 3.25781.1629054.9824236.6322036 1.8882065 1.34082 2.58789.4165467.4056609.7807077.8618398 1.084 1.35791.13275.2013.27014.40918.42383.6081v1.14459c-3.925453.2282962-6.9936803 3.4749191-7 7.407v1.57127h-13.00002v-15c0-.5522847-.44771525-1-1-1s-1 .4477153-1 1v15h-1.92969c-.58514986.004914-1.06390261-.4646646-1.07031-1.0498l-.00006-.0002h.00006v-10.95c0-.5522847-.44771525-1-1-1s-1 .4477153-1 1v10.95h.00006l-.00006.0002c.00746225 1.6892691 1.38102885 3.0536601 3.07031 3.0498h53.85938c1.6892812.0038601 3.0628477-1.3605309 3.07031-3.0498v-18.9502c.0070715-1.8587315-1.229439-3.49277-3.02014-3.99109zm-.97986-3.00891c.00285 1.1342952-.6442331 2.1699849-1.66492 2.66479l-5.33508-.56479v-2.12887c.2924467-.4109179.5579756-.8403431.79492-1.28558.6892866-1.3356114 1.2639433-2.7273285 1.71778-4.16016.0999727-.3113434.1683507-.6319596.2041-.957.10119-.072.189-.1543.2832-.23181v4.66342c0 .5522847.4477153 1 1 1s1-.4477153 1-1v-.81573c1.1951857.4209912 1.9961017 1.5485729 2 2.81573zm-21.65314 2.5968c-.5785729-.5320751-1.2583734-.9421844-1.99886-1.20587-.4078821-.7673386-.4598219-1.6746688-.1421694-2.4835404.3176524-.8088716.9731296-1.4383916 1.7941694-1.7231196v.81573c0 .5522847.4477153 1 1 1s1-.4477153 1-1v-4.66345c.09418.07751.182.15979.2832.23181.035639.3240251.1036896.6436584.20313.9541.4541219 1.4339624 1.0291011 2.8268054 1.71875 4.16354.2369266.4451798.5024564.8745363.79492 1.28537v2.12977zm-8.6524-.03595-3.69446-.44708v-3.05951c1.1310078-1.4736008 1.6257404-3.3383068 1.374-5.17877-.001-.02051-.002-.04053-.002-.061 1.1768826-.686899 2.0556441-1.7876148 2.46484-3.0874l.00879-.04492c.2236259-1.0324899.2101684-2.1022524-.03936-3.12879.038-.227.06451-.44964.09033-.67163 1.1004.9325 2.1701 1.82044 2.83185 2.36683.7393423.6089875 1.8067516.60796 2.54492-.00245.53991-.44592 1.60071-1.32556 2.72656-2.27728v8.13226c-1.3072788.2511127-2.4574673 1.0201707-3.1890354 2.1323054-.731568 1.1121347-.9823434 2.4728314-.6953046 3.7726946-.03905-.00062-.07622-.00611-.11559-.00611-1.5802098-.0385187-3.1171164.5186427-4.30554 1.56085zm16.18445-16.78106c1.2351843-1.0058647 3.0069957-1.0058647 4.24218 0 .72266.6206 1.45411 1.2666 2.083 1.82226.74219.65625 1.34766 1.18994 1.64356 1.42334.3593207.2696789.8518558.2758024 1.21777.01514.2536986-.1851317.5869494-.2206912.874-.09326.0932323.3185188.0857298.65807-.02148.97216-.2376316.926722-.8342512 1.7207996-1.6582 2.207-.3165487.1767903-.5126849.5109988-.51267.87357.0017766.3114225-.045347.6211935-.13965.918-.4178716 1.3212513-.9471034 2.6046619-1.582 3.83642-.77933 1.48093-2.10942 3.24558-4.02542 3.24558s-3.24609-1.76465-4.02539-3.24512c-.6352648-1.2328961-1.164829-2.5174455-1.583-3.83984-.0937211-.2959013-.1405149-.6046566-.13868-.91504-.0000021-.3625668-.1961491-.6967627-.5127-.87354-.8239488-.4862004-1.4205684-1.280278-1.6582-2.207-.0460037-.1818457-.073487-.3678801-.08203-.55526v-.362c.1333988-.0759363.2839886-.1165268.43748-.11792.1706712.0004046.3375672.050266.48049.14355.3631162.2829787.8723754.281972 1.23437-.00244.2959-.2334.90137-.76709 1.64356-1.42334.6289-.55566 1.36035-1.20166 2.08301-1.82226zm-.87891 16.23492c1.784267 1.3137435 4.2157593 1.3137192 6.0000012-.00006l-.0000012.98c.0014774 1.6568542-1.3404708 3.0011976-2.997325 3.002675s-3.0011976-1.3404708-3.002675-2.997325zm3.64551-22.01471c1.9285789-.0208478 3.7956354.6781667 5.23633 1.96045 1.3335509 1.165971 2.1044854 2.8468161 2.11816 4.61816v.355c-.4674777-.0743592-.9460186-.0341448-1.39453.11719-.291-.252-.66113-.57959-1.07715-.94726-.63574-.56153-1.374-1.21436-2.10449-1.84131-1.9924636-1.6274463-4.8551964-1.6274463-6.84766 0-.73047.627-1.46875 1.27978-2.10449 1.84131-.416.36767-.78613.69482-1.07715.94726-.4484943-.1514198-.9270592-.1916225-1.39453-.11715v-.355c0-3.62748 3.29883-6.57865 7.35449-6.57865zm-24.64551-4.06006c0-3.13916 1.71289-4.93994 4.7002-4.93994 1.8401641.0076664 3.5305188 1.01559611 4.4121 2.63086.1894882.30855408.5256069.49657855.8877.49657855s.6982118-.18802447.8877-.49657855c.8815812-1.61526389 2.5719359-2.6231936 4.4121-2.63086 2.98731 0 4.7002 1.80078 4.7002 4.93994.018361 1.00484063-.2058273 1.99929488-.65356 2.89906-2.2667899.9536376-4.0377306 2.8030281-4.89228 5.109-1.61456 1.402-3.63568 3.08-4.45221 3.75854-.91864-.75836-2.62249-2.17425-4.09716-3.44983-.0832091-.7800919-.2399969-1.5505679-.46827-2.30114-.75775-2.45757-3.06252-3.69587-5.21289-4.32038-.1460928-.55332112-.2212387-1.1229724-.22363-1.69525zm-11.31641 6.49219c.24390048-.3439423.63001158-.5594251 1.05079-.58643.5693882-.0592603 1.0643834-.4166523 1.2998-.93847.27051-.57323 1.29199-1.90723 4.90527-1.90723.06446 0 6.50879.05371 7.58594 3.54492.3814234 1.1726881.5331397 2.4079244.44684 3.63806-.04706-.00335-.08582-.00854-.13727-.01159-.1537471-.9285785-.7534019-1.7225832-1.60449-2.12451-1.9838785-.7708137-4.1046195-1.1270959-6.23147-1.04688-2.1300976-.08026-4.254.2775465-6.24023 1.05127-.84715608.4023056-1.44335358 1.1942578-1.5957 2.11963h-.00975c-.03815 0-.074.01465-.11194.01623-.20733685-1.2882468.01852847-2.6088806.64221-3.755zm-.56543 7.88916v.00049c-.14584376-.7073051-.15611553-1.4358645-.03027-2.147.20606636-.0052501.40997158.0430352.5918.14014.31773928.158447.69566413.1365614.99298938-.0575041s.46947532-.531216.45232062-.8858559c-.00977-.20654-.00977-.42285-.00977-.65869-.0184807-.3460817.1629623-.6721465.4668-.83887 1.726249-.6610883 3.5704027-.958633 5.41697-.874 1.8433151-.0843697 3.6842632.2116513 5.40821.86963.308287.1654383.4935022.4938469.47558.84326 0 .23584 0 .45215-.00976.65869-.0171547.3546399.1549954.6917904.4523206.8858559.2973253.1940655.6752501.2159511.9929894.0575041.1811547-.0988286.3855741-.1470665.5918-.13965.1251678.6995399.1165523 1.41647-.02539 2.1128-.3711159.92114-1.0843502 1.662893-1.99024 2.06982-.3397056.1751767-.5500051.5285109-.542.91064.00488.23145.01465.45948.02344.68506.0625 1.61524.1084 2.78272-1.22461 4.2041-.6722871.7424582-1.2532463 1.5627513-1.73047 2.44336-.66794 1.15186-.86618 1.39893-1.44821 1.39893h-1.94825c-.582 0-.77929-.24707-1.44726-1.39844-.4774219-.8807835-1.0583619-1.7013751-1.73047-2.44433-1.333-1.42041-1.28711-2.58741-1.22461-4.20215.00879-.22608.01758-.45459.02246-.687.0078657-.3819696-.2024199-.7350942-.542-.91016-.8996635-.3971173-1.61076834-1.1269496-1.98437-2.03663zm7.88184 15.67871c-3.834 0-3.99414-2.70068-4-3v-1.13422c.64081 1.08936 1.36853 2.13422 3.02441 2.13422h1.94825c1.65844 0 2.386-1.04694 3.02734-2.13794v1.13794c0 .12256-.0459 3-4 3zm10.02734 5.29688c-.0349305-.2918235-.1921969-.555066-.43261-.72413-.1820706-.1296473-.4004964-.1983569-.624-.19629-.0741793-.0002833-.1481731.0074279-.2207.023-.34668 0-.75-.58252-.75-1.334 0-.751.40332-1.3335.75-1.3335.5372626.0000799.9784894-.424549.999-.96142.026806-.7261988.2579988-1.4300926.667-2.03076.8135051-1.1605739 2.1688645-1.8185111 3.58397-1.73978 1.4250289-.0772439 2.7880878.5904206 3.60059 1.76367.3999033.5951075.6252033 1.2902918.65039 2.00684.0205106.536871.4617374.9614999.999.96142.30566 0 .75.51953.75 1.3335 0 .81006-.43945 1.32861-.81252 1.32861l-.00584-.00049c-.2829583-.0597056-.5779427.0044446-.81055.17627-.2315942.173426-.3768733.4385331-.39843.72706-.0165355.7933633-.3109786 1.5557622-.832 2.15429-.5313273.5122269-.9968262 1.0886016-1.38576 1.71583-.51269.77637-.60351.833-.9414.833h-1.627c-.33789 0-.42871-.05664-.9414-.833-.3901886-.6290131-.8573408-1.2068805-1.39063-1.72021-.5182852-.598072-.8109046-1.3586787-.82711-2.14991zm2.97266 6.68817c.06342.00372.11963.01495.18652.01495h1.627c.06689 0 .1231-.01123.18652-.01495v1.01495c0 .5522847-.4477153 1-1 1s-1-.4477153-1-1zm-7 9.01495v-1.57129c.0049557-2.9014519 2.2895618-5.2866305 5.18811-5.4165.421558 1.1913813 1.5481556 1.9877911 2.81192 1.9877911s2.390362-.7964098 2.81192-1.9877911c2.8985473.1298506 5.1831467 2.5150498 5.18805 5.4165v1.57129zm36-1.0498c-.0064074.5851354-.4851601 1.054714-1.07031 1.0498h-1.92969v-15c0-.5522847-.4477153-1-1-1s-1 .4477153-1 1v.5c0 1.37842-1.39844 2.5-3.11816 2.5-.8139832.0125684-1.6068816-.2590417-2.24219-.76807-.4245965-.3532689-1.055181-.2954465-1.40845.12915-.3532689.4245965-.2954465 1.0551811.12915 1.40845 1.9152562 1.5333925 4.6048189 1.6441321 6.63965.27338v10.95709h-13v-1.57129c-.0063197-3.9320809-3.074547-7.1787038-7-7.407v-1.14457c.15369-.19892.29108-.4068.42383-.6081.2125847-.3350247.4474053-.6554107.70288-.959 2.0140325 2.0646744 5.2667367 2.262255 7.51587.45654.4233815-.3548871.4789071-.9857985.12402-1.40918-.3548872-.4233814-.9857985-.4789071-1.40918-.12402-.6331937.5092676-1.4248381.7805278-2.2373.76662-1.0659894.0333403-2.0824284-.4503133-2.72895-1.29852.2119468-.4387794.3660473-.9032121.45844-1.38166 1.3576071-.4898914 2.232147-1.8134159 2.15039-3.25439.0577511-1.3155812-.6579397-2.5437434-1.831-3.14209-.0892059-.5050835-.2446396-.9961952-.46228-1.46063l3.415-.36377c.3928038 2.354424 2.4951082 4.0355935 4.87828 3.90106 2.3832632.1345632 4.4856392-1.5467179 4.87836-3.90125l7.23492.76551c1.0827933.1241802 1.897042 1.045898 1.88672 2.13574z"/></g></g></svg>