<svg height="512pt" viewBox="0 0 512 512.0284" width="512pt" xmlns="http://www.w3.org/2000/svg"><path d="m503.480469 136.5625v332.800781c-.027344 9.414063-7.652344 17.039063-17.066407 17.066407h-180.652343c-4.546875 0-8.90625 1.8125-12.117188 5.035156l-6.996093 6.996094c-3.210938 3.21875-7.570313 5.03125-12.117188 5.035156h-37.035156c-4.546875-.003906-8.90625-1.816406-12.117188-5.035156l-6.996094-6.996094c-3.210937-3.222656-7.570312-5.035156-12.117187-5.035156h-180.652344c-9.414062-.027344-17.039062-7.652344-17.066406-17.066407v-332.800781c.027344-9.414062 7.652344-17.039062 17.066406-17.066406h460.800781c9.414063.027344 17.039063 7.652344 17.066407 17.066406zm0 0" fill="#7facfa"/><path d="m477.882812 136.5625v332.800781c-.03125 9.414063-7.65625 17.039063-17.070312 17.066407h-180.648438c-4.546874 0-8.90625 1.8125-12.117187 5.035156l-6.996094 6.996094c-3.210937 3.21875-7.570312 5.03125-12.121093 5.035156h-11.433594c-4.546875-.003906-8.90625-1.816406-12.117188-5.035156l-6.996094-6.996094c-3.210937-3.222656-7.570312-5.035156-12.117187-5.035156h-180.652344c-9.414062-.027344-17.039062-7.652344-17.066406-17.066407v-332.800781c.027344-9.414062 7.652344-17.039062 17.066406-17.066406h435.199219c9.414062.027344 17.039062 7.652344 17.070312 17.066406zm0 0" fill="#a4c2f7"/><path d="m361.570312 72.050781h4.011719c21.9375-.003906 43.835938 1.878907 65.449219 5.632813 13.824219 2.386718 25.089844 4.691406 31.660156 6.140625 3.914063.871093 6.683594 4.355469 6.65625 8.363281v349.441406c.03125 2.574219-1.109375 5.023438-3.105468 6.648438-1.992188 1.628906-4.621094 2.261718-7.132813 1.714844-37.464844-7.9375-166.230469-31.914063-196.609375 7.847656-1.570312 1.980468-3.960938 3.136718-6.484375 3.136718-2.527344 0-4.917969-1.15625-6.488281-3.136718-30.378906-39.761719-159.144532-15.785156-196.605469-7.847656-2.515625.546874-5.144531-.085938-7.136719-1.714844-1.996094-1.625-3.136718-4.074219-3.105468-6.648438v-349.441406c-.027344-4.007812 2.746093-7.492188 6.65625-8.363281 6.570312-1.449219 17.835937-3.753907 31.660156-6.140625 21.613281-3.753906 43.511718-5.636719 65.449218-5.632813zm0 0" fill="#e8edfc"/><path d="m469.347656 92.1875v349.441406c.03125 2.574219-1.109375 5.023438-3.105468 6.648438-1.992188 1.628906-4.621094 2.261718-7.132813 1.714844-4.4375-.941407-10.242187-2.132813-16.984375-3.328126-37.734375-7.667968-76.179688-11.300781-114.6875-10.839843-28.757812 1.28125-53.675781 7.253906-64.9375 22.015625-1.527344 2.039062-3.941406 3.214844-6.484375 3.160156v-388.949219h109.566406c21.9375-.003906 43.835938 1.878907 65.449219 5.632813 13.824219 2.386718 25.089844 4.691406 31.660156 6.140625 3.914063.871093 6.683594 4.355469 6.65625 8.363281zm0 0" fill="#cad9fc"/><path d="m443.746094 92.1875v349.441406c.015625 2.566406-1.132813 5-3.121094 6.625s-4.605469 2.261719-7.117188 1.738282c-34.921874-7.535157-70.394531-12.273438-106.070312-14.167969-24.132812-1.992188-48.421875.878906-71.421875 8.449219v-372.222657h83.964844c21.941406-.003906 43.835937 1.878907 65.453125 5.632813 13.824218 2.386718 25.085937 4.691406 31.65625 6.140625 3.914062.871093 6.6875 4.355469 6.65625 8.363281zm0 0" fill="#e8edfc"/><path d="m375.480469 128.027344c.027343 33.046875-13.699219 64.613281-37.886719 87.125-19.003906 17.203125-30.007812 41.527344-30.378906 67.160156v7.847656c-.015625 4.707032-3.828125 8.519532-8.535156 8.535156h-85.332032c-4.707031-.015624-8.519531-3.828124-8.535156-8.535156v-7.847656c-.25-25.488281-11.140625-49.710938-30.035156-66.816406-27.210938-25.132813-41.15625-61.507813-37.71875-98.390625 5.5-56.625 49.945312-101.640625 106.496094-107.859375 2.21875-.257813 4.4375-.429688 6.65625-.515625 1.964843-.082031 3.839843-.167969 5.804687-.167969 65.972656.011719 119.453125 53.492188 119.464844 119.464844zm0 0" fill="#cad9fc"/><path d="m349.882812 128.027344c.027344 33.046875-13.699218 64.613281-37.890624 87.125-19 17.203125-30.003907 41.527344-30.378907 67.160156v7.847656c-.011719 4.707032-3.824219 8.519532-8.53125 8.535156h-59.734375c-4.707031-.015624-8.519531-3.828124-8.535156-8.535156v-7.847656c-.25-25.488281-11.140625-49.710938-30.035156-66.816406-27.210938-25.132813-41.15625-61.507813-37.71875-98.390625 5.5-56.625 49.945312-101.640625 106.496094-107.859375 60.527343 6.726562 106.320312 57.882812 106.328124 118.78125zm0 0" fill="#e8edfc"/><path d="m298.679688 298.695312v42.667969c-.011719 4.707031-3.824219 8.519531-8.53125 8.53125h-68.265626c-4.710937-.011719-8.523437-3.824219-8.535156-8.53125v-42.667969zm0 0" fill="#cad9fc"/><path d="m273.082031 298.695312v42.667969c-.015625 4.707031-3.828125 8.519531-8.535156 8.53125h-42.664063c-4.710937-.011719-8.523437-3.824219-8.535156-8.53125v-42.667969zm0 0" fill="#e8edfc"/><path d="m221.882812 349.894531c0 18.851563 15.28125 34.132813 34.132813 34.132813s34.132813-15.28125 34.132813-34.132813zm0 0" fill="#cad9fc"/><path d="m34.148438 469.363281v-332.800781c.027343-9.414062 7.652343-17.039062 17.066406-17.066406h17.066406v-27.308594c-.03125-4.007812 2.742188-7.492188 6.65625-8.363281 6.570312-1.449219 17.835938-3.753907 31.65625-6.140625 21.617188-3.753906 43.515625-5.636719 65.453125-5.632813h4.277344c18.675781-34.859375 53.28125-58.320312 92.574219-62.769531-4.277344-.46875-8.578126-.710938-12.882813-.71875-1.964844 0-3.839844.085938-5.804687.167969-2.21875.085937-4.4375.257812-6.65625.515625-39.394532 4.375-74.113282 27.863281-92.828126 62.804687h-4.28125c-21.9375-.003906-43.835937 1.878907-65.449218 5.632813-13.824219 2.386718-25.089844 4.691406-31.660156 6.140625-3.910157.871093-6.683594 4.355469-6.65625 8.363281v27.308594h-17.066407c-9.414062.027344-17.039062 7.652344-17.066406 17.066406v332.800781c.027344 9.414063 7.652344 17.039063 17.066406 17.066407h25.601563c-9.414063-.027344-17.039063-7.652344-17.066406-17.066407zm0 0" fill="#fff"/><path d="m17.082031 136.5625v332.800781h-17.066406v-332.800781zm0 0" fill="#fff"/><g fill="#428dff"><path d="m8.546875 213.363281c2.257813-.035156 4.421875-.917969 6.058594-2.476562 3.300781-3.363281 3.300781-8.75 0-12.117188l-1.277344-1.023437c-.476563-.324219-.996094-.582032-1.539063-.769532-.480468-.246093-1-.417968-1.535156-.511718-.5625-.09375-1.132812-.152344-1.707031-.167969-2.257813.03125-4.421875.914063-6.058594 2.472656-3.21875 3.398438-3.21875 8.71875 0 12.117188.816407.769531 1.773438 1.378906 2.816407 1.792969 1.027343.4375 2.128906.667968 3.242187.683593zm0 0"/><path d="m486.414062 110.960938h-8.53125v-18.773438c-.011718-7.996094-5.550781-14.925781-13.351562-16.691406-4.292969-.949219-16.007812-3.449219-32.042969-6.222656-21.78125-3.769532-43.84375-5.683594-65.949219-5.730469-6.042968-10.367188-13.507812-19.839844-22.175781-28.136719-25.289062-24.296875-59.5-37.050781-94.523437-35.234375-43.242188 2.160156-82.472656 25.992187-104.320313 63.367187-22.117187.046876-44.1875 1.960938-65.980469 5.730469-16.035156 2.777344-27.75 5.273438-32.007812 6.21875-7.816406 1.753907-13.371094 8.691407-13.382812 16.699219v18.773438h-8.535157c-14.132812.015624-25.582031 11.46875-25.597656 25.601562v34.132812c0 4.710938 3.820313 8.53125 8.53125 8.53125 4.714844 0 8.535156-3.820312 8.535156-8.53125v-34.132812c0-4.710938 3.820313-8.53125 8.53125-8.535156h8.535157v313.601562c-.019532 5.214844 2.347656 10.15625 6.425781 13.40625 3.960937 3.1875 9.152343 4.402344 14.113281 3.308594 73.242188-15.527344 166.441406-23.617188 188.035156 4.652344 3.179688 4.105468 8.078125 6.511718 13.269532 6.519531 5.195312.003906 10.097656-2.390625 13.289062-6.488281 21.625-28.3125 114.816406-20.214844 187.949219-4.707032 4.992187 1.128907 10.230469-.078124 14.226562-3.285156 4.074219-3.25 6.441407-8.191406 6.425781-13.40625v-313.601562h8.53125c4.710938.003906 8.53125 3.824218 8.535157 8.535156v332.800781c-.003907 4.710938-3.824219 8.527344-8.535157 8.53125h-180.667968c-6.792969-.015625-13.308594 2.683594-18.097656 7.5l-7.066407 7.066407c-1.605469 1.597656-3.773437 2.496093-6.035156 2.5h-37.066406c-2.261719-.003907-4.429688-.902344-6.03125-2.5l-7.066407-7.066407c-4.792968-4.816406-11.308593-7.515625-18.101562-7.5h-180.667969c-4.710937-.003906-8.53125-3.820312-8.53125-8.53125v-230.402343c0-4.710938-3.820312-8.53125-8.535156-8.53125-4.710937 0-8.53125 3.820312-8.53125 8.53125v230.402343c.015625 14.128907 11.464844 25.582031 25.597656 25.597657h180.667969c2.261719.007812 4.429688.90625 6.03125 2.5l7.066406 7.066406c4.792969 4.816406 11.308594 7.515625 18.101563 7.5h37.066406c6.792969.015625 13.3125-2.683594 18.101563-7.5l7.066406-7.066406c1.601562-1.59375 3.769531-2.492188 6.03125-2.5h180.667968c14.132813-.015626 25.585938-11.46875 25.601563-25.597657v-332.800781c-.015625-14.132812-11.46875-25.585938-25.601563-25.601562zm-235.777343-93.742188c1.8125-.082031 3.617187-.125 5.417969-.125 61.25.023438 110.894531 49.683594 110.894531 110.933594.117187 30.695312-12.636719 60.03125-35.167969 80.875-20.8125 18.765625-32.816406 45.386718-33.101562 73.410156v7.847656h-85.332032v-7.875c-.320312-27.855468-12.199218-54.328125-32.792968-73.089844-25.277344-23.332031-38.226563-57.117187-35.015626-91.367187 1.351563-14.796875 5.707032-29.164063 12.800782-42.21875.050781-.113281.125-.203125.175781-.320313 18.464844-34.105468 53.382813-56.117187 92.121094-58.070312zm5.378906 358.277344c-10.816406-.035156-20.4375-6.867188-24.027344-17.066406h48.054688c-3.59375 10.199218-13.214844 17.03125-24.027344 17.066406zm34.148437-34.132813h-68.28125v-34.136719h68.265626zm-238.949218 100.265625-.03125-321.980468c0-.054688.03125-.101563.03125-.152344 0-.054688-.03125-.101563-.03125-.152344v-27.183594c4.175781-.921875 15.582031-3.355468 31.273437-6.074218 18.054688-3.097657 36.308594-4.871094 54.621094-5.296876-19.5625 49.042969-6.890625 105.074219 31.878906 140.921876 17.113281 15.53125 27.007813 37.46875 27.324219 60.574218v7.875c.019531 6.070313 3.273438 11.667969 8.53125 14.691406v36.511719c.023438 6.335938 3.566406 12.132813 9.191406 15.046875 2.71875 17.652344 16.148438 31.742188 33.648438 35.304688-.074219.28125-.128906.5625-.171875.847656v51.601562c-41.558594-30.761718-149.257813-12.5-196.265625-2.535156zm213.332031 2.890625v-51.957031c-.039063-.285156-.097656-.566406-.171875-.847656 17.503906-3.5625 30.929688-17.652344 33.648438-35.304688 5.625-2.914062 9.167968-8.710937 9.191406-15.046875v-36.511719c5.261718-3.023437 8.511718-8.621093 8.53125-14.691406v-7.847656c.308594-23.292969 10.347656-45.390625 27.683594-60.941406 38.480468-35.886719 50.996093-91.707032 31.519531-140.582032 18.3125.425782 36.570312 2.195313 54.625 5.296876 15.691406 2.71875 27.097656 5.152343 31.238281 6.101562l.007812 27.285156-.007812.023438.007812.019531.050782 322.128906c-47.242188-10.015625-155.59375-28.375-196.324219 2.875zm0 0"/><path d="m70.753906 373.019531c3.367188 3.300781 8.753906 3.300781 12.117188 0 .753906-.832031 1.359375-1.78125 1.792968-2.816406.914063-2.0625.914063-4.417969 0-6.484375-.414062-1.042969-1.019531-2-1.792968-2.816406-.828125-.753906-1.78125-1.359375-2.8125-1.792969-3.179688-1.339844-6.851563-.632813-9.304688 1.792969-.769531.816406-1.378906 1.773437-1.789062 2.816406-.4375 1.027344-.671875 2.128906-.683594 3.242188-.027344 1.121093.207031 2.230468.683594 3.242187.433594 1.035156 1.039062 1.988281 1.789062 2.816406zm0 0"/><path d="m102.414062 375.496094h25.601563c4.710937 0 8.53125-3.820313 8.53125-8.535156 0-4.710938-3.820313-8.53125-8.53125-8.53125h-25.601563c-4.710937 0-8.53125 3.820312-8.53125 8.53125 0 4.714843 3.820313 8.535156 8.53125 8.535156zm0 0"/><path d="m136.546875 392.5625h-59.734375c-4.710938 0-8.53125 3.820312-8.53125 8.53125 0 4.714844 3.820312 8.535156 8.53125 8.535156h59.734375c4.714844 0 8.535156-3.820312 8.535156-8.535156 0-4.710938-3.820312-8.53125-8.535156-8.53125zm0 0"/><path d="m196.28125 392.5625h-25.601562c-4.710938 0-8.53125 3.820312-8.53125 8.53125 0 4.714844 3.820312 8.535156 8.53125 8.535156h25.601562c4.710938 0 8.53125-3.820312 8.53125-8.535156 0-4.710938-3.820312-8.53125-8.53125-8.53125zm0 0"/><path d="m441.273438 360.902344c-2.453126-2.425782-6.125-3.132813-9.300782-1.792969-1.035156.433594-1.988281 1.039063-2.816406 1.792969-.769531.816406-1.378906 1.773437-1.792969 2.816406-.910156 2.066406-.910156 4.421875 0 6.484375.4375 1.035156 1.042969 1.984375 1.792969 2.816406 3.363281 3.300781 8.75 3.300781 12.117188 0 .75-.828125 1.355468-1.78125 1.792968-2.816406.476563-1.011719.707032-2.121094.679688-3.242187-.011719-1.113282-.242188-2.214844-.679688-3.242188-.414062-1.042969-1.023437-2-1.792968-2.816406zm0 0"/><path d="m384.015625 375.496094h25.597656c4.714844 0 8.535157-3.820313 8.535157-8.535156 0-4.710938-3.820313-8.53125-8.535157-8.53125h-25.597656c-4.714844 0-8.535156 3.820312-8.535156 8.53125 0 4.714843 3.820312 8.535156 8.535156 8.535156zm0 0"/><path d="m435.214844 392.5625h-59.734375c-4.710938 0-8.53125 3.820312-8.53125 8.53125 0 4.714844 3.820312 8.535156 8.53125 8.535156h59.734375c4.710937 0 8.53125-3.820312 8.53125-8.535156 0-4.710938-3.820313-8.53125-8.53125-8.53125zm0 0"/><path d="m341.347656 392.5625h-25.601562c-4.710938 0-8.53125 3.820312-8.53125 8.53125 0 4.714844 3.820312 8.535156 8.53125 8.535156h25.601562c4.710938 0 8.535156-3.820312 8.535156-8.535156 0-4.710938-3.824218-8.53125-8.535156-8.53125zm0 0"/><path d="m224.355469 262.085938c.828125.753906 1.78125 1.359374 2.816406 1.792968 3.175781 1.363282 6.859375.652344 9.300781-1.792968.753906-.828126 1.359375-1.78125 1.792969-2.816407.910156-2.0625.910156-4.417969 0-6.484375-.433594-1.035156-1.039063-1.984375-1.792969-2.816406-3.421875-3.15625-8.695312-3.15625-12.117187 0-.753907.832031-1.359375 1.78125-1.792969 2.816406-.910156 2.066406-.910156 4.421875 0 6.484375.433594 1.035157 1.039062 1.988281 1.792969 2.816407zm0 0"/><path d="m230.414062 238.960938c4.714844 0 8.535157-3.820313 8.535157-8.53125v-47.667969l11.03125 11.03125c1.601562 1.601562 3.769531 2.503906 6.035156 2.503906 2.261719 0 4.433594-.902344 6.03125-2.503906l11.035156-11.03125v47.667969c0 4.710937 3.820313 8.53125 8.53125 8.53125 4.714844 0 8.535157-3.820313 8.535157-8.53125v-68.269532c0-3.449218-2.082032-6.558594-5.269532-7.878906s-6.855468-.59375-9.296875 1.847656l-19.566406 19.566406-19.566406-19.566406c-2.441407-2.441406-6.113281-3.167968-9.300781-1.847656s-5.265626 4.429688-5.265626 7.878906v68.269532c0 4.710937 3.820313 8.53125 8.53125 8.53125zm0 0"/><path d="m287.671875 249.96875c-3.421875-3.15625-8.695313-3.15625-12.117187 0-.753907.832031-1.359376 1.78125-1.792969 2.816406-.910157 2.066406-.910157 4.421875 0 6.484375.4375 1.035157 1.042969 1.988281 1.792969 2.816407 2.441406 2.445312 6.128906 3.15625 9.300781 1.792968 1.035156-.433594 1.988281-1.039062 2.816406-1.792968.753906-.828126 1.359375-1.78125 1.792969-2.816407.910156-2.0625.910156-4.417969 0-6.484375-.433594-1.035156-1.039063-1.984375-1.792969-2.816406zm0 0"/></g></svg>