<?xml version="1.0" encoding="iso-8859-1"?>
<!-- Generator: Adobe Illustrator 19.0.0, SVG Export Plug-In . SVG Version: 6.00 Build 0)  -->
<svg version="1.1" id="Capa_1" xmlns="http://www.w3.org/2000/svg" xmlns:xlink="http://www.w3.org/1999/xlink" x="0px" y="0px"
	 viewBox="0 0 512 512" style="enable-background:new 0 0 512 512;" xml:space="preserve">
<g>
	<g transform="translate(0 1)">
		
			<linearGradient id="SVGID_1_" gradientUnits="userSpaceOnUse" x1="-48.6787" y1="651.6495" x2="-48.1202" y2="650.6414" gradientTransform="matrix(498.5263 0 0 -478.3158 24383.5918 311721.4688)">
			<stop  offset="0" style="stop-color:#D4E1F4"/>
			<stop  offset="0.1717" style="stop-color:#D4E1F4"/>
			<stop  offset="0.2" style="stop-color:#D4E1F4"/>
			<stop  offset="0.2001" style="stop-color:#DAE4F4"/>
			<stop  offset="0.2007" style="stop-color:#EBEBF4"/>
			<stop  offset="0.2014" style="stop-color:#F6F1F4"/>
			<stop  offset="0.2023" style="stop-color:#FDF4F4"/>
			<stop  offset="0.205" style="stop-color:#FFF5F4"/>
			<stop  offset="0.2522" style="stop-color:#FFF5F4"/>
			<stop  offset="0.26" style="stop-color:#FFF5F4"/>
			<stop  offset="0.26" style="stop-color:#D4E1F4"/>
			<stop  offset="0.3974" style="stop-color:#D4E1F4"/>
			<stop  offset="0.42" style="stop-color:#D4E1F4"/>
			<stop  offset="0.4201" style="stop-color:#DAE4F4"/>
			<stop  offset="0.4207" style="stop-color:#EBEBF4"/>
			<stop  offset="0.4214" style="stop-color:#F6F1F4"/>
			<stop  offset="0.4223" style="stop-color:#FDF4F4"/>
			<stop  offset="0.425" style="stop-color:#FFF5F4"/>
			<stop  offset="0.4894" style="stop-color:#FFF5F4"/>
			<stop  offset="0.5" style="stop-color:#FFF5F4"/>
			<stop  offset="0.5" style="stop-color:#F9F2F4"/>
			<stop  offset="0.5001" style="stop-color:#E8EBF4"/>
			<stop  offset="0.5003" style="stop-color:#DDE5F4"/>
			<stop  offset="0.5005" style="stop-color:#D6E2F4"/>
			<stop  offset="0.501" style="stop-color:#D4E1F4"/>
			<stop  offset="0.7062" style="stop-color:#D4E1F4"/>
			<stop  offset="0.74" style="stop-color:#D4E1F4"/>
			<stop  offset="0.741" style="stop-color:#FFF5F4"/>
			<stop  offset="0.8346" style="stop-color:#FFF5F4"/>
			<stop  offset="0.85" style="stop-color:#FFF5F4"/>
			<stop  offset="0.851" style="stop-color:#D4E1F4"/>
		</linearGradient>
		<polygon style="fill:url(#SVGID_1_);" points="477.691,270.122 424.134,215.351 357.237,206.593 357.237,141.852 370.576,134.105 
			370.576,108.572 343.83,81.153 290.273,26.383 209.969,15.806 139.839,56.294 139.839,56.362 139.771,56.362 139.771,58.652 
			76.108,50.299 76.108,50.231 5.978,90.72 5.978,90.787 5.91,90.787 5.91,116.387 19.317,118.071 19.317,118.139 19.317,234.012 
			19.317,249.574 19.317,262.24 59.536,285.482 97.895,307.606 113.026,316.343 113.026,316.404 153.178,339.511 153.178,339.579 
			193.329,362.686 193.35,362.7 193.35,362.72 246.894,393.635 246.894,393.608 287.039,416.85 327.19,440.025 380.748,470.947 
			420.9,494.122 491.098,453.566 491.098,330.821 504.437,323.141 504.437,297.541 		"/>
		<g>
			<polygon style="fill:#D4E1F4;" points="435.115,338.029 435.115,363.629 421.708,349.953 358.045,284.741 354.811,281.44 
				287.847,272.682 274.441,270.93 274.441,245.33 287.847,247.082 354.811,255.84 			"/>
			<polygon style="fill:#D4E1F4;" points="421.708,349.953 421.708,494.122 381.557,470.947 327.999,440.025 287.847,416.85 
				287.847,272.682 354.811,281.44 358.045,284.741 			"/>
		</g>
		<polygon style="fill:#E3E7F2;" points="381.557,332.774 381.557,373.667 361.548,362.147 358.045,360.126 354.811,358.24 
			348.075,354.332 327.999,342.745 327.999,301.852 348.075,313.372 354.811,317.28 358.045,319.166 361.548,321.187 		"/>
		<g>
			<polygon style="fill:#A4C2F7;" points="491.906,330.821 491.906,453.566 421.708,494.122 421.708,349.953 435.115,363.629 			"/>
			<polygon style="fill:#A4C2F7;" points="505.245,297.541 505.245,323.141 491.906,330.821 435.115,363.629 435.115,338.029 			"/>
			<polygon style="fill:#A4C2F7;" points="505.245,297.541 435.115,338.029 354.811,255.84 424.942,215.351 478.5,270.122 			"/>
			<polygon style="fill:#A4C2F7;" points="424.942,215.351 354.811,255.84 287.847,247.082 274.441,245.33 287.847,237.583 
				344.639,204.774 344.639,204.842 358.045,206.593 			"/>
		</g>
		<g>
			<polygon style="fill:#D4E1F4;" points="153.986,169.81 153.986,195.343 87.089,126.897 20.125,118.139 20.125,118.071 
				6.719,116.387 6.719,90.787 6.786,90.787 87.022,101.297 87.089,101.297 			"/>
			<polygon style="fill:#D4E1F4;" points="153.986,195.343 153.986,339.511 113.835,316.404 113.835,316.337 60.344,285.482 
				20.125,262.24 20.125,118.139 87.089,126.897 			"/>
		</g>
		<polygon style="fill:#E3E7F2;" points="113.835,178.164 113.835,219.124 93.826,207.604 80.353,199.789 60.277,188.202 
			60.277,147.242 80.353,158.829 93.826,166.644 		"/>
		<polygon style="fill:#A4C2F7;" points="140.58,58.652 140.58,70.442 87.089,101.297 87.022,101.297 6.786,90.787 6.786,90.72 
			76.917,50.231 76.917,50.299 		"/>
		<polygon style="fill:#D4E1F4;" points="301.254,149.061 301.254,174.661 287.847,160.985 287.847,160.918 237.59,109.516 
			233.144,104.934 220.95,92.471 153.986,83.713 153.986,83.646 140.58,81.962 140.58,56.362 140.647,56.362 200.201,64.177 
			220.95,66.871 		"/>
		<g>
			<polygon style="fill:#A4C2F7;" points="153.986,83.646 153.986,169.81 87.089,101.297 140.58,70.442 140.58,81.962 			"/>
			<polygon style="fill:#A4C2F7;" points="358.045,141.852 358.045,206.593 344.639,204.842 344.639,204.774 287.847,237.583 
				287.847,160.985 301.254,174.661 			"/>
			<polygon style="fill:#A4C2F7;" points="371.384,108.572 371.384,134.105 358.045,141.852 301.254,174.661 301.254,149.061 			"/>
			<polygon style="fill:#A4C2F7;" points="371.384,108.572 301.254,149.061 220.95,66.871 291.081,26.383 344.639,81.153 			"/>
			<polygon style="fill:#A4C2F7;" points="291.081,26.383 220.95,66.871 200.201,64.177 140.647,56.362 140.647,56.294 
				210.778,15.806 			"/>
		</g>
		<path style="fill:#D4E1F4;" d="M287.845,388.488v15.629l-3.099-1.819c-0.284-0.132-0.554-0.29-0.808-0.472l-129.954-74.981
			v-15.562L287.845,388.488z"/>
		<g>
			<polygon style="fill:#E3E7F2;" points="247.696,240.21 247.696,281.17 227.687,269.65 214.214,261.836 194.138,250.248 
				194.138,209.288 214.214,220.876 227.687,228.69 			"/>
			<polygon style="fill:#E3E7F2;" points="247.696,163.545 247.696,204.505 227.687,192.985 214.214,185.17 194.138,173.583 
				194.138,132.623 214.214,144.21 227.687,152.025 			"/>
		</g>
		<g>
			<polygon style="fill:#D4E1F4;" points="381.564,399.267 381.564,470.92 327.992,439.991 327.992,368.345 349.927,380.99 			"/>
			<polygon style="fill:#D4E1F4;" points="113.841,316.35 60.297,285.435 60.297,213.788 113.841,244.697 			"/>
			<polygon style="fill:#D4E1F4;" points="247.702,393.635 194.158,362.72 194.158,280.914 247.702,311.83 			"/>
		</g>
	</g>
	<g transform="translate(1 1)">
		<polygon style="fill:#FFFFFF;" points="377.256,220.067 443.809,228.778 430.679,215.351 377.256,208.358 		"/>
		<polygon style="fill:#FFFFFF;" points="25.054,234.012 25.054,249.574 25.054,262.24 38.527,270.028 38.527,263.048 
			38.527,247.486 38.527,131.612 38.527,131.545 25.121,129.861 25.121,104.261 25.188,104.261 25.188,104.193 95.319,63.705 
			95.319,63.772 95.878,63.846 96.127,63.705 96.127,63.772 158.982,72.018 158.982,69.836 159.049,69.836 159.049,69.768 
			229.18,29.28 229.833,29.367 229.988,29.28 309.948,39.809 296.818,26.383 216.515,15.806 216.36,15.894 215.706,15.806 
			145.576,56.294 145.576,56.362 145.508,56.362 145.508,58.545 82.654,50.299 82.654,50.231 82.404,50.373 81.845,50.299 
			81.845,50.231 11.715,90.72 11.715,90.787 11.647,90.787 11.647,116.387 25.054,118.071 25.054,118.139 		"/>
	</g>
	<g>
		<polygon style="fill:#FFFFFF;" points="13.409,242.78 13.409,155.201 13.409,119.139 26.882,119.139 26.882,155.201 
			26.882,242.78 		"/>
		<g>
			<path style="fill:#428DFF;" d="M324.625,296.99c-2.085,1.203-3.369,3.428-3.368,5.836v40.928
				c-0.001,2.407,1.284,4.632,3.368,5.836l53.566,30.921c2.085,1.204,4.653,1.203,6.737,0s3.368-3.428,3.368-5.835v-40.928
				c0.001-2.407-1.284-4.632-3.368-5.836l-53.566-30.921C329.276,295.793,326.711,295.793,324.625,296.99z M334.73,334.954
				l13.309,7.683v4.912l-13.309-7.683V334.954z M361.513,355.327v-4.913l13.309,7.683v4.914L361.513,355.327z M374.823,342.536
				l-13.309-7.682v-4.9l13.309,7.681L374.823,342.536z M348.04,322.178v4.899l-13.309-7.683v-4.897L348.04,322.178z"/>
			<path style="fill:#428DFF;" d="M511.675,296.892c-0.099-0.437-0.242-0.863-0.428-1.271c-0.07-0.143-0.067-0.301-0.148-0.44
				c-0.169-0.218-0.351-0.425-0.547-0.62c-0.142-0.251-0.3-0.492-0.473-0.722l-80.309-82.204c-0.137-0.141-0.322-0.216-0.47-0.343
				c-0.24-0.204-0.495-0.389-0.762-0.556c-0.699-0.427-1.461-0.741-2.258-0.931c-0.155-0.032-0.292-0.116-0.45-0.137l-61.04-8.005
				v-54.929l9.993-5.771c2.085-1.203,3.369-3.428,3.368-5.836v-25.572c0-0.138-0.07-0.262-0.079-0.399
				c-0.114-0.869-0.341-1.719-0.675-2.529c-0.07-0.143-0.067-0.301-0.148-0.44c-0.168-0.217-0.35-0.423-0.545-0.617
				c-0.142-0.252-0.301-0.494-0.475-0.725l-80.316-82.204c-0.133-0.136-0.312-0.208-0.455-0.332
				c-0.246-0.209-0.507-0.399-0.781-0.569c-0.692-0.422-1.446-0.734-2.235-0.922c-0.162-0.033-0.305-0.122-0.47-0.143
				l-80.309-10.533c-0.241,0.001-0.481,0.016-0.72,0.045c-0.493-0.026-0.987,0.005-1.473,0.092c-0.456,0.1-0.9,0.249-1.323,0.446
				c-0.247,0.067-0.49,0.149-0.728,0.245l-70.178,40.513c-0.197,0.154-0.384,0.319-0.562,0.495
				c-0.161,0.117-0.364,0.153-0.514,0.285l-58.404-7.675c-0.186-0.027-0.355,0.044-0.539,0.033c-0.556-0.038-1.114-0.003-1.66,0.102
				c-0.433,0.097-0.855,0.24-1.259,0.425c-0.251,0.068-0.498,0.151-0.739,0.249L3.388,85.918c-0.188,0.147-0.367,0.305-0.536,0.473
				c-0.174,0.126-0.394,0.167-0.556,0.31c-0.137,0.167-0.266,0.341-0.386,0.521c-0.338,0.361-0.634,0.76-0.882,1.189
				c-0.217,0.353-0.399,0.726-0.544,1.114c-0.15,0.45-0.25,0.916-0.3,1.388C0.104,91.193,0.042,91.478,0,91.767v25.592
				c0.002,3.387,2.516,6.248,5.875,6.684l7.532,0.965v36.932c0,3.721,3.016,6.737,6.737,6.737s6.737-3.016,6.737-6.737v-35.134
				l57.007,7.441l63.349,64.842v109.289l-26.658-15.391v-47.287c0.001-2.407-1.284-4.632-3.368-5.836l-53.54-30.915
				c-2.085-1.204-4.653-1.203-6.737,0c-2.084,1.204-3.368,3.428-3.368,5.835v39.508l-26.685-15.406v-23.054
				c0-3.721-3.016-6.737-6.737-6.737s-6.737,3.016-6.737,6.737v26.947h0v20.465c-0.001,2.407,1.283,4.632,3.368,5.836l40.165,23.204
				l0.145,0.074l52.986,30.595c0.131,0.088,0.259,0.18,0.396,0.259l39.961,23.031c0.066,0.041,0.116,0.102,0.183,0.141
				l133.836,77.283c0.075,0.044,0.16,0.058,0.237,0.098l0.086,0.06l133.592,77.132c2.085,1.202,4.652,1.202,6.737,0
				c0.08-0.047,0.139-0.117,0.217-0.167l69.948-40.366c0.22-0.17,0.428-0.353,0.624-0.55c0.378-0.268,0.726-0.575,1.04-0.916
				c0.522-0.669,0.948-1.407,1.267-2.193c0.14-0.446,0.233-0.905,0.276-1.371c0.072-0.265,0.126-0.534,0.162-0.805V335.732l10-5.774
				c2.085-1.203,3.369-3.428,3.368-5.836v-25.572c0-0.138-0.07-0.262-0.079-0.399C511.881,297.724,511.798,297.303,511.675,296.892z
				 M441.823,352.975v-10.024l56.704-32.732v10.015L441.823,352.975z M414.994,462.952l-26.697-15.391v-47.294
				c0.001-2.407-1.284-4.632-3.368-5.836l-53.572-30.921c-2.084-1.202-4.651-1.201-6.734,0.002
				c-2.083,1.204-3.366,3.427-3.365,5.833v39.502l-26.697-15.437V281.336l57.072,7.509l63.362,64.852L414.994,462.952z
				 M374.823,428.763c0.178-2.536-1.096-4.954-3.289-6.24l-4.461-2.572c-2.085-1.205-4.654-1.206-6.74-0.002
				c-2.086,1.204-3.37,3.429-3.369,5.837c0.001,2.408,1.286,4.633,3.372,5.835l4.461,2.572c1.938,1.133,4.316,1.22,6.332,0.232
				c2.016-0.988,3.403-2.921,3.695-5.147v30.968l-40.092-23.145v-56.099l40.092,23.151V428.763z M78.273,58.241l55.582,7.304v1.951
				l-48.171,27.81l-58.374-7.64L78.273,58.241z M212.165,23.792l58.368,7.656l-50.984,29.433l-58.391-7.642L212.165,23.792z
				 M360.533,108.057l-58.12,33.55l-70.599-72.247l58.125-33.555L360.533,108.057z M307.994,163.97v-10.024l56.684-32.721v10.015
				L307.994,163.97z M346.02,212.786l58.363,7.655l-51.013,29.45l-58.325-7.672L346.02,212.786z M494.382,297.051l-58.148,33.566
				l-70.57-72.264l58.127-33.556L494.382,297.051z M281.204,265.997v-12l70.408,9.25l76.737,78.579v6.27l-65.5-67.066l-3.25-3.296
				c-1.053-1.068-2.433-1.754-3.921-1.947L281.204,265.997z M271.099,240.484c-0.173,0.137-0.339,0.283-0.496,0.438
				c-1.074,0.792-1.901,1.874-2.383,3.118c-0.163,0.755-0.326,1.511-0.489,2.266v25.592c0.001,3.377,2.501,6.231,5.849,6.678
				l7.507,0.988v106.057l-26.651-15.352v-57.443c0.001-2.407-1.284-4.632-3.368-5.836l-53.54-30.914
				c-2.085-1.204-4.653-1.203-6.737,0c-2.084,1.204-3.368,3.428-3.368,5.835v49.666l-26.684-15.406v-119.8
				c0-0.046-0.025-0.085-0.026-0.131v-25.256c0.003-0.092,0.001-0.179,0-0.271V92.375l57.02,7.444l63.355,64.833v70.065
				L271.099,240.484z M240.961,346.205c0.109-2.463-1.151-4.786-3.276-6.037l-4.467-2.579c-2.085-1.205-4.654-1.206-6.74-0.002
				c-2.086,1.204-3.37,3.429-3.369,5.837c0.001,2.408,1.286,4.633,3.372,5.835l4.467,2.579c1.93,1.135,4.3,1.228,6.313,0.248
				c2.013-0.98,3.402-2.902,3.7-5.121v35.998l-40.066-23.131v-66.25l40.066,23.132L240.961,346.205z M217.737,74.234l76.783,78.572
				v6.323L225.744,88.74c-1.055-1.085-2.446-1.781-3.947-1.974l-66.099-8.632c-0.275-0.072-0.554-0.127-0.835-0.164l-7.533-0.967
				V65.017L217.737,74.234z M133.877,83.044c0.051,3.339,2.543,6.136,5.854,6.571l7.507,0.961v63.641l-49.28-50.438L133.877,83.044z
				 M160.737,331.732l26.684,15.406v4.94l-26.684-15.408L160.737,331.732z M254.435,385.814l26.651,15.354v4.993l-26.651-15.389
				V385.814z M351.316,199.896l-5.803-0.761c-0.234,0.001-0.469,0.016-0.702,0.044c-0.498-0.026-0.998,0.005-1.489,0.094
				c-0.448,0.099-0.884,0.246-1.3,0.439c-0.254,0.068-0.503,0.152-0.746,0.252l-46.717,26.974V178.44l1.882,1.926l0.02,0.013
				c0.573,0.564,1.244,1.019,1.98,1.343c0.175,0.081,0.344,0.146,0.524,0.212c0.707,0.27,1.454,0.42,2.211,0.442l0.081,0.016
				l0.111-0.022c0.715-0.024,1.422-0.163,2.093-0.411c0.113-0.039,0.231-0.022,0.343-0.067c0.149-0.061,0.263-0.171,0.406-0.241
				c0.132-0.065,0.274-0.092,0.403-0.167l46.704-26.969V199.896z M91.888,123.161c-1.055-1.081-2.443-1.774-3.941-1.967
				l-66.105-8.632c-0.275-0.072-0.554-0.127-0.835-0.164l-7.533-0.967V99.444l70.408,9.211l63.355,64.843v6.313L91.888,123.161z
				 M147.237,323.939v4.918l-26.658-15.365v-4.944L147.237,323.939z M107.106,249.589v24.541c0.153-2.506-1.113-4.886-3.276-6.16
				l-4.461-2.579c-3.219-1.864-7.34-0.765-9.204,2.454c-1.864,3.219-0.765,7.34,2.454,9.204l4.461,2.579
				c1.934,1.135,4.308,1.227,6.323,0.244c2.016-0.982,3.406-2.909,3.703-5.131v30.921L67.04,282.526v-56.069L107.106,249.589z
				 M26.882,254.449l26.684,15.406v4.921l-26.684-15.418V254.449z M294.56,408.975l26.697,15.446v4.911l-26.697-15.414V408.975z
				 M388.296,468.037v-4.929l26.697,15.391v4.952L388.296,468.037z M485.158,450.698l-56.69,32.715V367.487l1.803,1.845l0.019,0.013
				c0.589,0.588,1.284,1.059,2.049,1.389c0.123,0.056,0.241,0.101,0.368,0.149c1.512,0.656,3.228,0.66,4.743,0.012
				c0.06-0.023,0.124-0.012,0.183-0.036c0.08-0.032,0.139-0.094,0.217-0.129c0.208-0.074,0.412-0.158,0.612-0.253l46.697-26.965
				L485.158,450.698z"/>
			<path style="fill:#428DFF;" d="M17.585,195.088c0.382,0.194,0.791,0.329,1.214,0.401c0.445,0.076,0.894,0.121,1.345,0.135
				c1.784-0.025,3.492-0.723,4.783-1.954c2.543-2.682,2.543-6.884,0-9.566c-0.644-0.608-1.397-1.088-2.22-1.415
				c-0.811-0.346-1.681-0.529-2.562-0.539c-1.783,0.027-3.491,0.725-4.783,1.954c-2.605,2.656-2.605,6.909,0,9.566l1.01,0.809
				C16.747,194.735,17.156,194.94,17.585,195.088z"/>
			<path style="fill:#428DFF;" d="M56.934,195.036l53.54,30.908c2.085,1.204,4.653,1.203,6.737,0
				c2.084-1.204,3.368-3.428,3.368-5.835v-40.941c0.001-2.407-1.284-4.632-3.368-5.836l-53.54-30.915
				c-2.085-1.204-4.653-1.203-6.737,0c-2.084,1.204-3.368,3.428-3.368,5.835v40.947C53.565,191.608,54.849,193.833,56.934,195.036z
				 M67.04,180.398l13.296,7.677v4.912l-13.296-7.674V180.398z M93.809,200.763v-4.908l13.296,7.677v4.905L93.809,200.763z
				 M107.105,187.971l-13.296-7.677v-4.914l13.296,7.676V187.971z M80.336,167.601v4.913l-13.296-7.677v-4.912L80.336,167.601z"/>
			<path style="fill:#428DFF;" d="M251.066,235.378l-53.54-30.908c-2.085-1.204-4.653-1.203-6.737,0
				c-2.084,1.204-3.368,3.428-3.368,5.835v40.941c-0.001,2.407,1.283,4.632,3.368,5.836l53.539,30.914
				c2.085,1.204,4.653,1.203,6.737,0c2.084-1.204,3.368-3.428,3.368-5.835v-40.947C254.435,238.807,253.151,236.582,251.066,235.378
				z M240.961,250.017l-13.296-7.677v-4.912l13.296,7.674V250.017z M214.191,229.652v4.908l-13.296-7.677v-4.905L214.191,229.652z
				 M200.895,242.444l13.296,7.677v4.914l-13.296-7.676V242.444z M227.665,262.814v-4.913l13.296,7.677v4.912L227.665,262.814z"/>
			<path style="fill:#428DFF;" d="M251.066,158.707l-53.54-30.914c-2.085-1.204-4.653-1.203-6.737,0
				c-2.084,1.204-3.368,3.428-3.368,5.835v40.941c-0.001,2.407,1.283,4.632,3.368,5.836l53.54,30.914
				c2.085,1.204,4.653,1.203,6.737,0s3.368-3.428,3.368-5.835v-40.94C254.435,162.136,253.151,159.911,251.066,158.707z
				 M240.961,173.341l-13.296-7.676v-4.91l13.296,7.676V173.341z M214.191,152.976v4.911l-13.296-7.676V145.3L214.191,152.976z
				 M200.895,165.772l13.296,7.676v4.91l-13.296-7.676V165.772z M227.665,186.136v-4.911l13.296,7.676v4.912L227.665,186.136z"/>
		</g>
	</g>
</g>
<g>
</g>
<g>
</g>
<g>
</g>
<g>
</g>
<g>
</g>
<g>
</g>
<g>
</g>
<g>
</g>
<g>
</g>
<g>
</g>
<g>
</g>
<g>
</g>
<g>
</g>
<g>
</g>
<g>
</g>
</svg>
