<svg height="512" viewBox="0 0 60 60" width="512" xmlns="http://www.w3.org/2000/svg"><g id="Page-1" fill="none" fill-rule="evenodd"><g id="018---Coulrophobia" fill-rule="nonzero" transform="translate(-1)"><path id="Shape" d="m37 18c.0019908.5147037-.0280674 1.0290321-.09 1.54-.2283638 1.6762011-.7784453 3.2924899-1.62 4.76-3.7.49-8.02 1.75-9.13 4.95-.32.91-.64 1.76-.93 2.55-.7352392.1377394-1.4819849.2047121-2.23.2-7.1733436.0962203-13.22404058-5.3198489-13.92-12.46-.05-.51-.08-1.02-.08-1.54-.02732318-3.3120119 1.1007267-6.5299598 3.19-9.1 1.7476553-2.17063681 4.1506249-3.71765811 6.85-4.41-.0282176.16850368-.0416022.33915752-.04.51v1h8v-1c.0016022-.17084248-.0117824-.34149632-.04-.51 2.6993751.69234189 5.1023447 2.23936319 6.85 4.41 2.0892733 2.5700402 3.2173232 5.7879881 3.19 9.1z" fill="#e8edfc"/><path id="Shape" d="m33.81 8.9c-1.7476553-2.17063681-4.1506249-3.71765811-6.85-4.41.0282176.16850368.0416022.33915752.04.51v.7c1.4619939.81459575 2.7551192 1.9006852 3.81 3.2 2.0892733 2.5700402 3.2173232 5.7879881 3.19 9.1.0019908.5147037-.0280674 1.0290321-.09 1.54-.2283638 1.6762011-.7784453 3.2924899-1.62 4.76-3.7.49-8.02 1.75-9.13 4.95-.32.91-.64 1.76-.93 2.55-.258.05-.524.079-.789.109.5176685.0581545 1.0380811.0885313 1.559.091.7480151.0047121 1.4947608-.0622606 2.23-.2.29-.79.61-1.64.93-2.55 1.11-3.2 5.43-4.46 9.13-4.95.8415547-1.4675101 1.3916362-3.0837989 1.62-4.76.0619326-.5109679.0919908-1.0252963.09-1.54.0273232-3.3120119-1.1007267-6.5299598-3.19-9.1z" fill="#cad9fc"/><circle id="Oval" cx="23" cy="20" fill="#e8edfc" r="4"/><path id="Shape" d="m23 16c-.5146843.0021695-1.0240724.1040471-1.5.3 1.5110147.6085107 2.5007405 2.0740584 2.5007405 3.703s-.9897258 3.0944893-2.5007405 3.703c1.496414.6077595 3.211506.2559465 4.3478056-.8918556s1.4708211-2.8663504.8480212-4.3565675c-.6227999-1.490217-2.0807039-2.4596648-3.6958268-2.4575769z" fill="#cad9fc"/><path id="Shape" d="m23 28c-3.687 0-7.391-2.163-8.806-5.142-.3150084-.6466096-.2585507-1.4125689.1478596-2.0060038.4064102-.5934349 1.100174-.9229391 1.8169277-.8629527s1.3460964.5002238 1.6482127 1.1529565c1.1272887 1.7793938 3.087076 2.8577931 5.1935 2.8577931s4.0662113-1.0783993 5.1935-2.8577931c.3021163-.6527327.931459-1.0929701 1.6482127-1.1529565s1.4105175.2695178 1.8169277.8629527c.4064103.5934349.462868 1.3593942.1478596 2.0060038-1.415 2.979-5.119 5.142-8.807 5.142z" fill="#e8edfc"/><path id="Shape" d="m30.859 20.193c-.8064335-.3789892-1.7663189-.1787752-2.354.491.5241615.6001943.6420202 1.4542775.3 2.174-1.5001944 2.7376024-4.2114049 4.6000054-7.305 5.018.496082.0797248.9975606.1211804 1.5.124 3.688 0 7.392-2.163 8.807-5.142.2277202-.4791089.2557725-1.02906.0779849-1.5288534-.1777877-.4997933-.5468496-.908482-1.0259849-1.1361466z" fill="#cad9fc"/><path id="Shape" d="m9 18c0 .52.03 1.03.08 1.54-.16719951.1136008-.34879963.2044009-.54.27-1.16726646.397696-2.45899954.040594-3.25623971-.9001936-.79724016-.9407875-.937575-2.273605-.35376029-3.3598064-1.23934193-.0269244-2.33363586-.8155539-2.75122331-1.982736s-.07191482-2.4709943.86907416-3.2779844c.94098898-.80699014 2.28225501-.94989293 3.37214915-.3592796.02803494-1.42525954 1.05898491-2.63222676 2.46233614-2.88273833 1.40335126-.25051157 2.78822956.52520727 3.30766386 1.85273833-2.0892733 2.5700402-3.21732318 5.7879881-3.19 9.1z" fill="#a4c2f7"/><path id="Shape" d="m43.84 13.54c-.4079454 1.1864563-1.5155263 1.9901522-2.77 2.01.5838147 1.0862014.4434799 2.4190189-.3537603 3.3598064-.7972402.9407876-2.0889732 1.2978896-3.2562397.9001936-.192636-.0696619-.3770677-.1602011-.55-.27.0619326-.5109679.0919908-1.0252963.09-1.54.0273232-3.3120119-1.1007267-6.5299598-3.19-9.1.5194343-1.32753106 1.9043126-2.1032499 3.3076639-1.85273833 1.4033512.25051157 2.4343012 1.45747879 2.4623361 2.88273833 1.0862014-.58381471 2.4190189-.44347987 3.3598064.3537603.9407876.7972402 1.2978896 2.0889732.9001936 3.2562397z" fill="#a4c2f7"/><path id="Shape" d="m41.97 9.73c-.7898226-.26853218-1.6557923-.19606611-2.39.2-.0174248-1.05766921-.5951613-2.02653803-1.5173887-2.54467342-.9222275-.51813538-2.0502236-.5075989-2.9626113.02767342.8968816.52513178 1.4571367 1.47794406 1.48 2.517 1.0907544-.59495955 2.4356651-.45415766 3.3795435.3538124.9438784.8079701 1.2904234 2.1150725.8708115 3.2845373-.4196118 1.1694648-1.5181125 1.9580751-2.760355 1.9816503.3960661.7342077.4685322 1.6001774.2 2.39-.2329127.6821018-.7064701 1.2559169-1.332 1.614.1647774.1029782.339695.1887616.522.256 1.1672665.397696 2.4589995.040594 3.2562397-.9001936.7972402-.9407875.937575-2.273605.3537603-3.3598064 1.4542006-.0250808 2.6791071-1.0935887 2.901375-2.5309214.222268-1.4373327-.6226753-2.8259204-2.001375-3.2890786z" fill="#7facfa"/><path id="Shape" d="m27 5v1h-8v-1c-.0016022-.17084248.0117824-.34149632.04-.51.2539519-1.99357887 1.9503114-3.48755575 3.96-3.48755575s3.7060481 1.49397688 3.96 3.48755575c.0282176.16850368.0416022.33915752.04.51z" fill="#e8edfc"/><path id="Shape" d="m26.96 4.49c-.1556324-1.22909501-.8739264-2.31594574-1.9436434-2.94092693-1.069717-.62498118-2.3692239-.71702878-3.5163566-.24907307 1.341247.53950075 2.2834538 1.76513553 2.46 3.2.0276403.16521204.041023.3324949.04.5v1h3v-1c.0016022-.17084248-.0117824-.34149632-.04-.51z" fill="#cad9fc"/><path id="Shape" d="m54.79 46c-.3721174 3.5013435-1.9031302 6.7780628-4.35 9.31-.5388452.5320658-1.135948 1.0016972-1.78 1.4-.8272113.5053211-1.6972235.936981-2.6 1.29-3.2422467 1.3299606-6.8777533 1.3299606-10.12 0-.9018563-.355095-1.7716923-.7866675-2.6-1.29-.5777129-.3615846-1.1201055-.7767493-1.62-1.24-2.534467-2.553382-4.1249245-5.8929902-4.51-9.47-.2253111-1.5293918-.2722923-3.0797717-.14-4.62.03-.28.15-2.49.31-4.38.02-.25.04-.49.06-.72.0543124-1.1400843.8947657-2.0887149 2.02-2.28 2.82-.23 8.39-2.44 10.96-5.71.1359316-.1840772.3511729-.2926999.58-.2926999s.4440684.1086227.58.2926999c2.57 3.27 8.14 5.48 10.96 5.71 1.081833.060779 1.9484598.9188253 2.02 2 .03.31.06.65.09 1 .14 1.89.25 4.11.28 4.38.1322923 1.5402283.0853111 3.0906082-.14 4.62z" fill="#e8edfc"/><path id="Shape" d="m54.93 41.38c-.03-.27-.14-2.49-.28-4.38-.03-.35-.06-.69-.09-1-.0715402-1.0811747-.938167-1.939221-2.02-2-2.82-.23-8.39-2.44-10.96-5.71-.1359316-.1840772-.3511729-.2926999-.58-.2926999s-.4440684.1086227-.58.2926999c-.2838707.3536078-.5912328.687697-.92 1 2.8157442 2.5154939 6.3056298 4.1526813 10.04 4.71 1.081833.060779 1.9484598.9188253 2.02 2 .03.31.06.65.09 1 .14 1.89.25 4.11.28 4.38.1322923 1.5402283.0853111 3.0906082-.14 4.62-.3721174 3.5013435-1.9031302 6.7780628-4.35 9.31-.5388452.5320658-1.135948 1.0016972-1.78 1.4-.8272113.5053211-1.6972235.936981-2.6 1.29-1.1395384.4625714-2.3375382.7654365-3.56.9 2.2275561.2562529 4.4837653-.053288 6.56-.9.9027765-.353019 1.7727887-.7846789 2.6-1.29.644052-.3983028 1.2411548-.8679342 1.78-1.4 2.4468698-2.5319372 3.9778826-5.8086565 4.35-9.31.2253111-1.5293918.2722923-3.0797717.14-4.62z" fill="#cad9fc"/><path id="Shape" d="m27.21 46h-1.41c-.5437713-.0011809-1.0741689-.1686749-1.52-.48-.8142916-.5791043-1.2926458-1.520864-1.28-2.52v-3c-.0111651-.8765252.357077-1.7150961 1.01-2.3.05-.04.1-.09.15-.13.465679-.3714452 1.0443307-.572562 1.64-.57l1.58-.0000242c-.16 1.8900242-.28 4.1000242-.31 4.3800242-.1322923 1.5402283-.0853111 3.0906082.14 4.62z" fill="#a4c2f7"/><path id="Shape" d="m59 40v3c.009511.9960474-.4637314 1.9350796-1.27 2.52-.4496242.3112468-.9831594.4786305-1.53.48h-1.41c.2253111-1.5293918.2722923-3.0797717.14-4.62-.03-.27-.14-2.49-.28-4.3800005l1.55.0000005c.6316296-.0003803 1.2422505.2268275 1.72.64.0253929.0174639.048858.0375768.07.06.652923.5849039 1.0211651 1.4234748 1.01 2.3z" fill="#e8edfc"/><path id="Shape" d="m57.99 37.7c-.021142-.0224232-.0446071-.0425361-.07-.06-.4777495-.4131725-1.0883704-.6403803-1.72-.64l-1.55-.0000005c.011.1540005.022.3130005.033.4700005.0818616.052567.160966.1093086.237.17.0253929.0174639.048858.0375768.07.06.652923.5849039 1.0211651 1.4234748 1.01 2.3v3c.0042344.9316216-.415211 1.8146646-1.14 2.4-.023.2-.041.4-.07.6h1.41c.5468406-.0013695 1.0803758-.1687532 1.53-.48.8062686-.5849204 1.279511-1.5239526 1.27-2.52v-3c.0111651-.8765252-.357077-1.7150961-1.01-2.3z" fill="#a4c2f7"/><path id="Shape" d="m57.92 37.64c-.4777495-.4131725-1.0883704-.6403803-1.72-.64h-1.55c-.03-.35-.06-.69-.09-1-.0715402-1.0811747-.938167-1.939221-2.02-2-2.82-.23-8.39-2.44-10.96-5.71-.1359316-.1840772-.3511729-.2926999-.58-.2926999s-.4440684.1086227-.58.2926999c-2.57 3.27-8.14 5.48-10.96 5.71-1.1252343.1912851-1.9656876 1.1399157-2.02 2.28-.02.23-.04.47-.06.72h-1.58c-.5956693-.002562-1.174321.1985548-1.64.57-.28-1.79.29-3.6 1.07-5.77.29-.79.61-1.64.93-2.55 1.11-3.2 5.43-4.46 9.13-4.95 1.9093613-.2479091 3.8355958-.3415455 5.76-.28 0 0 12.84-.64 14.88 5.23 1.19 3.41 2.4 5.92 1.99 8.39z" fill="#a4c2f7"/><path id="Shape" d="m55.93 29.25c-2.04-5.87-14.88-5.23-14.88-5.23s-.55-.026-1.436-.017c3.486.045 11.717.646 13.316 5.247 1.088 3.117 2.177 5.48 2.046 7.75h1.224c.6316296-.0003803 1.2422505.2268275 1.72.64.41-2.47-.8-4.98-1.99-8.39z" fill="#7facfa"/><path id="Shape" d="m59.69 52.93c-1.57 1.49-5.55 4.38-9.25 2.38 2.4468698-2.5319372 3.9778826-5.8086565 4.35-9.31h1.41c.5468406-.0013695 1.0803758-.1687532 1.53-.48.4212954 2.0768081 1.0928633 4.0948695 2 6.01.374082.3982048.3562078 1.0238035-.04 1.4z" fill="#a4c2f7"/><path id="Shape" d="m59.73 51.53c-.9071367-1.9151305-1.5787046-3.9331919-2-6.01-.4496242.3112468-.9831594.4786305-1.53.48h-1.351c.4006792 1.9127223 1.0323089 3.7696665 1.881 5.53.374082.3982048.3562078 1.0238035-.04 1.4-1.4035671 1.3553643-3.1215946 2.3411685-5 2.869 3.311.873 6.6-1.546 8-2.869.3962078-.3761965.414082-1.0017952.04-1.4z" fill="#7facfa"/><path id="Shape" d="m31.72 55.47c-3.75 2.22-7.82-.79-9.41-2.34-.3961669-.3881535-.4138495-1.0203076-.04-1.43.9178369-1.9709847 1.5927831-4.0461923 2.01-6.18.4458311.3113251.9762287.4788191 1.52.48h1.41c.3850755 3.5770098 1.975533 6.916618 4.51 9.47z" fill="#a4c2f7"/><path id="Shape" d="m45 52.5c.0139318.649971-.2312527 1.2787891-.6814817 1.7477776s-1.0685201.7396242-1.7185183.7522224h-3.2c-.6432892-.0014584-1.2578077-.2667858-1.7-.734-.4523444-.4763681-.7031398-1.1090889-.7-1.766-.0139318-.649971.2312527-1.2787891.6814817-1.7477776s1.0685201-.7396242 1.7185183-.7522224h3.2c.6431643.0010807 1.2577049.2660561 1.7.733.4525844.4766181.7033981 1.1097437.7 1.767z" fill="#a4c2f7"/><path id="Shape" d="m24.5 31.914-.055-.005c-6.5488214-.6364079-11.7307103-5.8199731-12.365-12.369-.1671995.1136008-.3487996.2044009-.54.27-.813097.2889727-1.7125515.2017751-2.455-.238.86511841 7.6557761 7.7553869 13.1724608 15.415 12.342z" fill="#fff"/><path id="Shape" d="m7.93 15.55c-1.24224246-.0235752-2.34074315-.8121855-2.76035501-1.9816503-.41961185-1.1694648-.07306692-2.4765672.87081149-3.2845373.9438784-.80797006 2.28878908-.94877195 3.37954352-.3538124.02386624-1.0390323.5838093-1.99169218 1.48-2.518-.91262788-.53469963-2.04048566-.54481098-2.96255333-.02655954-.92206768.51825143-1.49976665 1.48697703-1.51744667 2.54455954-1.09075444-.59495955-2.43566512-.45415766-3.37954352.3538124-.94387841.8079701-1.29042334 2.1150725-.87081149 3.2845373.41961186 1.1694648 1.51811255 1.9580751 2.76035501 1.9816503-.58381471 1.0862014-.44347987 2.4190189.35376029 3.3598064.79724017.9407876 2.08897325 1.2978896 3.25623971.9001936.18112556-.0636395.35375077-.1492804.514-.255-1.39318511-.8136112-1.89040833-2.5853007-1.124-4.005z" fill="#fff"/><path id="Shape" d="m14.878 30.669 1.068-1.691c1.0490563.6595735 2.1863912 1.1669636 3.378 1.507 1.1984316.3273661 2.4337461.5004311 3.676.515v2c-1.4272022-.014875-2.8465451-.2135091-4.223-.591-1.3754645-.3925526-2.6882304-.9783984-3.899-1.74z" fill="#fff"/><g fill="#428dff"><path id="Shape" d="m19.063 32.448c-.5522847.0027614-1.0022385-.4427153-1.0049999-.995-.0027615-.5522847.4427152-1.0022385.9949999-1.005h.01c.5522847 0 1 .4477153 1 1s-.4477153 1-1 1z"/><path id="Shape" d="m15 16c0 .5522847.4477153 1 1 1s1-.4477153 1-1c.5522847 0 1-.4477153 1-1s-.4477153-1-1-1c0-.5522847-.4477153-1-1-1s-1 .4477153-1 1c-.5522847 0-1 .4477153-1 1s.4477153 1 1 1z"/><path id="Shape" d="m30 13c-.5522847 0-1 .4477153-1 1-.5522847 0-1 .4477153-1 1s.4477153 1 1 1c0 .5522847.4477153 1 1 1s1-.4477153 1-1c.5522847 0 1-.4477153 1-1s-.4477153-1-1-1c0-.5522847-.4477153-1-1-1z"/><path id="Shape" d="m15 12c.2651948-.0000566.5195073-.1054506.707-.293.67185-.4691298 1.4736234-.7163404 2.293-.707.5522847 0 1-.4477153 1-1 0-.55228475-.4477153-1-1-1-1.3485828-.01412431-2.65975.44321023-3.707 1.293-.2859079.2859943-.3714219.7160366-.216678 1.0896546.1547439.3736179.5192821.6172591.923678.6173454z"/><path id="Shape" d="m31.707 10.293c-1.04725-.84978977-2.3584172-1.30712431-3.707-1.293-.5522847 0-1 .44771525-1 1 0 .5522847.4477153 1 1 1 .8217586-.0108074 1.6262.2364709 2.3.707.3923789.3789722 1.0160848.3735524 1.4018186-.0121814s.3911536-1.0094397.0121814-1.4018186z"/><path id="Shape" d="m58.847 45.864c.741561-.7687854 1.1550415-1.7958523 1.153-2.864v-3c.0018746-1.0024469-.3683646-1.9699151-1.039-2.715.188-2.111-.575-4.221-1.462-6.634-.2-.551-.414-1.126-.624-1.727-2.26-6.5-15.317-5.929-15.774-5.9-1.3802841-.0519268-2.7624413-.0208709-4.139.093.3086901-.7156617.5523398-1.4576551.728-2.217 1.9553517.3775416 3.8889567-.7475115 4.527-2.634.2129637-.6269934.2665741-1.2971236.156-1.95 1.9394715-.7054851 3.0211792-2.7732782 2.4946532-4.7687805-.5265259-1.99550225-2.4875957-3.26043913-4.5226532-2.9172195-.4085418-1.13939828-1.3164668-2.02889951-2.464-2.414-1.4849584-.4982921-3.1241196-.08400719-4.194 1.06-1.6292641-1.66603331-3.6512356-2.89572212-5.88-3.576-.577968-2.18049186-2.5512093-3.69884145-4.807-3.69884145s-4.229032 1.51834959-4.807 3.69884145c-2.2278638.67944555-4.2491513 1.90810499-5.878 3.573-.9425967-1.01727213-2.34752423-1.46924903-3.70645168-1.19239642s-2.47505611 1.24244116-2.94454832 2.54739642c-2.03761392-.35201494-4.00652973.9109878-4.5361498 2.9098093-.52962008 1.9988216.55556994 4.071059 2.5001498 4.7741907-.23370273 1.2916647.18766756 2.6152138 1.12510736 3.534029.9374398.9188151 2.26917718 1.3135438 3.55589264 1.053971.27617979 1.5078888.77460905 2.9664431 1.479 4.328 1.2060266 2.2183134 2.9579059 4.0923769 5.09 5.445.2264803.1511635.5058118.2008428.7705243.1370384s.4907358-.235291.6234757-.4730384c.2602923-.4677103.1185468-1.0568673-.326-1.355-1.8416476-1.1680155-3.3558161-2.7854227-4.4-4.7-1.0090478-1.9407036-1.5391361-4.094659-1.546-6.282-.10116835-5.3085008 3.0799104-10.13022093 8-12.126v.126c0 .55228475.4477153 1 1 1h8c.5522847 0 1-.44771525 1-1v-.126c4.9197118 1.99624007 8.1005959 6.8176651 8 12.126.0093849 1.8820635-.4621913 3.7353235-1.37 5.384-.724.11-1.465.25-2.2.43.1-.173.2-.348.28-.527.6107075-1.2946152.2217097-2.8403509-.9290431-3.6916793s-2.7426626-.7710708-3.8019569.1916793c-.1003959-2.6769475-2.2996705-4.795287-4.9785-4.795287s-4.8781041 2.1183395-4.9785 4.795287c-1.0591082-.9641092-2.6520023-1.0451278-3.8034657-.1934536-1.1514634.8516741-1.5403342 2.3984951-.9285343 3.6934536 1.573 3.313 5.657 5.713 9.71 5.713.7685998-.0020678 1.5348381-.0851943 2.286-.248-.022.057-.05.111-.07.17-.211.6-.422 1.18-.625 1.731-.031.083-.059.162-.089.244-.4979975.0659351-.9996636.100337-1.502.103-.5522847 0-.9999999.4477153-.9999999 1s.4477152 1 .9999999 1c.264 0 .52-.019.778-.033-.4919657 1.3538464-.7148029 2.7907388-.656 4.23-.7223723.7541039-1.1245117 1.7587356-1.122 2.803v3c-.0054968 1.0741779.4127455 2.1072076 1.164 2.875-.3488124 1.808946-.922253 3.5672283-1.707 5.234-.6573257.8170943-.5908358 1.9987997.154 2.737 1.9 1.855 4.55 3.413 7.241 3.413.9416487-.0008539 1.871953-.2055414 2.727-.6.388861.3265318.7987426.6271785 1.227.9.8787328.5290666 1.7995055.9849378 2.753 1.363 3.4850402 1.4386123 7.3979598 1.4386123 10.883 0 .9551437-.3771689 1.877596-.8323747 2.758-1.361.5007003-.3201811.9763977-.6778735 1.423-1.07.7974854.3298082 1.6520073.4996933 2.515.5 2.74302-.1782265 5.3232022-1.3646686 7.244-3.331.3866283-.3714981.6090705-.8818913.618-1.418.0127199-.4783808-.1518221-.9445832-.462-1.309-.7688774-1.6141411-1.3367876-3.3165282-1.691-5.069zm-50.847-27.864c0 .3.039.6.057.9-.76783042.1974383-1.57964611-.0792414-2.06708935-.704497-.48744324-.6252555-.55770749-1.4800417-.17891065-2.176503.16411739-.3072526.15652325-.6777677-.020046-.9780375-.17656926-.3002698-.49666768-.4870214-.844954-.4929625-.82392456-.0207312-1.54980785-.5472128-1.82539774-1.3239571-.27558988-.7767443-.04384885-1.6429922.58276524-2.1783764s1.51841396-.6290988 2.2426325-.2356665c.30631408.164563.67612232.1581924.97658654-.0168235.30046423-.1750158.48844325-.4935477.49641346-.8411765.01072538-.83722573.54743296-1.57700103 1.34-1.847.81724843-.27479037 1.7187292.00196945 2.241.688-1.96307394 2.6670492-3.01500201 5.8954164-3 9.207zm12-13c0-1.65685421 1.3431458-2.99999991 3-2.99999991s3 1.3431457 3 2.99999991zm15 3.792c.5214263-.68533018 1.422086-.96140373 2.238-.686.7942712.26964065 1.33263 1.01028461 1.344 1.849.0083095.3474496.1964235.6656667.4968285.8404441.300405.1747773.6700125.1810459.9761715.0165559.490517-.2684852 1.0716581-.3171558 1.6-.134.917158.3084604 1.4790021 1.2324835 1.3308264 2.1887107-.1481758.9562272-.963326 1.666873-1.9308264 1.6832893-.3484652.0055986-.6688804.1922138-.8456891.4925436-.1768088.3003299-.1845042.671048-.0203109.9784564.2592552.4780179.3126857 1.0409952.1479838 1.5592497-.1647019.5182544-.5333348.9470994-1.0209838 1.1877503-.416856.2044276-.8926098.2547307-1.343.142.018-.293.029-.594.029-.91.0149939-3.3122067-1.0376888-6.541088-3.002-9.208zm20.926 32.5c-.007-.083-.023-.353-.046-.743-.037-.632-.093-1.578-.159-2.548h.48c.4221998.000487.8281102.1629943 1.134.454.4338734.3951631.6762383.9582516.665 1.545v3c.0103896.6658828-.2999191 1.2961741-.834 1.694-.2831501.1983471-.6202908.3051432-.966.306h-.3c.1160807-1.2332587.1244457-2.4742886.025-3.709zm-14.826-16.273c3.359-.165 12.413.326 13.885 4.563.215.613.43 1.2.636 1.759.6478045 1.5209662 1.1026739 3.1170404 1.354 4.751-.2542361-.0586607-.514096-.0895086-.775-.092h-.634l-.007-.09c-.1221213-1.5659204-1.3748377-2.8050111-2.942-2.91-2.7-.215-7.906-2.348-10.256-5.331-.3351013-.4060342-.8340433-.6411751-1.3605-.6411751s-1.0253987.2351409-1.3605.6411751c-2.35 2.982-7.557 5.115-10.255 5.33-1.5462883.208226-2.7489547 1.4480883-2.91 3h-.675c-.2295791.0002185-.4586147.0223184-.684.066.2534908-1.6238912.7076315-3.2100247 1.352-4.722.206-.562.422-1.147.636-1.763 1.47-4.228 10.532-4.727 13.996-4.561zm-14.979 15.588c-.022.355-.038.6-.045.684-.0997782 1.2346824-.0917478 2.4757122.024 3.709h-.3c-.340818-.0005336-.6733337-.105208-.953-.3-.5455418-.3921971-.8624654-1.0282893-.847-1.7v-3c-.0099343-.5957669.2405932-1.16621.686-1.562.3018536-.2827781.7003856-.439472 1.114-.438l.5-.0000103c-.077 1.0000103-.139 1.9710103-.179 2.6070103zm-3.121-23.607c1.6568542 0 3 1.3431458 3 3s-1.3431458 3-3 3-3-1.3431458-3-3 1.3431458-3 3-3zm-7.9 5.43c-.2299273-.4974289-.0166783-1.0872518.478194-1.3226312.4948722-.2353794 1.0870028-.0286247 1.327806.4636312.911 1.923 3.594 3.429 6.094 3.429s5.184-1.506 6.1-3.43c.2408032-.4922559.8329338-.6990106 1.327806-.4636312.4948723.2353794.7081213.8252023.478194 1.3226312-1.26 2.649-4.585 4.571-7.906 4.571s-6.645-1.922-7.9-4.57zm7.9 29.959c.0488153-.0509218.0920599-.1069051.129-.167.8511025-1.6863643 1.4742281-3.4783969 1.853-5.329.2676657.0668939.542134.1027962.818.107h.568c.4903386 2.9685014 1.7416912 5.7592383 3.632 8.1-3.162.818-6.327-2.04-7.006-2.711zm25.137 3.478c-.7815644.4674264-1.5995486.8710678-2.446 1.207-3.0002137 1.2384854-6.3687863 1.2384854-9.369 0-.846671-.3361602-1.6649695-.7397917-2.447-1.207-4.608-2.894-6.234-9.321-5.8-14.406.008-.087.025-.35.049-.727.065-1.018.185-2.9.318-4.365.0217929-.6507056.470969-1.2087111 1.102-1.369 2.924-.234 8.592-2.434 11.457-5.83 2.865 3.4 8.532 5.6 11.457 5.83.5974241.0206376 1.0792217.4959126 1.108 1.093.132 1.45.252 3.483.317 4.576.024.417.042.707.05.8.433 5.077-1.193 11.504-5.802 14.398zm4.041-.979c1.7883436-2.3019177 2.9756922-5.0127153 3.455-7.888h.567c.2840095-.0035165.5666189-.040437.842-.11.384971 1.7942681 1.002522 3.5306049 1.837 5.165.0338262.0551951.0748537.1056386.122.15-.651.618-3.727 3.33-6.829 2.683z"/><path id="Shape" d="m37 45c.3687074-.0003134.7073293-.2034902.88111-.5286756s.1545228-.719615-.05011-1.0263244c-2.362-3.544-6.884-2.462-7.074-2.415-.3539356.0796449-.636976.3447323-.7396106.6926975-.1026346.3479653-.0087636.7242251.2452935.9832013.2540571.2589763.6284478.3600447.9783171.2641012.034-.008 3.335-.8 4.926 1.585.1857211.2783647.4983673.4453846.833.445z"/><path id="Shape" d="m51.241 41.03c-.19-.048-4.712-1.129-7.074 2.415-.306518.4595009-.1825009 1.0804819.277 1.387.4595009.306518 1.080482.1825009 1.387-.277 1.576-2.364 4.793-1.616 4.929-1.584.5317879.1222176 1.0633772-.2044264 1.1946254-.7340578.1312481-.5296314-.1863038-1.0667015-.7136254-1.2069422z"/><path id="Shape" d="m31 39c.2651948-.0000566.5195073-.1054506.707-.293 1.528-1.527 3.957-.765 3.98-.757.5246705.1736935 1.0908064-.1108295 1.2645-.6355.1736935-.5246705-.1108295-1.0908064-.6355-1.2645-.146-.05-3.616-1.166-6.023 1.243-.2859079.2859943-.3714219.7160366-.216678 1.0896546.1547439.3736179.5192821.6172591.923678.6173454z"/><path id="Shape" d="m45.684 36.051c-.5246705.1736936-.8091935.7398295-.6355 1.2645.1736936.5246705.7398295.8091935 1.2645.6355.023-.008 2.453-.77 3.98.757.3923789.3789722 1.0160848.3735524 1.4018186-.0121814s.3911536-1.0094397.0121814-1.4018186c-2.407-2.411-5.876-1.294-6.023-1.243z"/><path id="Shape" d="m42.6 49h-3.2c-1.9042863.0301534-3.4250444 1.5956397-3.4 3.5-.0038641.9156882.3482489 1.7970466.982 2.458.6283531.6651552 1.5029814 1.0420628 2.418 1.042h3.2c1.9042863-.0301534 3.4250444-1.5956397 3.4-3.5.0034947-.915914-.3485464-1.7974508-.982-2.459-.628456-.6648857-1.5031067-1.0414413-2.418-1.041zm0 5h-3.2c-.3699646-.001852-.7227529-.1563552-.975-.427-.2760309-.288649-.4285151-.6736268-.425-1.073-.0258646-.8001568.5999622-1.4706854 1.4-1.5h3.2c.3693657.0013713.7217847.1551476.974.425.276156.2894523.4289226.6749547.426 1.075.0258646.8001568-.5999622 1.4706854-1.4 1.5z"/><path id="Shape" d="m40 47h2c.5522847 0 1-.4477153 1-1s-.4477153-1-1-1h-2c-.5522847 0-1 .4477153-1 1s.4477153 1 1 1z"/></g></g></g></svg>